<?xml version="1.0" encoding="utf-8"?>
<!-- Generator: Adobe Illustrator 22.0.1, SVG Export Plug-In . SVG Version: 6.00 Build 0)  -->
<svg version="1.1" id="Layer_1" xmlns="http://www.w3.org/2000/svg" xmlns:xlink="http://www.w3.org/1999/xlink" x="0px" y="0px"
	 viewBox="0 0 1728 1296" style="enable-background:new 0 0 1728 1296;" xml:space="preserve">
<style type="text/css">
	.st0{fill:#FFFFFF;stroke:#000000;stroke-width:2;}
</style>
<g>
	<title>Title</title>
	<desc>Description</desc>
	<path vector-effect="non-scaling-stroke" shaper:cutDepth="0.0063246000000000005" shaper:pathType="exterior" d="M807,1089h18v193
		h307v-193h18V897h-18V722h-49v-18h-48v18h-48v271h-18V722h-48v-18h-48v18h-48v175h-18V1089"/>
</g>
<g>
	<title>Title</title>
	<desc>Description</desc>
	<path vector-effect="non-scaling-stroke" shaper:cutDepth="0.006324600000000002" shaper:pathType="exterior" d="M1390,411V42.3
		c0-15.7-12.7-28.3-28.3-28.3H858.3C842.7,14,830,26.7,830,42.3v0.4V411h-18v271h18v18h560v-18h229V411h-18V122h-193v289H1390"/>
	<path vector-effect="non-scaling-stroke" shaper:cutDepth="0.006324600000000002" shaper:pathType="interior" class="st0" d="
		M1289.6,122c15.7,0,28.4-12.7,28.4-28.4V78.3c0-15.7-12.7-28.3-28.3-28.3H929.3C913.7,50,901,62.7,901,78.3v15.3
		c0,15.7,12.7,28.3,28.3,28.3H1290"/>
	<path vector-effect="non-scaling-stroke" shaper:cutDepth="0.006324600000000002" shaper:pathType="interior" class="st0" d="
		M1016,402v18h187v-18H1016"/>
</g>
<g>
	<title>Title</title>
	<desc>Description</desc>
	<path vector-effect="non-scaling-stroke" shaper:cutDepth="0.0063246000000000005" shaper:pathType="exterior" d="M635,1052V491
		h-66v-18h-48v19h-66V263h114v18h114v-18h115v229h-18v560h18v229H569v-18h-48v18h-66v-229h66v18h48v-18H635"/>
	<path vector-effect="non-scaling-stroke" shaper:cutDepth="0.0063246000000000005" shaper:pathType="interior" class="st0" d="
		M731,491v-18h-48v18H731"/>
	<path vector-effect="non-scaling-stroke" shaper:cutDepth="0.0063246000000000005" shaper:pathType="interior" class="st0" d="
		M731,1070v-18h-48v18H731"/>
</g>
<g>
	<title>Title</title>
	<desc>Description</desc>
	<path vector-effect="non-scaling-stroke" shaper:cutDepth="0.006324600000000089" shaper:pathType="exterior" d="M502.5,528.5h48
		v18h48v193h-48v18h-48v-18h-48v-193h48V528.5"/>
	<path vector-effect="non-scaling-stroke" shaper:cutDepth="0.006324600000000089" shaper:pathType="interior" class="st0" d="
		M550.6,704c-7,0-12.8-5.7-12.8-12.8c0-7,5.7-12.8,12.8-12.8c7,0,12.8,5.7,12.8,12.8C563.3,698.3,557.6,704,550.6,704"/>
	<path vector-effect="non-scaling-stroke" shaper:cutDepth="0.006324600000000089" shaper:pathType="interior" class="st0" d="
		M550.6,607.6c-7,0-12.8-5.7-12.8-12.8c0-7,5.7-12.8,12.8-12.8c7,0,12.8,5.7,12.8,12.8C563.3,601.9,557.6,607.6,550.6,607.6"/>
	<path vector-effect="non-scaling-stroke" shaper:cutDepth="0.006324600000000089" shaper:pathType="interior" class="st0" d="
		M502.4,620.4c-14.1,0-25.5-11.4-25.5-25.5s11.4-25.5,25.5-25.5c14.1,0,25.5,11.4,25.5,25.5S516.4,620.4,502.4,620.4"/>
	<path vector-effect="non-scaling-stroke" shaper:cutDepth="0.006324600000000089" shaper:pathType="interior" class="st0" d="
		M502.4,716.5c-14.1,0-25.5-11.4-25.5-25.5s11.4-25.5,25.5-25.5c0,0,0,0,0,0c14.1,0,25.5,11.4,25.5,25.5S516.4,716.5,502.4,716.5"/>
	<path vector-effect="non-scaling-stroke" shaper:cutDepth="0.006324600000000089" shaper:pathType="interior" class="st0" d="
		M550.6,668.6c-14.1,0-25.5-11.4-25.5-25.5s11.4-25.5,25.5-25.5s25.5,11.4,25.5,25.5S564.6,668.6,550.6,668.6"/>
	<path vector-effect="non-scaling-stroke" shaper:cutDepth="0.006324600000000089" shaper:pathType="interior" class="st0" d="
		M502.4,656c-9.3,0-16.2-9.9-10.9-19.7c2-3.6,5.8-5.8,9.9-5.8h1.4c4.7,0,9.1,2.6,11,6.9C518.1,646.8,511.3,656,502.4,656"/>
</g>
<g>
	<title>Title</title>
	<desc>Description</desc>
	<path vector-effect="non-scaling-stroke" shaper:cutDepth="0.006324599999999997" shaper:pathType="exterior" d="M25,7v229H7v560
		h18v229h175v-18h193v18h192V796h-88.3c-31.3,0-56.7-25.4-56.7-56.7V292.7c0-31.3,25.4-56.7,56.7-56.7H585V7H393v18H200V7H25"/>
	<path vector-effect="non-scaling-stroke" shaper:cutDepth="0.006324599999999997" shaper:pathType="interior" class="st0" d="
		M393,814v-18H200v18H393"/>
	<path vector-effect="non-scaling-stroke" shaper:cutDepth="0.006324599999999997" shaper:pathType="interior" class="st0" d="
		M393,236v-18H200v18H393"/>
</g>
</svg>
