<?xml version="1.0" encoding="utf-8"?>
<!-- Generator: Adobe Illustrator 22.0.1, SVG Export Plug-In . SVG Version: 6.00 Build 0)  -->
<svg version="1.1" id="Layer_1" xmlns="http://www.w3.org/2000/svg" xmlns:xlink="http://www.w3.org/1999/xlink" x="0px" y="0px"
	 viewBox="0 0 1728 1296" style="enable-background:new 0 0 1728 1296;" xml:space="preserve">
<style type="text/css">
	.st0{fill:#FFFFFF;stroke:#000000;stroke-width:2;}
</style>
<g>
	<title>Title</title>
	<desc>Description</desc>
	<path vector-effect="non-scaling-stroke" shaper:cutDepth="0.0063246000000000005" shaper:pathType="exterior" d="M1034,26H806V8
		H245v18H16v175h19v193H16v193h19v-59.5C34.5,496.2,91.2,471,91.2,471h79.1c31.3,0,56.7,25.5,56.7,56.9l0,0V587h596v-59.3
		c0-31.3,25.4-56.7,56.7-56.7h79.6c31.3,0,56.7,25.4,56.7,56.7V587h18V394h-18V201h18V26"/>
	<path vector-effect="non-scaling-stroke" shaper:cutDepth="0.0063246000000000005" shaper:pathType="interior" class="st0" d="
		M227,201v193h18V201H227"/>
	<path vector-effect="non-scaling-stroke" shaper:cutDepth="0.0063246000000000005" shaper:pathType="interior" class="st0" d="
		M824,394V201h-18v193H824"/>
	<path vector-effect="non-scaling-stroke" shaper:cutDepth="0.0063246000000000005" shaper:pathType="interior" class="st0" d="
		M619,306v-18H432v18H619"/>
</g>
<g>
	<title>Title</title>
	<desc>Description</desc>
	<path vector-effect="non-scaling-stroke" shaper:cutDepth="0.0063246000000000005" shaper:pathType="exterior" d="M211,595v18H18
		v307h193v18h192v-18h175v-96h18V710h-18v-97H403v-18H210"/>
</g>
<g>
	<title>Title</title>
	<desc>Description</desc>
	<path vector-effect="non-scaling-stroke" shaper:cutDepth="0.006324600000000018" shaper:pathType="exterior" d="M990,676h17v192
		h-18v193H682V868h-18V676h18v-60h145v156h18V501h48v-18h48v18h48v175"/>
	<path vector-effect="non-scaling-stroke" shaper:cutDepth="0.006324600000000018" shaper:pathType="interior" class="st0" d="
		M731,772v18h48v-18H731"/>
</g>
<g>
	<title>Title</title>
	<desc>Description</desc>
	<path vector-effect="non-scaling-stroke" shaper:cutDepth="0.006324599999999982" shaper:pathType="exterior" d="M399,946v18h175
		v49h18v48h-18v48H303v18h271v48h18v48h-18v48H399v18H207v-18H14V964h193v-18H399"/>
	<path vector-effect="non-scaling-stroke" shaper:cutDepth="0.006324599999999982" shaper:pathType="interior" class="st0" d="
		M285,1061h18v-48h-18V1061"/>
</g>
<g>
	<title>Title</title>
	<desc>Description</desc>
	<path vector-effect="non-scaling-stroke" shaper:cutDepth="0.006324600000000036" shaper:pathType="exterior" d="M979,1265v-18h187
		v-144H979v-18H792v18H605v144h187v18H979"/>
	<path vector-effect="non-scaling-stroke" shaper:cutDepth="0.006324600000000036" shaper:pathType="interior" class="st0" d="
		M1045.4,1199.2c0-4.7,3.8-8.5,8.5-8.5c4.7,0,8.5,3.8,8.5,8.5c0,4.7-3.8,8.5-8.5,8.5C1049.2,1207.7,1045.4,1203.9,1045.4,1199.2"/>
	<path vector-effect="non-scaling-stroke" shaper:cutDepth="0.006324600000000036" shaper:pathType="interior" class="st0" d="
		M933,1199.2c0-6.2,6.7-10.9,13.3-7.2c2.3,1.3,3.7,3.8,3.7,6.5v1c0,3.1-1.7,6-4.5,7.3C939.2,1209.7,933,1205.2,933,1199.2
		c0,0,0-0.2,0-0.2"/>
	<path vector-effect="non-scaling-stroke" shaper:cutDepth="0.006324600000000036" shaper:pathType="interior" class="st0" d="
		M821.2,1199.2c0-4.7,3.8-8.5,8.5-8.5s8.5,3.8,8.5,8.5c0,4.7-3.8,8.5-8.5,8.5S821.2,1203.9,821.2,1199.2"/>
	<path vector-effect="non-scaling-stroke" shaper:cutDepth="0.006324600000000036" shaper:pathType="interior" class="st0" d="
		M709,1199.2c0-6.2,6.7-10.9,13.3-7.2c2.3,1.3,3.7,3.8,3.7,6.5v1c0,3.1-1.7,6-4.5,7.3C715.2,1209.7,709,1205.2,709,1199.2
		c0,0,0-0.2,0-0.2"/>
	<path vector-effect="non-scaling-stroke" shaper:cutDepth="0.006324600000000036" shaper:pathType="interior" class="st0" d="
		M645,1199.2c0-9.4,7.6-17,17-17s17,7.6,17,17c0,11.1-10.7,19.8-22.4,16.2C649.6,1213.3,645,1206.6,645,1199.2v-0.2"/>
	<path vector-effect="non-scaling-stroke" shaper:cutDepth="0.006324600000000036" shaper:pathType="interior" class="st0" d="
		M756.7,1199.2c0-9.4,7.6-17,17-17s17,7.6,17,17s-7.6,17-17,17S756.7,1208.6,756.7,1199.2"/>
	<path vector-effect="non-scaling-stroke" shaper:cutDepth="0.006324600000000036" shaper:pathType="interior" class="st0" d="
		M868.8,1199.2c0-9.4,7.6-17,17-17s17,7.6,17,17s-7.6,17-17,17S868.8,1208.6,868.8,1199.2"/>
	<path vector-effect="non-scaling-stroke" shaper:cutDepth="0.006324600000000036" shaper:pathType="interior" class="st0" d="
		M981,1199.2c0-9.4,7.6-17,17-17s17,7.6,17,17c0,11.1-10.7,19.8-22.4,16.2C985.6,1213.3,981,1206.6,981,1199.2v-0.2"/>
	<path vector-effect="non-scaling-stroke" shaper:cutDepth="0.006324600000000036" shaper:pathType="interior" class="st0" d="
		M1093,1199.2c0-12.1,12.7-21.3,25.5-14.9c5.2,2.6,8.5,8,8.5,13.9v1.5c0,6.8-4.1,13-10.5,15.4
		C1104.4,1219.6,1093,1210.7,1093,1199.2c0,0,0-0.2,0-0.2"/>
	<path vector-effect="non-scaling-stroke" shaper:cutDepth="0.006324600000000036" shaper:pathType="interior" class="st0" d="
		M1037,1151c0-12.1,12.7-21.3,25.5-14.9c5.2,2.6,8.5,8,8.5,13.9v1.5c0,6.8-4.1,13-10.5,15.3C1048.4,1171.4,1037,1162.5,1037,1151
		C1037,1151,1037,1151,1037,1151"/>
	<path vector-effect="non-scaling-stroke" shaper:cutDepth="0.006324600000000036" shaper:pathType="interior" class="st0" d="
		M925,1151c0-12.1,12.7-21.3,25.5-14.9c5.2,2.6,8.5,8,8.5,13.9v1.5c0,6.8-4.1,13-10.5,15.4C936.4,1171.4,925,1162.5,925,1151
		C925,1151,925,1151,925,1151"/>
	<path vector-effect="non-scaling-stroke" shaper:cutDepth="0.006324600000000036" shaper:pathType="interior" class="st0" d="
		M812.7,1151c0-9.4,7.6-17,17-17s17,7.6,17,17s-7.6,17-17,17S812.7,1160.4,812.7,1151"/>
	<path vector-effect="non-scaling-stroke" shaper:cutDepth="0.006324600000000036" shaper:pathType="interior" class="st0" d="
		M700.6,1151c0-9.4,7.6-17,17-17s17,7.6,17,17s-7.6,17-17,17S700.6,1160.4,700.6,1151"/>
	<path vector-effect="non-scaling-stroke" shaper:cutDepth="0.006324600000000036" shaper:pathType="interior" class="st0" d="
		M653,1151c0-6.2,6.7-10.9,13.3-7.2c2.3,1.3,3.7,3.8,3.7,6.5v1c0,3.1-1.7,6-4.5,7.3C659.2,1161.5,653,1157,653,1151
		C653,1151,653,1151,653,1151"/>
	<path vector-effect="non-scaling-stroke" shaper:cutDepth="0.006324600000000036" shaper:pathType="interior" class="st0" d="
		M765.2,1151c0-4.7,3.8-8.5,8.5-8.5s8.5,3.8,8.5,8.5c0,4.7-3.8,8.5-8.5,8.5S765.2,1155.7,765.2,1151"/>
	<path vector-effect="non-scaling-stroke" shaper:cutDepth="0.006324600000000036" shaper:pathType="interior" class="st0" d="
		M877,1151c0-4.7,3.8-8.5,8.5-8.5s8.5,3.8,8.5,8.5c0,5.6-5.4,9.9-11.3,8.1C879.3,1158,877,1154.7,877,1151L877,1151"/>
	<path vector-effect="non-scaling-stroke" shaper:cutDepth="0.006324600000000036" shaper:pathType="interior" class="st0" d="
		M989,1151c0-6.2,6.7-10.9,13.3-7.2c2.4,1.3,3.7,3.9,3.7,6.6v0.9c0,3.1-1.7,6-4.5,7.3C995.2,1161.5,989,1157,989,1151
		C989,1151,989,1151,989,1151"/>
	<path vector-effect="non-scaling-stroke" shaper:cutDepth="0.006324600000000036" shaper:pathType="interior" class="st0" d="
		M1101.4,1151c0-4.7,3.8-8.5,8.5-8.5c4.7,0,8.5,3.8,8.5,8.5c0,4.7-3.8,8.5-8.5,8.5C1105.2,1159.5,1101.4,1155.7,1101.4,1151"/>
</g>
</svg>
