<?xml version="1.0" encoding="utf-8"?>
<!-- Generator: Adobe Illustrator 22.0.1, SVG Export Plug-In . SVG Version: 6.00 Build 0)  -->
<svg version="1.1" id="Layer_1" xmlns="http://www.w3.org/2000/svg" xmlns:xlink="http://www.w3.org/1999/xlink" x="0px" y="0px"
	 viewBox="0 0 1728 1296" style="enable-background:new 0 0 1728 1296;" xml:space="preserve">
<style type="text/css">
	.st0{fill:#FFFFFF;stroke:#000000;stroke-width:2;}
</style>
<g>
	<title>Title</title>
	<desc>Description</desc>
	<path vector-effect="non-scaling-stroke" shaper:cutDepth="0.0063246000000000005" shaper:pathType="exterior" d="M24,985h18v175
		h307V985h18V792h-18V599h-97v-18H138v18H42v193H24V985"/>
	<path vector-effect="non-scaling-stroke" shaper:cutDepth="0.0063246000000000005" shaper:pathType="interior" class="st0" d="
		M120.4,1052c-15.7,0-28.4,12.7-28.4,28.4v15.2c0,15.7,12.7,28.3,28.3,28.3h149.3c15.7,0,28.3-12.7,28.3-28.3v-15.3
		c0-15.7-12.7-28.3-28.3-28.3H120"/>
</g>
<g>
	<title>Title</title>
	<desc>Description</desc>
	<path vector-effect="non-scaling-stroke" shaper:cutDepth="0.0063246000000000005" shaper:pathType="exterior" d="M13,10v192h18
		v193H13v175h351V395h-18V202h18v125h241V221h-18V115h18V9H13"/>
</g>
<g>
	<title>Title</title>
	<desc>Description</desc>
	<path vector-effect="non-scaling-stroke" shaper:cutDepth="0.006324599999999982" shaper:pathType="exterior" d="M367,543h18V437
		h-18V331h241v125h18V263h-18V88h351v175h-18v193h18v193H367V543"/>
</g>
<g>
	<title>Title</title>
	<desc>Description</desc>
	<path vector-effect="non-scaling-stroke" shaper:cutDepth="0.0063246000000000005" shaper:pathType="exterior" d="M1045,777V671
		h-96v-18H835v18h-96v106h-18v106h18v105h307V883h18V777h-18"/>
</g>
<g>
	<title>Title</title>
	<desc>Description</desc>
	<path vector-effect="non-scaling-stroke" shaper:cutDepth="0.006324599999999982" shaper:pathType="exterior" d="M375,867h17V674
		h97v-18h114v18h97v193h18v193h-18v175H392v-175h-18V867"/>
</g>
<g>
	<title>Title</title>
	<desc>Description</desc>
	<path vector-effect="non-scaling-stroke" shaper:cutDepth="0.0063246000000000005" shaper:pathType="exterior" d="M1202,631v18h114
		V56h-114v18h-114V56H974v593h114v-18H1202"/>
	<path vector-effect="non-scaling-stroke" shaper:cutDepth="0.0063246000000000005" shaper:pathType="interior" class="st0" d="
		M1088,297v18h114v-18H1088"/>
</g>
</svg>
