<?xml version="1.0" encoding="utf-8"?>
<!-- Generator: Fusion 360, Shaper Origin Export Add-In, Version 1.1  -->
<svg enable-background="new 0 0 17.022460000000002 10.25" height="10.25cm" shaper:fusionaddin="version:1.1" version="1.1" viewBox="0 0 17.022460000000002 10.25" width="17.022460000000002cm" x="0cm" xml:space="preserve" xmlns="http://www.w3.org/2000/svg" xmlns:shaper="http://www.shapertools.com/namespaces/shaper" xmlns:xlink="http://www.w3.org/1999/xlink" y="0cm"><path d="M14.353859338365492,0.0 L14.353859338365492,3.205833333333331 14.986319338365494,3.205833333333331 14.986319338365494,6.411666666666665 14.353859338365492,6.411666666666665 14.353859338365492,9.617539999999998 8.89052600503216,9.617539999999998 8.89052600503216,10.25 3.4271926716988252,10.25 3.427192671698826,9.617539999999998 -2.0361406616345086,9.617539999999998 -2.0361406616345086,5.449999999999999 A0.2000000000000004,0.2000000000000004 0 0,1 -1.8361406616345086,5.249999999999999 L-1.4361406616345085,5.25 -1.4361406616345085,1.4361406616345107 A0.19999999999999996,0.19999999999999996 0 0,1 -1.2637268685310599,1.2380522945125094 A1.2500000000000009,1.2500000000000009 0 0,0 -0.19808836712200173,0.17241379310345234 A0.20000000000000034,0.20000000000000034 0 0,1 -2.5637173728168792e-17,2.6645352591003757e-15 L14.353859338365492,0.0z" fill="rgb(0,0,0)" shaper:cutDepth="0.0063246000000000005" shaper:pathType="exterior" transform="matrix(1,0,0,-1,2.0361406616345086,10.25)" vector-effect="non-scaling-stroke" /><path d="M7.713859338365493,0.9987500000000058 A0.40000000000000124,0.40000000000000124 0 0,0 7.313859338365493,1.398750000000007 L7.313859338365489,8.21875 A0.40000000000000036,0.40000000000000036 0 0,0 7.713859338365491,8.618749999999999 L9.453859338365492,8.618749999999999 A0.3999999999999968,0.3999999999999968 0 0,0 9.85385933836549,8.218750000000002 L9.853859338365492,1.3987499999999997 A0.3999999999999979,0.3999999999999979 0 0,0 9.453859338365493,0.9987499999999998 L7.713859338365493,0.9987500000000065z" fill="rgb(255,255,255)" shaper:cutDepth="0.0063246000000000005" shaper:pathType="interior" stroke="rgb(0,0,0)" stroke-width="2" transform="matrix(1,0,0,-1,2.0361406616345086,10.25)" vector-effect="non-scaling-stroke" /><path d="M4.213859338365493,0.9987500000000065 A0.40000000000000124,0.40000000000000124 0 0,0 3.813859338365493,1.3987500000000077 L3.813859338365493,8.21875 A0.4000000000000039,0.4000000000000039 0 0,0 4.213859338365493,8.61875 L5.953859338365492,8.618749999999997 A0.3999999999999968,0.3999999999999968 0 0,0 6.353859338365492,8.21875 L6.353859338365493,1.3987499999999997 A0.40000000000000047,0.40000000000000047 0 0,0 5.9538593383654925,0.9987499999999997 L4.213859338365493,0.9987500000000069z" fill="rgb(255,255,255)" shaper:cutDepth="0.0063246000000000005" shaper:pathType="interior" stroke="rgb(0,0,0)" stroke-width="2" transform="matrix(1,0,0,-1,2.0361406616345086,10.25)" vector-effect="non-scaling-stroke" /><path d="M0.713859338365492,0.9987500000000065 A0.39999999999999986,0.39999999999999986 0 0,0 0.3138593383654918,1.3987500000000064 L0.31385933836549285,8.21875 A0.3999999999999986,0.3999999999999986 0 0,0 0.7138593383654923,8.61875 L2.453859338365491,8.61875 A0.40000000000000213,0.40000000000000213 0 0,0 2.853859338365492,8.218749999999998 L2.853859338365492,1.3987499999999997 A0.40000000000000036,0.40000000000000036 0 0,0 2.4538593383654916,0.9987499999999998 L0.7138593383654919,0.9987500000000067z" fill="rgb(255,255,255)" shaper:cutDepth="0.0063246000000000005" shaper:pathType="interior" stroke="rgb(0,0,0)" stroke-width="2" transform="matrix(1,0,0,-1,2.0361406616345086,10.25)" vector-effect="non-scaling-stroke" /><path d="M11.213859338365493,0.9987500000000087 A0.399999999999995,0.399999999999995 0 0,0 10.813859338365495,1.3987500000000037 L10.813859338365493,8.21875 A0.3999999999999968,0.3999999999999968 0 0,0 11.213859338365491,8.618749999999999 L12.953859338365492,8.618749999999999 A0.3999999999999968,0.3999999999999968 0 0,0 13.35385933836549,8.218750000000002 L13.353859338365492,1.3987499999999997 A0.3999999999999979,0.3999999999999979 0 0,0 12.953859338365493,0.9987499999999998 L11.213859338365493,0.9987500000000082z" fill="rgb(255,255,255)" shaper:cutDepth="0.0063246000000000005" shaper:pathType="interior" stroke="rgb(0,0,0)" stroke-width="2" transform="matrix(1,0,0,-1,2.0361406616345086,10.25)" vector-effect="non-scaling-stroke" /></svg>