<?xml version="1.0" encoding="utf-8"?>
<!-- Generator: Fusion 360, Shaper Origin Export Add-In, Version 1.1  -->
<svg enable-background="new 0 0 10.232460000000001 10.25" height="10.25cm" shaper:fusionaddin="version:1.1" version="1.1" viewBox="0 0 10.232460000000001 10.25" width="10.232460000000001cm" x="0cm" xml:space="preserve" xmlns="http://www.w3.org/2000/svg" xmlns:shaper="http://www.shapertools.com/namespaces/shaper" xmlns:xlink="http://www.w3.org/1999/xlink" y="0cm"><path d="M0.0,0.0 L7.563859338365495,1.6653345369377348e-16 A0.1999999999999989,0.1999999999999989 0 0,1 7.761947705487495,0.17241379310344818 A1.250000000000002,1.250000000000002 0 0,0 8.827586206896553,1.2380522945125068 A0.20000000000000176,0.20000000000000176 0 0,1 9.0,1.4361406616345087 L9.000000000000002,5.25 9.400000000000002,5.25 A0.20000000000000018,0.20000000000000018 0 0,1 9.600000000000001,5.45 L9.600000000000001,9.61754 6.400000000000001,9.61754 6.400000000000001,10.25 3.200000000000001,10.25 3.200000000000003,9.61754 1.7763568394002505e-15,9.61754 1.9721522630525295e-31,6.411666666666666 -0.6324599999999995,6.411666666666666 -0.63246,3.205833333333333 5.921164838039633e-16,3.2058333333333326 0.0,0.0z" fill="rgb(0,0,0)" shaper:cutDepth="0.0063246000000000005" shaper:pathType="exterior" transform="matrix(1,0,0,-1,0.63246,10.25)" vector-effect="non-scaling-stroke" /><path d="M2.000000000000001,5.86754 a1.0,1.0 0 1,0 2.0,0 a1.0,1.0 0 1,0 -2.0,0z" fill="rgb(255,255,255)" shaper:cutDepth="0.0063246000000000005" shaper:pathType="interior" stroke="rgb(0,0,0)" stroke-width="2" transform="matrix(1,0,0,-1,0.63246,10.25)" vector-effect="non-scaling-stroke" /><path d="M5.000000000000001,4.11754 a1.0,1.0 0 1,0 2.0,0 a1.0,1.0 0 1,0 -2.0,0z" fill="rgb(255,255,255)" shaper:cutDepth="0.0063246000000000005" shaper:pathType="interior" stroke="rgb(0,0,0)" stroke-width="2" transform="matrix(1,0,0,-1,0.63246,10.25)" vector-effect="non-scaling-stroke" /><path d="M2.000000000000001,2.36754 a1.0,1.0 0 1,0 2.0,0 a1.0,1.0 0 1,0 -2.0,0z" fill="rgb(255,255,255)" shaper:cutDepth="0.0063246000000000005" shaper:pathType="interior" stroke="rgb(0,0,0)" stroke-width="2" transform="matrix(1,0,0,-1,0.63246,10.25)" vector-effect="non-scaling-stroke" /><path d="M5.000000000000001,7.61754 a1.0,1.0 0 1,0 2.0,0 a1.0,1.0 0 1,0 -2.0,0z" fill="rgb(255,255,255)" shaper:cutDepth="0.0063246000000000005" shaper:pathType="interior" stroke="rgb(0,0,0)" stroke-width="2" transform="matrix(1,0,0,-1,0.63246,10.25)" vector-effect="non-scaling-stroke" /></svg>