<?xml version="1.0" encoding="utf-8"?>
<!-- Generator: Fusion 360, Shaper Origin Export Add-In, Version 1.1  -->
<svg enable-background="new 0 0 28.299999999999955 10.250000000000002" height="10.250000000000002cm" shaper:fusionaddin="version:1.1" version="1.1" viewBox="0 0 28.299999999999955 10.250000000000002" width="28.299999999999955cm" x="0cm" xml:space="preserve" xmlns="http://www.w3.org/2000/svg" xmlns:shaper="http://www.shapertools.com/namespaces/shaper" xmlns:xlink="http://www.w3.org/1999/xlink" y="0cm"><path d="M6.400000000000002,10.25 L-1.1638593383654932,10.250000000000002 A0.20000000000000107,0.20000000000000107 0 0,1 -1.3619477054874964,10.077586206896552 A1.2500000000000004,1.2500000000000004 0 0,0 -2.427586206896552,9.011947705487493 A0.1999999999999997,0.1999999999999997 0 0,1 -2.5999999999999996,8.813859338365493 L-2.6,5.0 -3.0,5.0 A0.20000000000000107,0.20000000000000107 0 0,1 -3.2,4.799999999999999 L-3.2,0.63246 1.9911200271508197e-16,0.63246 0.0,0.0 21.899999999999952,0.0 21.899999999999956,0.63246 25.099999999999955,0.63246 25.09999999999995,8.8 A0.1999999999999993,0.1999999999999993 0 0,1 24.899999999999952,9.0 L18.099999999999955,9.0 18.09999999999995,10.05 A0.1999999999999993,0.1999999999999993 0 0,1 17.899999999999952,10.25 L7.03246,10.25 7.03246,7.0441666666666665 6.400000000000001,7.0441666666666665 6.400000000000002,10.25z" fill="rgb(0,0,0)" shaper:cutDepth="0.0063246000000000005" shaper:pathType="exterior" transform="matrix(1,0,0,-1,3.2,10.250000000000002)" vector-effect="non-scaling-stroke" /><path d="M-0.5999999999999996,2.63246 a1.0,1.0 0 1,0 2.0,0 a1.0,1.0 0 1,0 -2.0,0z" fill="rgb(255,255,255)" shaper:cutDepth="0.0063246000000000005" shaper:pathType="interior" stroke="rgb(0,0,0)" stroke-width="2" transform="matrix(1,0,0,-1,3.2,10.250000000000002)" vector-effect="non-scaling-stroke" /><path d="M2.4000000000000004,7.88246 a1.0,1.0 0 1,0 2.0,0 a1.0,1.0 0 1,0 -2.0,0z" fill="rgb(255,255,255)" shaper:cutDepth="0.0063246000000000005" shaper:pathType="interior" stroke="rgb(0,0,0)" stroke-width="2" transform="matrix(1,0,0,-1,3.2,10.250000000000002)" vector-effect="non-scaling-stroke" /><path d="M2.4000000000000004,4.38246 a1.0,1.0 0 1,0 2.0,0 a1.0,1.0 0 1,0 -2.0,0z" fill="rgb(255,255,255)" shaper:cutDepth="0.0063246000000000005" shaper:pathType="interior" stroke="rgb(0,0,0)" stroke-width="2" transform="matrix(1,0,0,-1,3.2,10.250000000000002)" vector-effect="non-scaling-stroke" /><path d="M-0.5999999999999996,6.13246 a1.0,1.0 0 1,0 2.0,0 a1.0,1.0 0 1,0 -2.0,0z" fill="rgb(255,255,255)" shaper:cutDepth="0.0063246000000000005" shaper:pathType="interior" stroke="rgb(0,0,0)" stroke-width="2" transform="matrix(1,0,0,-1,3.2,10.250000000000002)" vector-effect="non-scaling-stroke" /><path d="M7.03246,3.838333333333334 L6.4,3.838333333333334 6.4,0.63246 7.03246,0.63246 7.03246,3.838333333333334z" fill="rgb(255,255,255)" shaper:cutDepth="0.0063246000000000005" shaper:pathType="interior" stroke="rgb(0,0,0)" stroke-width="2" transform="matrix(1,0,0,-1,3.2,10.250000000000002)" vector-effect="non-scaling-stroke" /></svg>