<?xml version="1.0" encoding="utf-8"?>
<!-- Generator: Fusion 360, Shaper Origin Export Add-In, Version 1.1  -->
<svg enable-background="new 0 0 28.299999999999955 10.25" height="10.25cm" shaper:fusionaddin="version:1.1" version="1.1" viewBox="0 0 28.299999999999955 10.25" width="28.299999999999955cm" x="0cm" xml:space="preserve" xmlns="http://www.w3.org/2000/svg" xmlns:shaper="http://www.shapertools.com/namespaces/shaper" xmlns:xlink="http://www.w3.org/1999/xlink" y="0cm"><path d="M17.37336666666662,0.6324600000000018 L22.836699999999954,0.6324600000000018 22.836699999999954,4.800000000000001 A0.1999999999999993,0.1999999999999993 0 0,1 22.636699999999955,5.000000000000002 L22.236699999999953,5.0 22.236699999999953,8.813859338365488 A0.20000000000000284,0.20000000000000284 0 0,1 22.0642862068965,9.01194770548749 A1.2499999999999891,1.2499999999999891 0 0,0 20.998647705487446,10.077586206896548 A0.19999999999999526,0.19999999999999526 0 0,1 20.800559338365446,10.249999999999998 L6.446699999999954,10.25 6.446699999999954,7.044166666666669 5.814239999999952,7.044166666666669 5.81423999999995,10.25 1.736699999999999,10.249999999999996 A0.1999999999999993,0.1999999999999993 0 0,1 1.536699999999999,10.049999999999997 L1.5366999999999997,9.0 -5.263300000000001,8.999999999999996 A0.1999999999999993,0.1999999999999993 0 0,1 -5.463300000000001,8.799999999999997 L-5.4633,0.6324600000000018 3.552713678800501e-15,0.6324600000000018 0.0,0.0 17.37336666666662,0.0 17.37336666666662,0.6324600000000018z" fill="rgb(0,0,0)" shaper:cutDepth="0.0063246000000000005" shaper:pathType="exterior" transform="matrix(1,0,0,-1,5.463300000000001,10.25)" vector-effect="non-scaling-stroke" /><path d="M13.486699999999953,8.851250000000002 A0.3999999999999968,0.3999999999999968 0 0,1 13.086699999999954,9.251249999999999 L11.346699999999954,9.251249999999999 A0.3999999999999968,0.3999999999999968 0 0,1 10.946699999999955,8.851250000000002 L10.946699999999954,2.03125 A0.3999999999999986,0.3999999999999986 0 0,1 11.346699999999952,1.6312499999999996 L13.086699999999952,1.6312500000000014 A0.39999999999999325,0.39999999999999325 0 0,1 13.486699999999953,2.0312499999999947 L13.486699999999953,8.85125z" fill="rgb(255,255,255)" shaper:cutDepth="0.0063246000000000005" shaper:pathType="interior" stroke="rgb(0,0,0)" stroke-width="2" transform="matrix(1,0,0,-1,5.463300000000001,10.25)" vector-effect="non-scaling-stroke" /><path d="M16.98669999999995,8.851250000000002 A0.3999999999999986,0.3999999999999986 0 0,1 16.58669999999995,9.25125 L14.846699999999954,9.251249999999999 A0.3999999999999968,0.3999999999999968 0 0,1 14.446699999999955,8.851250000000002 L14.446699999999954,2.03125 A0.3999999999999968,0.3999999999999968 0 0,1 14.846699999999954,1.6312499999999996 L16.58669999999995,1.6312500000000014 A0.3999999999999977,0.3999999999999977 0 0,1 16.98669999999995,2.031249999999999 L16.98669999999995,8.85125z" fill="rgb(255,255,255)" shaper:cutDepth="0.0063246000000000005" shaper:pathType="interior" stroke="rgb(0,0,0)" stroke-width="2" transform="matrix(1,0,0,-1,5.463300000000001,10.25)" vector-effect="non-scaling-stroke" /><path d="M20.486699999999953,8.851250000000002 A0.3999999999999986,0.3999999999999986 0 0,1 20.086699999999954,9.25125 L18.346699999999956,9.251249999999999 A0.3999999999999968,0.3999999999999968 0 0,1 17.946699999999957,8.851250000000002 L17.946699999999954,2.03125 A0.40000000000000213,0.40000000000000213 0 0,1 18.346699999999956,1.6312499999999956 L20.086699999999954,1.6312500000000014 A0.3999999999999977,0.3999999999999977 0 0,1 20.486699999999953,2.031249999999999 L20.486699999999953,8.85125z" fill="rgb(255,255,255)" shaper:cutDepth="0.0063246000000000005" shaper:pathType="interior" stroke="rgb(0,0,0)" stroke-width="2" transform="matrix(1,0,0,-1,5.463300000000001,10.25)" vector-effect="non-scaling-stroke" /><path d="M6.446699999999954,3.8383333333333383 L5.814239999999952,3.8383333333333383 5.814239999999952,0.6324600000000018 6.446699999999954,0.6324600000000018 6.446699999999954,3.8383333333333383z" fill="rgb(255,255,255)" shaper:cutDepth="0.0063246000000000005" shaper:pathType="interior" stroke="rgb(0,0,0)" stroke-width="2" transform="matrix(1,0,0,-1,5.463300000000001,10.25)" vector-effect="non-scaling-stroke" /><path d="M9.986699999999953,8.851250000000002 A0.3999999999999968,0.3999999999999968 0 0,1 9.586699999999954,9.251249999999999 L7.846699999999954,9.251249999999999 A0.40000000000000036,0.40000000000000036 0 0,1 7.446699999999951,8.851249999999999 L7.446699999999954,2.03125 A0.3999999999999977,0.3999999999999977 0 0,1 7.846699999999952,1.6312500000000014 L9.586699999999952,1.6312500000000014 A0.39999999999999325,0.39999999999999325 0 0,1 9.986699999999953,2.0312499999999947 L9.986699999999953,8.85125z" fill="rgb(255,255,255)" shaper:cutDepth="0.0063246000000000005" shaper:pathType="interior" stroke="rgb(0,0,0)" stroke-width="2" transform="matrix(1,0,0,-1,5.463300000000001,10.25)" vector-effect="non-scaling-stroke" /></svg>