<?xml version="1.0" encoding="UTF-8" standalone="no"?>
<!-- Generator: Fusion 360, Shaper Origin Export Add-In, Version 1.0  -->

<svg
   xmlns:shaper="http://www.shapertools.com/namespaces/shaper"
   xmlns:dc="http://purl.org/dc/elements/1.1/"
   xmlns:cc="http://creativecommons.org/ns#"
   xmlns:rdf="http://www.w3.org/1999/02/22-rdf-syntax-ns#"
   xmlns:svg="http://www.w3.org/2000/svg"
   xmlns="http://www.w3.org/2000/svg"
   xmlns:sodipodi="http://sodipodi.sourceforge.net/DTD/sodipodi-0.dtd"
   xmlns:inkscape="http://www.inkscape.org/namespaces/inkscape"
   enable-background="new 0 0 54.39999999999999 40.64"
   height="40.64cm"
   shaper:fusionaddin="version:1.0"
   version="1.1"
   viewBox="0 0 54.39999999999999 40.64"
   width="54.39999999999999cm"
   x="0cm"
   xml:space="preserve"
   y="0cm"
   id="svg48"
   sodipodi:docname="Floor.svg"
   inkscape:version="0.92.2 5c3e80d, 2017-08-06"><metadata
     id="metadata54"><rdf:RDF><cc:Work
         rdf:about=""><dc:format>image/svg+xml</dc:format><dc:type
           rdf:resource="http://purl.org/dc/dcmitype/StillImage" /></cc:Work></rdf:RDF></metadata><defs
     id="defs52" /><sodipodi:namedview
     pagecolor="#ffffff"
     bordercolor="#666666"
     borderopacity="1"
     objecttolerance="10"
     gridtolerance="10"
     guidetolerance="10"
     inkscape:pageopacity="0"
     inkscape:pageshadow="2"
     inkscape:window-width="1680"
     inkscape:window-height="1006"
     id="namedview50"
     showgrid="false"
     inkscape:zoom="0.42232697"
     inkscape:cx="980.63438"
     inkscape:cy="790.82401"
     inkscape:window-x="0"
     inkscape:window-y="0"
     inkscape:window-maximized="1"
     inkscape:current-layer="svg48" /><title
     id="title2">Title</title><desc
     id="desc4">Description</desc><path
     d="M52.6,8.763000000000003 A0.3175000000000008,0.3175000000000008 0 1,1 52.6,8.128000000000002 L54.4,8.128 54.4,0.0 7.105427357601002e-15,0.0 1.4210854715202004e-14,8.128 1.8000000000000114,8.128 A0.31750000000000256,0.31750000000000256 0 1,1 1.8000000000000114,8.763000000000005 L1.8000000000000043,15.620999999999999 A0.31750000000000256,0.31750000000000256 0 1,1 1.8000000000000185,16.256000000000004 L1.1324274851176597e-14,16.256 1.4210854715202004e-14,24.384 1.8000000000000114,24.384 A0.31750000000000256,0.31750000000000256 0 0,1 1.8000000000000116,25.019000000000005 L1.8000000000000043,31.876999999999995 A0.31750000000000256,0.31750000000000256 0 0,1 1.8000000000000185,32.512 L1.1324274851176597e-14,32.512 1.4210854715202004e-14,40.64 54.4,40.64 54.4,32.512 52.6,32.512 A0.31750000000000256,0.31750000000000256 0 1,1 52.6,31.876999999999995 L52.6,25.019000000000002 A0.317499999999999,0.317499999999999 0 1,1 52.6,24.384000000000004 L54.4,24.384 54.4,16.256 52.6,16.256 A0.317499999999999,0.317499999999999 0 1,1 52.6,15.621000000000002 L52.6,8.763000000000003"
     shaper:cutDepth="0.018000000000000002"
     shaper:pathType="exterior"
     id="path6"
     fill="rgb(0,0,0)"
     vector-effect="non-scaling-stroke"
     transform="matrix(1,0,0,-1,-7.105427357601002e-15,40.64)" /><path
     d="M 4.260624999999976 5.476875 m -0.4762500000000004, 0 a 0.4762500000000004,0.4762500000000004 0 1,0 0.9525000000000008,0 a 0.4762500000000004,0.4762500000000004 0 1,0 -0.9525000000000008,0"
     fill="rgb(193,193,193)"
     fill-rule="evenodd"
     shaper:cutDepth="0.0168275"
     shaper:pathType="hogging"
     transform="matrix(1,0,0,-1,-7.105427357601002e-15,40.64)"
     vector-effect="non-scaling-stroke"
     id="path8" /><path
     d="M 4.260624999999976 3.0956249999999983 m -0.4762500000000004, 0 a 0.4762500000000004,0.4762500000000004 0 1,0 0.9525000000000008,0 a 0.4762500000000004,0.4762500000000004 0 1,0 -0.9525000000000008,0"
     fill="rgb(193,193,193)"
     fill-rule="evenodd"
     shaper:cutDepth="0.0168275"
     shaper:pathType="hogging"
     transform="matrix(1,0,0,-1,-7.105427357601002e-15,40.64)"
     vector-effect="non-scaling-stroke"
     id="path10" /><path
     d="M 9.658124999999984 5.476875 m -0.4762500000000004, 0 a 0.4762500000000004,0.4762500000000004 0 1,0 0.9525000000000008,0 a 0.4762500000000004,0.4762500000000004 0 1,0 -0.9525000000000008,0"
     fill="rgb(193,193,193)"
     fill-rule="evenodd"
     shaper:cutDepth="0.0168275"
     shaper:pathType="hogging"
     transform="matrix(1,0,0,-1,-7.105427357601002e-15,40.64)"
     vector-effect="non-scaling-stroke"
     id="path12" /><path
     d="M 9.658124999999984 3.0956249999999983 m -0.4762500000000004, 0 a 0.4762500000000004,0.4762500000000004 0 1,0 0.9525000000000008,0 a 0.4762500000000004,0.4762500000000004 0 1,0 -0.9525000000000008,0"
     fill="rgb(193,193,193)"
     fill-rule="evenodd"
     shaper:cutDepth="0.0168275"
     shaper:pathType="hogging"
     transform="matrix(1,0,0,-1,-7.105427357601002e-15,40.64)"
     vector-effect="non-scaling-stroke"
     id="path14" /><path
     d="M 4.26062499999999 37.544374999999995 m -0.4762500000000004, 0 a 0.4762500000000004,0.4762500000000004 0 1,0 0.9525000000000008,0 a 0.4762500000000004,0.4762500000000004 0 1,0 -0.9525000000000008,0"
     fill="rgb(193,193,193)"
     fill-rule="evenodd"
     shaper:cutDepth="0.0168275"
     shaper:pathType="hogging"
     transform="matrix(1,0,0,-1,-7.105427357601002e-15,40.64)"
     vector-effect="non-scaling-stroke"
     id="path16" /><path
     d="M 4.26062499999999 35.163125 m -0.4762500000000004, 0 a 0.4762500000000004,0.4762500000000004 0 1,0 0.9525000000000008,0 a 0.4762500000000004,0.4762500000000004 0 1,0 -0.9525000000000008,0"
     fill="rgb(193,193,193)"
     fill-rule="evenodd"
     shaper:cutDepth="0.0168275"
     shaper:pathType="hogging"
     transform="matrix(1,0,0,-1,-7.105427357601002e-15,40.64)"
     vector-effect="non-scaling-stroke"
     id="path18" /><path
     d="M 9.658124999999998 37.544374999999995 m -0.4762500000000004, 0 a 0.4762500000000004,0.4762500000000004 0 1,0 0.9525000000000008,0 a 0.4762500000000004,0.4762500000000004 0 1,0 -0.9525000000000008,0"
     fill="rgb(193,193,193)"
     fill-rule="evenodd"
     shaper:cutDepth="0.0168275"
     shaper:pathType="hogging"
     transform="matrix(1,0,0,-1,-7.105427357601002e-15,40.64)"
     vector-effect="non-scaling-stroke"
     id="path20" /><path
     d="M 9.658124999999998 35.163125 m -0.4762500000000004, 0 a 0.4762500000000004,0.4762500000000004 0 1,0 0.9525000000000008,0 a 0.4762500000000004,0.4762500000000004 0 1,0 -0.9525000000000008,0"
     fill="rgb(193,193,193)"
     fill-rule="evenodd"
     shaper:cutDepth="0.0168275"
     shaper:pathType="hogging"
     transform="matrix(1,0,0,-1,-7.105427357601002e-15,40.64)"
     vector-effect="non-scaling-stroke"
     id="path22" /><path
     d="M 44.74187499999999 37.544375 m -0.4762500000000004, 0 a 0.4762500000000004,0.4762500000000004 0 1,0 0.9525000000000008,0 a 0.4762500000000004,0.4762500000000004 0 1,0 -0.9525000000000008,0"
     fill="rgb(193,193,193)"
     fill-rule="evenodd"
     shaper:cutDepth="0.0168275"
     shaper:pathType="hogging"
     transform="matrix(1,0,0,-1,-7.105427357601002e-15,40.64)"
     vector-effect="non-scaling-stroke"
     id="path24" /><path
     d="M 44.74187499999999 35.163125 m -0.4762500000000004, 0 a 0.4762500000000004,0.4762500000000004 0 1,0 0.9525000000000008,0 a 0.4762500000000004,0.4762500000000004 0 1,0 -0.9525000000000008,0"
     fill="rgb(193,193,193)"
     fill-rule="evenodd"
     shaper:cutDepth="0.0168275"
     shaper:pathType="hogging"
     transform="matrix(1,0,0,-1,-7.105427357601002e-15,40.64)"
     vector-effect="non-scaling-stroke"
     id="path26" /><path
     d="M 50.139374999999994 37.544375 m -0.4762500000000004, 0 a 0.4762500000000004,0.4762500000000004 0 1,0 0.9525000000000008,0 a 0.4762500000000004,0.4762500000000004 0 1,0 -0.9525000000000008,0"
     fill="rgb(193,193,193)"
     fill-rule="evenodd"
     shaper:cutDepth="0.0168275"
     shaper:pathType="hogging"
     transform="matrix(1,0,0,-1,-7.105427357601002e-15,40.64)"
     vector-effect="non-scaling-stroke"
     id="path28" /><path
     d="M 50.139374999999994 35.163125 m -0.4762500000000004, 0 a 0.4762500000000004,0.4762500000000004 0 1,0 0.9525000000000008,0 a 0.4762500000000004,0.4762500000000004 0 1,0 -0.9525000000000008,0"
     fill="rgb(193,193,193)"
     fill-rule="evenodd"
     shaper:cutDepth="0.0168275"
     shaper:pathType="hogging"
     transform="matrix(1,0,0,-1,-7.105427357601002e-15,40.64)"
     vector-effect="non-scaling-stroke"
     id="path30" /><path
     d="M 44.74187499999999 5.476875 m -0.4762500000000004, 0 a 0.4762500000000004,0.4762500000000004 0 1,0 0.9525000000000008,0 a 0.4762500000000004,0.4762500000000004 0 1,0 -0.9525000000000008,0"
     fill="rgb(193,193,193)"
     fill-rule="evenodd"
     shaper:cutDepth="0.0168275"
     shaper:pathType="hogging"
     transform="matrix(1,0,0,-1,-7.105427357601002e-15,40.64)"
     vector-effect="non-scaling-stroke"
     id="path32" /><path
     d="M 44.74187499999999 3.0956249999999983 m -0.4762500000000004, 0 a 0.4762500000000004,0.4762500000000004 0 1,0 0.9525000000000008,0 a 0.4762500000000004,0.4762500000000004 0 1,0 -0.9525000000000008,0"
     fill="rgb(193,193,193)"
     fill-rule="evenodd"
     shaper:cutDepth="0.0168275"
     shaper:pathType="hogging"
     transform="matrix(1,0,0,-1,-7.105427357601002e-15,40.64)"
     vector-effect="non-scaling-stroke"
     id="path34" /><path
     d="M 50.139374999999994 5.476875 m -0.4762500000000004, 0 a 0.4762500000000004,0.4762500000000004 0 1,0 0.9525000000000008,0 a 0.4762500000000004,0.4762500000000004 0 1,0 -0.9525000000000008,0"
     fill="rgb(193,193,193)"
     fill-rule="evenodd"
     shaper:cutDepth="0.0168275"
     shaper:pathType="hogging"
     transform="matrix(1,0,0,-1,-7.105427357601002e-15,40.64)"
     vector-effect="non-scaling-stroke"
     id="path36" /><path
     d="M 50.139374999999994 3.0956249999999983 m -0.4762500000000004, 0 a 0.4762500000000004,0.4762500000000004 0 1,0 0.9525000000000008,0 a 0.4762500000000004,0.4762500000000004 0 1,0 -0.9525000000000008,0"
     fill="rgb(193,193,193)"
     fill-rule="evenodd"
     shaper:cutDepth="0.0168275"
     shaper:pathType="hogging"
     transform="matrix(1,0,0,-1,-7.105427357601002e-15,40.64)"
     vector-effect="non-scaling-stroke"
     id="path38" /><path
     d="M3.704999999999977,1.9050000000000011 L3.704999999999977,6.667499999999997 10.213749999999978,6.667499999999997 10.213749999999983,1.9050000000000011 3.7049999999999823,1.9050000000000011 M 4.260624999999976 5.476875 m -0.4762500000000004, 0 a 0.4762500000000004,0.4762500000000004 0 1,0 0.9525000000000008,0 a 0.4762500000000004,0.4762500000000004 0 1,0 -0.9525000000000008,0 M 9.658124999999984 5.476875 m -0.4762500000000004, 0 a 0.4762500000000004,0.4762500000000004 0 1,0 0.9525000000000008,0 a 0.4762500000000004,0.4762500000000004 0 1,0 -0.9525000000000008,0 M 4.260624999999976 3.0956249999999983 m -0.4762500000000004, 0 a 0.4762500000000004,0.4762500000000004 0 1,0 0.9525000000000008,0 a 0.4762500000000004,0.4762500000000004 0 1,0 -0.9525000000000008,0 M 9.658124999999984 3.0956249999999983 m -0.4762500000000004, 0 a 0.4762500000000004,0.4762500000000004 0 1,0 0.9525000000000008,0 a 0.4762500000000004,0.4762500000000004 0 1,0 -0.9525000000000008,0"
     fill="rgb(108,108,108)"
     fill-rule="evenodd"
     shaper:cutDepth="0.0015874999999999995"
     shaper:pathType="hogging"
     transform="matrix(1,0,0,-1,-7.105427357601002e-15,40.64)"
     vector-effect="non-scaling-stroke"
     id="path40" /><path
     d="M3.704999999999991,33.9725 L3.704999999999991,38.735 10.213749999999992,38.735 10.213749999999997,33.9725 3.7049999999999965,33.9725 M 4.26062499999999 37.544374999999995 m -0.4762500000000004, 0 a 0.4762500000000004,0.4762500000000004 0 1,0 0.9525000000000008,0 a 0.4762500000000004,0.4762500000000004 0 1,0 -0.9525000000000008,0 M 9.658124999999998 37.544374999999995 m -0.4762500000000004, 0 a 0.4762500000000004,0.4762500000000004 0 1,0 0.9525000000000008,0 a 0.4762500000000004,0.4762500000000004 0 1,0 -0.9525000000000008,0 M 4.26062499999999 35.163125 m -0.4762500000000004, 0 a 0.4762500000000004,0.4762500000000004 0 1,0 0.9525000000000008,0 a 0.4762500000000004,0.4762500000000004 0 1,0 -0.9525000000000008,0 M 9.658124999999998 35.163125 m -0.4762500000000004, 0 a 0.4762500000000004,0.4762500000000004 0 1,0 0.9525000000000008,0 a 0.4762500000000004,0.4762500000000004 0 1,0 -0.9525000000000008,0"
     fill="rgb(108,108,108)"
     fill-rule="evenodd"
     shaper:cutDepth="0.0015874999999999995"
     shaper:pathType="hogging"
     transform="matrix(1,0,0,-1,-7.105427357601002e-15,40.64)"
     vector-effect="non-scaling-stroke"
     id="path42" /><path
     d="M44.186249999999994,33.972500000000004 L44.186249999999994,38.735 50.69499999999999,38.735 50.69499999999999,33.9725 44.186249999999994,33.972500000000004 M 44.74187499999999 37.544375 m -0.4762500000000004, 0 a 0.4762500000000004,0.4762500000000004 0 1,0 0.9525000000000008,0 a 0.4762500000000004,0.4762500000000004 0 1,0 -0.9525000000000008,0 M 50.139374999999994 37.544375 m -0.4762500000000004, 0 a 0.4762500000000004,0.4762500000000004 0 1,0 0.9525000000000008,0 a 0.4762500000000004,0.4762500000000004 0 1,0 -0.9525000000000008,0 M 44.74187499999999 35.163125 m -0.4762500000000004, 0 a 0.4762500000000004,0.4762500000000004 0 1,0 0.9525000000000008,0 a 0.4762500000000004,0.4762500000000004 0 1,0 -0.9525000000000008,0 M 50.139374999999994 35.163125 m -0.4762500000000004, 0 a 0.4762500000000004,0.4762500000000004 0 1,0 0.9525000000000008,0 a 0.4762500000000004,0.4762500000000004 0 1,0 -0.9525000000000008,0"
     fill="rgb(108,108,108)"
     fill-rule="evenodd"
     shaper:cutDepth="0.0015874999999999995"
     shaper:pathType="hogging"
     transform="matrix(1,0,0,-1,-7.105427357601002e-15,40.64)"
     vector-effect="non-scaling-stroke"
     id="path44" /><path
     d="M44.186249999999994,1.9050000000000011 L44.186249999999994,6.667499999999997 50.69499999999999,6.667499999999997 50.69499999999999,1.9050000000000011 44.18624999999999,1.9050000000000011 M 44.74187499999999 5.476875 m -0.4762500000000004, 0 a 0.4762500000000004,0.4762500000000004 0 1,0 0.9525000000000008,0 a 0.4762500000000004,0.4762500000000004 0 1,0 -0.9525000000000008,0 M 50.139374999999994 5.476875 m -0.4762500000000004, 0 a 0.4762500000000004,0.4762500000000004 0 1,0 0.9525000000000008,0 a 0.4762500000000004,0.4762500000000004 0 1,0 -0.9525000000000008,0 M 44.74187499999999 3.0956249999999983 m -0.4762500000000004, 0 a 0.4762500000000004,0.4762500000000004 0 1,0 0.9525000000000008,0 a 0.4762500000000004,0.4762500000000004 0 1,0 -0.9525000000000008,0 M 50.139374999999994 3.0956249999999983 m -0.4762500000000004, 0 a 0.4762500000000004,0.4762500000000004 0 1,0 0.9525000000000008,0 a 0.4762500000000004,0.4762500000000004 0 1,0 -0.9525000000000008,0"
     fill="rgb(108,108,108)"
     fill-rule="evenodd"
     shaper:cutDepth="0.0015874999999999995"
     shaper:pathType="hogging"
     transform="matrix(1,0,0,-1,-7.105427357601002e-15,40.64)"
     vector-effect="non-scaling-stroke"
     id="path46" /><g
     aria-label="Pocket depth: 1/16&quot;"
     style="font-style:normal;font-weight:normal;font-size:1.05833316px;line-height:1.25;font-family:sans-serif;letter-spacing:0px;word-spacing:0px;fill:#000000;fill-opacity:1;stroke:none;stroke-width:0.02645833"
     id="text58"><path
       d="M 2.8357568,7.0283511 V 7.260275 h 0.1050066 q 0.058291,0 0.090124,-0.030179 0.031833,-0.030179 0.031833,-0.08599 0,-0.055397 -0.031833,-0.085576 -0.031833,-0.030179 -0.090124,-0.030179 z m -0.083509,-0.068626 h 0.1885157 q 0.1037662,0 0.1566829,0.047129 0.05333,0.046716 0.05333,0.1372527 0,0.091364 -0.05333,0.1380794 -0.052917,0.046716 -0.1566829,0.046716 H 2.8357568 v 0.2480469 h -0.083509 z"
       style="font-size:0.84666669px;fill:#0000ff;stroke-width:0.02645833"
       id="path64"
       inkscape:connector-curvature="0" /><path
       d="m 3.409572,7.1672574 q -0.061185,0 -0.096738,0.047956 -0.035553,0.047542 -0.035553,0.1306381 0,0.083096 0.03514,0.1310514 0.035553,0.047542 0.097152,0.047542 0.060771,0 0.096325,-0.047956 0.035553,-0.047956 0.035553,-0.130638 0,-0.082269 -0.035553,-0.1302247 -0.035553,-0.048369 -0.096325,-0.048369 z m 0,-0.064492 q 0.099219,0 0.1558561,0.064492 0.056637,0.064492 0.056637,0.1785938 0,0.1136881 -0.056637,0.1785937 -0.056637,0.064492 -0.1558561,0.064492 -0.099632,0 -0.1562695,-0.064492 -0.056224,-0.064906 -0.056224,-0.1785937 0,-0.1141016 0.056224,-0.1785938 0.056637,-0.064492 0.1562695,-0.064492 z"
       style="font-size:0.84666669px;fill:#0000ff;stroke-width:0.02645833"
       id="path66"
       inkscape:connector-curvature="0" /><path
       d="m 4.0809523,7.131704 v 0.071107 q -0.032246,-0.017777 -0.064906,-0.026458 -0.032246,-0.0091 -0.065319,-0.0091 -0.074001,0 -0.1149284,0.047129 -0.040928,0.046715 -0.040928,0.1314649 0,0.084749 0.040928,0.1318782 0.040928,0.046715 0.1149284,0.046715 0.033073,0 0.065319,-0.00868 0.032659,-0.0091 0.064906,-0.026872 v 0.07028 q -0.031833,0.014883 -0.066146,0.022324 -0.0339,0.00744 -0.072347,0.00744 -0.1045931,0 -0.1661914,-0.065732 -0.061598,-0.065732 -0.061598,-0.1773535 0,-0.1132748 0.062012,-0.1781804 0.062425,-0.064906 0.170739,-0.064906 0.03514,0 0.068626,0.00744 0.033486,0.00703 0.064906,0.021497 z"
       style="font-size:0.84666669px;fill:#0000ff;stroke-width:0.02645833"
       id="path68"
       inkscape:connector-curvature="0" /><path
       d="M 4.2111769,6.9336799 H 4.287658 V 7.3136051 L 4.5146209,7.1139273 h 0.097152 L 4.3662062,7.3305549 4.6221079,7.5769482 H 4.5228891 L 4.287658,7.3508121 V 7.5769482 H 4.211177 Z"
       style="font-size:0.84666669px;fill:#0000ff;stroke-width:0.02645833"
       id="path70"
       inkscape:connector-curvature="0" /><path
       d="m 5.0714861,7.3264208 v 0.037207 H 4.72174 q 0.00496,0.078548 0.047129,0.1198894 0.042581,0.040928 0.1182357,0.040928 0.043822,0 0.084749,-0.010749 0.041341,-0.010749 0.081855,-0.032246 v 0.071934 q -0.040928,0.017363 -0.083922,0.026458 -0.042995,0.0091 -0.08723,0.0091 -0.1107942,0 -0.1756998,-0.064492 -0.064492,-0.064492 -0.064492,-0.1744596 0,-0.1136882 0.061185,-0.1802474 0.061598,-0.066973 0.165778,-0.066973 0.093431,0 0.1475879,0.060358 0.05457,0.059945 0.05457,0.1632975 z m -0.076068,-0.022324 q -8.268e-4,-0.062425 -0.03514,-0.099632 -0.0339,-0.037207 -0.090124,-0.037207 -0.063665,0 -0.1021126,0.035967 -0.038034,0.035967 -0.043822,0.1012858 z"
       style="font-size:0.84666669px;fill:#0000ff;stroke-width:0.02645833"
       id="path72"
       inkscape:connector-curvature="0" /><path
       d="m 5.2715774,6.9824625 v 0.1314648 h 0.1566829 v 0.059118 H 5.2715774 v 0.2513541 q 0,0.056637 0.015296,0.072761 0.01571,0.016123 0.063252,0.016123 h 0.078135 v 0.063665 h -0.078135 q -0.088057,0 -0.1215429,-0.03266 Q 5.1950965,7.5112154 5.1950965,7.424399 V 7.1730452 h -0.05581 v -0.059118 h 0.05581 V 6.9824625 Z"
       style="font-size:0.84666669px;fill:#0000ff;stroke-width:0.02645833"
       id="path74"
       inkscape:connector-curvature="0" /><path
       d="M 6.1029478,7.1842073 V 6.9336799 h 0.076068 V 7.5769482 H 6.1029478 V 7.507495 q -0.023978,0.041341 -0.060771,0.061598 -0.03638,0.019844 -0.087643,0.019844 -0.083923,0 -0.1368392,-0.066973 -0.052503,-0.066973 -0.052503,-0.1761132 0,-0.1091407 0.052503,-0.1761133 0.052917,-0.066973 0.1368392,-0.066973 0.051263,0 0.087643,0.020257 0.036794,0.019844 0.060771,0.061186 z m -0.259209,0.1616439 q 0,0.083922 0.034313,0.1318782 0.034727,0.047542 0.095085,0.047542 0.060358,0 0.095085,-0.047542 0.034727,-0.047956 0.034727,-0.1318782 0,-0.083923 -0.034727,-0.1314649 -0.034727,-0.047956 -0.095085,-0.047956 -0.060358,0 -0.095085,0.047956 -0.034313,0.047542 -0.034313,0.1314649 z"
       style="font-size:0.84666669px;fill:#0000ff;stroke-width:0.02645833"
       id="path76"
       inkscape:connector-curvature="0" /><path
       d="m 6.7317468,7.3264208 v 0.037207 H 6.3820007 q 0.00496,0.078548 0.047129,0.1198894 0.042581,0.040928 0.1182356,0.040928 0.043822,0 0.084749,-0.010749 0.041341,-0.010749 0.081855,-0.032246 v 0.071934 q -0.040928,0.017363 -0.083923,0.026458 -0.042995,0.0091 -0.08723,0.0091 -0.1107943,0 -0.1756999,-0.064492 -0.064492,-0.064492 -0.064492,-0.1744596 0,-0.1136882 0.061185,-0.1802474 0.061598,-0.066973 0.165778,-0.066973 0.093431,0 0.1475878,0.060358 0.05457,0.059945 0.05457,0.1632975 z m -0.076068,-0.022324 q -8.269e-4,-0.062425 -0.03514,-0.099632 -0.0339,-0.037207 -0.090124,-0.037207 -0.063665,0 -0.1021127,0.035967 -0.038034,0.035967 -0.043822,0.1012858 z"
       style="font-size:0.84666669px;fill:#0000ff;stroke-width:0.02645833"
       id="path78"
       inkscape:connector-curvature="0" /><path
       d="M 6.9301842,7.507495 V 7.7530615 H 6.853703 V 7.1139273 h 0.076481 v 0.07028 q 0.023978,-0.041341 0.060358,-0.061185 0.036794,-0.020257 0.087643,-0.020257 0.084336,0 0.1368392,0.066973 0.052917,0.066973 0.052917,0.1761133 0,0.1091406 -0.052917,0.1761132 -0.052503,0.066973 -0.1368392,0.066973 -0.05085,0 -0.087643,-0.019844 -0.03638,-0.020257 -0.060358,-0.061599 z M 7.1889797,7.3458512 q 0,-0.083923 -0.034726,-0.1314649 -0.034313,-0.047956 -0.094671,-0.047956 -0.060358,0 -0.095085,0.047956 -0.034313,0.047542 -0.034313,0.1314649 0,0.083922 0.034313,0.1318782 0.034727,0.047542 0.095085,0.047542 0.060358,0 0.094671,-0.047542 0.034726,-0.047956 0.034726,-0.1318782 z"
       style="font-size:0.84666669px;fill:#0000ff;stroke-width:0.02645833"
       id="path80"
       inkscape:connector-curvature="0" /><path
       d="m 7.4692729,6.9824625 v 0.1314648 h 0.1566829 v 0.059118 H 7.4692729 v 0.2513541 q 0,0.056637 0.015296,0.072761 0.01571,0.016123 0.063252,0.016123 h 0.078135 v 0.063665 H 7.547821 q -0.088057,0 -0.1215429,-0.03266 Q 7.3927921,7.5112154 7.3927921,7.424399 V 7.1730452 h -0.05581 v -0.059118 h 0.05581 V 6.9824625 Z"
       style="font-size:0.84666669px;fill:#0000ff;stroke-width:0.02645833"
       id="path82"
       inkscape:connector-curvature="0" /><path
       d="M 8.1113007,7.297482 V 7.5769482 H 8.035233 V 7.2999625 q 0,-0.065732 -0.025631,-0.098392 -0.025632,-0.03266 -0.076895,-0.03266 -0.061598,0 -0.097152,0.039274 -0.035553,0.039274 -0.035553,0.1070736 V 7.5769482 H 7.7235208 V 6.9336799 h 0.076481 v 0.252181 q 0.027285,-0.041754 0.064079,-0.062425 0.037207,-0.020671 0.085576,-0.020671 0.079789,0 0.1207162,0.049609 0.040928,0.049196 0.040928,0.1451081 z"
       style="font-size:0.84666669px;fill:#0000ff;stroke-width:0.02645833"
       id="path84"
       inkscape:connector-curvature="0" /><path
       d="M 8.28328,7.4719417 H 8.37051 V 7.5769482 H 8.28328 Z m 0,-0.3327963 H 8.37051 V 7.2441519 H 8.28328 Z"
       style="font-size:0.84666669px;fill:#0000ff;stroke-width:0.02645833"
       id="path86"
       inkscape:connector-curvature="0" /><path
       d="M 8.8446928,7.5066682 H 8.9811186 V 7.0357925 l -0.1484148,0.029766 v -0.076068 l 0.1475879,-0.029766 h 0.083509 v 0.5469434 h 0.1364258 v 0.07028 H 8.8446928 Z"
       style="font-size:0.84666669px;fill:#0000ff;stroke-width:0.02645833"
       id="path88"
       inkscape:connector-curvature="0" /><path
       d="m 9.4937489,6.9597248 h 0.07028 l -0.214974,0.6957715 h -0.07028 z"
       style="font-size:0.84666669px;fill:#0000ff;stroke-width:0.02645833"
       id="path90"
       inkscape:connector-curvature="0" /><path
       d="M 9.6698619,7.5066682 H 9.8062876 V 7.0357925 l -0.1484147,0.029766 v -0.076068 l 0.1475879,-0.029766 h 0.083509 v 0.5469434 h 0.1364262 v 0.07028 H 9.6698619 Z"
       style="font-size:0.84666669px;fill:#0000ff;stroke-width:0.02645833"
       id="path92"
       inkscape:connector-curvature="0" /><path
       d="m 10.38341,7.2350569 q -0.05622,0 -0.0893,0.038447 -0.03266,0.038447 -0.03266,0.10542 0,0.066559 0.03266,0.1054199 0.03307,0.038447 0.0893,0.038447 0.05622,0 0.08888,-0.038447 0.03307,-0.038861 0.03307,-0.1054199 0,-0.066973 -0.03307,-0.10542 -0.03266,-0.038447 -0.08888,-0.038447 z m 0.165778,-0.2616895 v 0.076068 q -0.03142,-0.014883 -0.06366,-0.022738 -0.03183,-0.00785 -0.06325,-0.00785 -0.08268,0 -0.126504,0.05581 -0.04341,0.055811 -0.04961,0.1686719 0.02439,-0.035967 0.06119,-0.054984 0.03679,-0.01943 0.08103,-0.01943 0.09302,0 0.146761,0.056637 0.05416,0.056224 0.05416,0.1533757 0,0.095085 -0.05622,0.1525488 -0.05622,0.057464 -0.149655,0.057464 -0.107073,0 -0.163711,-0.081855 -0.05664,-0.082269 -0.05664,-0.238125 0,-0.1463476 0.06945,-0.2331641 0.06945,-0.08723 0.186449,-0.08723 0.03142,0 0.06325,0.0062 0.03225,0.0062 0.06697,0.018604 z"
       style="font-size:0.84666669px;fill:#0000ff;stroke-width:0.02645833"
       id="path94"
       inkscape:connector-curvature="0" /><path
       d="m 10.794755,6.9597248 v 0.2294434 h -0.07028 V 6.9597248 Z m 0.156269,0 v 0.2294434 h -0.07028 V 6.9597248 Z"
       style="font-size:0.84666669px;fill:#0000ff;stroke-width:0.02645833"
       id="path96"
       inkscape:connector-curvature="0" /></g><g
     aria-label="Hole Depth: 16mm"
     style="font-style:normal;font-weight:normal;font-size:1.05833316px;line-height:1.25;font-family:sans-serif;letter-spacing:0px;word-spacing:0px;fill:#000000;fill-opacity:1;stroke:none;stroke-width:0.02645833"
     id="text62"><path
       d="m 2.8814003,0.93260699 h 0.083509 V 1.1856148 h 0.303444 V 0.93260699 h 0.083509 V 1.5498303 H 3.2683534 V 1.2558948 h -0.303444 v 0.2939355 h -0.083509 z"
       style="font-size:0.84666669px;fill:#0000ff;stroke-width:0.02645833"
       id="path99" /><path
       d="m 3.6941672,1.1401395 q -0.061185,0 -0.096738,0.047956 -0.035553,0.047542 -0.035553,0.130638 0,0.083096 0.03514,0.1310514 0.035553,0.047542 0.097152,0.047542 0.060771,0 0.096325,-0.047956 0.035553,-0.047956 0.035553,-0.130638 0,-0.082269 -0.035553,-0.1302246 -0.035553,-0.048369 -0.096325,-0.048369 z m 0,-0.064492 q 0.099219,0 0.1558561,0.064492 0.056637,0.064492 0.056637,0.1785938 0,0.1136882 -0.056637,0.1785938 -0.056637,0.064492 -0.1558561,0.064492 -0.099632,0 -0.1562695,-0.064492 -0.056224,-0.064906 -0.056224,-0.1785938 0,-0.1141016 0.056224,-0.1785938 0.056637,-0.064492 0.1562695,-0.064492 z"
       style="font-size:0.84666669px;fill:#0000ff;stroke-width:0.02645833"
       id="path101" /><path
       d="m 4.0323379,0.90656207 h 0.076068 V 1.5498303 h -0.076068 z"
       style="font-size:0.84666669px;fill:#0000ff;stroke-width:0.02645833"
       id="path103" /><path
       d="M 4.6632037,1.299303 V 1.33651 H 4.3134576 q 0.00496,0.078548 0.047129,0.1198893 0.042581,0.040928 0.1182357,0.040928 0.043822,0 0.084749,-0.010749 0.041341,-0.010749 0.081855,-0.032246 v 0.071934 q -0.040928,0.017363 -0.083922,0.026458 -0.042995,0.0091 -0.08723,0.0091 -0.1107942,0 -0.1756998,-0.064492 -0.064492,-0.064492 -0.064492,-0.1744597 0,-0.1136881 0.061185,-0.1802474 0.061598,-0.066973 0.165778,-0.066973 0.093431,0 0.1475879,0.060358 0.05457,0.059945 0.05457,0.1632976 z M 4.587136,1.2769787 q -8.268e-4,-0.062425 -0.03514,-0.099632 -0.0339,-0.037207 -0.090124,-0.037207 -0.063665,0 -0.1021126,0.035967 -0.038034,0.035967 -0.043822,0.1012859 z"
       style="font-size:0.84666669px;fill:#0000ff;stroke-width:0.02645833"
       id="path105" /><path
       d="M 5.1444147,1.0012333 V 1.481204 h 0.1008724 q 0.1277442,0 0.186862,-0.057878 0.059531,-0.057878 0.059531,-0.1827279 0,-0.1240234 -0.059531,-0.1814876 -0.059118,-0.057878 -0.186862,-0.057878 z m -0.083509,-0.0686263 h 0.1715658 q 0.1794206,0 0.2633431,0.0748275 0.083922,0.074414 0.083922,0.233164 0,0.1595769 -0.084336,0.2344043 -0.084336,0.074828 -0.2629297,0.074828 H 5.0609056 Z"
       style="font-size:0.84666669px;fill:#0000ff;stroke-width:0.02645833"
       id="path107" /><path
       d="M 6.105183,1.299303 V 1.33651 H 5.7554369 q 0.00496,0.078548 0.047129,0.1198893 0.042581,0.040928 0.1182357,0.040928 0.043822,0 0.084749,-0.010749 0.041341,-0.010749 0.081855,-0.032246 v 0.071934 q -0.040928,0.017363 -0.083922,0.026458 -0.042995,0.0091 -0.08723,0.0091 -0.1107942,0 -0.1756998,-0.064492 -0.064492,-0.064492 -0.064492,-0.1744597 0,-0.1136881 0.061185,-0.1802474 0.061598,-0.066973 0.165778,-0.066973 0.093431,0 0.1475879,0.060358 0.05457,0.059945 0.05457,0.1632976 z m -0.076068,-0.022324 q -8.269e-4,-0.062425 -0.03514,-0.099632 -0.0339,-0.037207 -0.090124,-0.037207 -0.063665,0 -0.1021126,0.035967 -0.038034,0.035967 -0.043822,0.1012859 z"
       style="font-size:0.84666669px;fill:#0000ff;stroke-width:0.02645833"
       id="path109" /><path
       d="M 6.3036204,1.4803772 V 1.7259436 H 6.2271392 V 1.0868095 h 0.076481 v 0.07028 q 0.023978,-0.041341 0.060358,-0.061185 0.036794,-0.020257 0.087643,-0.020257 0.084336,0 0.1368392,0.066973 0.052917,0.066973 0.052917,0.1761133 0,0.1091406 -0.052917,0.1761133 -0.052503,0.066973 -0.1368392,0.066973 -0.05085,0 -0.087643,-0.019844 -0.03638,-0.020257 -0.060358,-0.061598 z M 6.5624159,1.3187333 q 0,-0.083923 -0.034727,-0.1314648 -0.034313,-0.047956 -0.094671,-0.047956 -0.060358,0 -0.095085,0.047956 -0.034313,0.047542 -0.034313,0.1314648 0,0.083922 0.034313,0.1318783 0.034727,0.047542 0.095085,0.047542 0.060358,0 0.094671,-0.047542 0.034727,-0.047956 0.034727,-0.1318783 z"
       style="font-size:0.84666669px;fill:#0000ff;stroke-width:0.02645833"
       id="path111" /><path
       d="M 6.8427091,0.95534462 V 1.0868095 H 6.999392 v 0.059118 H 6.8427091 v 0.2513542 q 0,0.056637 0.015296,0.07276 0.01571,0.016123 0.063252,0.016123 h 0.078135 v 0.063665 h -0.078135 q -0.088057,0 -0.1215429,-0.03266 -0.033486,-0.033073 -0.033486,-0.1198893 V 1.1459273 h -0.05581 v -0.059118 h 0.05581 V 0.95534462 Z"
       style="font-size:0.84666669px;fill:#0000ff;stroke-width:0.02645833"
       id="path113" /><path
       d="M 7.4847369,1.2703642 V 1.5498303 H 7.4086692 V 1.2728446 q 0,-0.065732 -0.025632,-0.098392 -0.025632,-0.03266 -0.076894,-0.03266 -0.061598,0 -0.097152,0.039274 -0.035553,0.039274 -0.035553,0.1070736 V 1.5498303 H 7.096957 V 0.90656207 h 0.076481 V 1.1587431 q 0.027285,-0.041755 0.064079,-0.062425 0.037207,-0.020671 0.085576,-0.020671 0.079788,0 0.1207161,0.049609 0.040928,0.049196 0.040928,0.1451075 z"
       style="font-size:0.84666669px;fill:#0000ff;stroke-width:0.02645833"
       id="path115" /><path
       d="m 7.6567163,1.4448238 h 0.08723 v 0.1050065 h -0.08723 z m 0,-0.3327962 h 0.08723 v 0.1050065 h -0.08723 z"
       style="font-size:0.84666669px;fill:#0000ff;stroke-width:0.02645833"
       id="path117" /><path
       d="M 8.218129,1.4795504 H 8.3545548 V 1.0086747 L 8.20614,1.0384403 v -0.0760677 l 0.1475879,-0.0297656 h 0.083509 V 1.4795504 h 0.1364257 v 0.07028 H 8.218129 Z"
       style="font-size:0.84666669px;fill:#0000ff;stroke-width:0.02645833"
       id="path119" /><path
       d="m 8.9316773,1.207939 q -0.056224,0 -0.089297,0.038447 -0.03266,0.038447 -0.03266,0.1054199 0,0.066559 0.03266,0.1054199 0.033073,0.038447 0.089297,0.038447 0.056224,0 0.088883,-0.038447 0.033073,-0.038861 0.033073,-0.1054199 0,-0.066973 -0.033073,-0.1054199 -0.032659,-0.038447 -0.088883,-0.038447 z m 0.165778,-0.26168943 v 0.0760677 q -0.031419,-0.014883 -0.063665,-0.0227377 -0.031833,-0.007855 -0.063252,-0.007855 -0.082682,0 -0.1265039,0.0558106 -0.043408,0.055811 -0.049609,0.1686719 0.024391,-0.035967 0.061185,-0.054984 0.036794,-0.01943 0.081029,-0.01943 0.093018,0 0.1467611,0.056637 0.054157,0.056224 0.054157,0.1533756 0,0.095085 -0.056224,0.1525489 -0.056224,0.057464 -0.149655,0.057464 -0.1070735,0 -0.1637109,-0.081856 -0.056637,-0.082269 -0.056637,-0.238125 0,-0.1463477 0.069453,-0.2331641 0.069453,-0.0872298 0.1864485,-0.0872298 0.031419,0 0.063252,0.006201 0.032246,0.006201 0.066973,0.0186035 z"
       style="font-size:0.84666669px;fill:#0000ff;stroke-width:0.02645833"
       id="path121" /><path
       d="m 9.6315827,1.1756929 q 0.028525,-0.051263 0.068213,-0.075654 0.039687,-0.024391 0.093431,-0.024391 0.072347,0 0.1116211,0.05085 0.039274,0.050436 0.039274,0.1438672 V 1.5498303 H 9.8676406 V 1.2728446 q 0,-0.066559 -0.023564,-0.098805 -0.023564,-0.032246 -0.071934,-0.032246 -0.059118,0 -0.093431,0.039274 -0.034313,0.039274 -0.034313,0.1070736 V 1.5498303 H 9.5679173 V 1.2728446 q 0,-0.066973 -0.023564,-0.098805 -0.023564,-0.032246 -0.07276,-0.032246 -0.058291,0 -0.092604,0.039688 -0.034313,0.039274 -0.034313,0.1066602 V 1.5498303 H 9.268194 V 1.0868095 h 0.076481 v 0.071934 q 0.026045,-0.042581 0.062425,-0.062839 0.03638,-0.020257 0.086403,-0.020257 0.050436,0 0.085576,0.025632 0.035553,0.025632 0.052503,0.074414 z"
       style="font-size:0.84666669px;fill:#0000ff;stroke-width:0.02645833"
       id="path123" /><path
       d="m 10.456752,1.1756929 q 0.02853,-0.051263 0.06821,-0.075654 0.03969,-0.024391 0.09343,-0.024391 0.07235,0 0.111621,0.05085 0.03927,0.050436 0.03927,0.1438672 V 1.5498303 H 10.69281 V 1.2728446 q 0,-0.066559 -0.02356,-0.098805 -0.02356,-0.032246 -0.07193,-0.032246 -0.05912,0 -0.09343,0.039274 -0.03431,0.039274 -0.03431,0.1070736 v 0.2616894 h -0.07648 V 1.2728446 q 0,-0.066973 -0.02356,-0.098805 -0.02356,-0.032246 -0.07276,-0.032246 -0.05829,0 -0.0926,0.039688 -0.03431,0.039274 -0.03431,0.1066602 v 0.2616894 h -0.07648 V 1.0868095 h 0.07648 v 0.071934 q 0.02604,-0.042581 0.06242,-0.062839 0.03638,-0.020257 0.0864,-0.020257 0.05044,0 0.08558,0.025632 0.03555,0.025632 0.0525,0.074414 z"
       style="font-size:0.84666669px;fill:#0000ff;stroke-width:0.02645833"
       id="path125" /></g><g
     aria-label="Pocket depth: 1/16&quot;"
     style="font-style:normal;font-weight:normal;font-size:1.05833316px;line-height:1.25;font-family:sans-serif;letter-spacing:0px;word-spacing:0px;fill:#000000;fill-opacity:1;stroke:none;stroke-width:0.02645833"
     id="text58-1"
     transform="translate(-0.00903667,31.946416)"><path
       d="M 2.8357568,7.0283511 V 7.260275 h 0.1050066 q 0.058291,0 0.090124,-0.030179 0.031833,-0.030179 0.031833,-0.08599 0,-0.055397 -0.031833,-0.085576 -0.031833,-0.030179 -0.090124,-0.030179 z m -0.083509,-0.068626 h 0.1885157 q 0.1037662,0 0.1566829,0.047129 0.05333,0.046716 0.05333,0.1372527 0,0.091364 -0.05333,0.1380794 -0.052917,0.046716 -0.1566829,0.046716 H 2.8357568 v 0.2480469 h -0.083509 z"
       style="font-size:0.84666669px;fill:#0000ff;stroke-width:0.02645833"
       id="path64-0"
       inkscape:connector-curvature="0" /><path
       d="m 3.409572,7.1672574 q -0.061185,0 -0.096738,0.047956 -0.035553,0.047542 -0.035553,0.1306381 0,0.083096 0.03514,0.1310514 0.035553,0.047542 0.097152,0.047542 0.060771,0 0.096325,-0.047956 0.035553,-0.047956 0.035553,-0.130638 0,-0.082269 -0.035553,-0.1302247 -0.035553,-0.048369 -0.096325,-0.048369 z m 0,-0.064492 q 0.099219,0 0.1558561,0.064492 0.056637,0.064492 0.056637,0.1785938 0,0.1136881 -0.056637,0.1785937 -0.056637,0.064492 -0.1558561,0.064492 -0.099632,0 -0.1562695,-0.064492 -0.056224,-0.064906 -0.056224,-0.1785937 0,-0.1141016 0.056224,-0.1785938 0.056637,-0.064492 0.1562695,-0.064492 z"
       style="font-size:0.84666669px;fill:#0000ff;stroke-width:0.02645833"
       id="path66-2"
       inkscape:connector-curvature="0" /><path
       d="m 4.0809523,7.131704 v 0.071107 q -0.032246,-0.017777 -0.064906,-0.026458 -0.032246,-0.0091 -0.065319,-0.0091 -0.074001,0 -0.1149284,0.047129 -0.040928,0.046715 -0.040928,0.1314649 0,0.084749 0.040928,0.1318782 0.040928,0.046715 0.1149284,0.046715 0.033073,0 0.065319,-0.00868 0.032659,-0.0091 0.064906,-0.026872 v 0.07028 q -0.031833,0.014883 -0.066146,0.022324 -0.0339,0.00744 -0.072347,0.00744 -0.1045931,0 -0.1661914,-0.065732 -0.061598,-0.065732 -0.061598,-0.1773535 0,-0.1132748 0.062012,-0.1781804 0.062425,-0.064906 0.170739,-0.064906 0.03514,0 0.068626,0.00744 0.033486,0.00703 0.064906,0.021497 z"
       style="font-size:0.84666669px;fill:#0000ff;stroke-width:0.02645833"
       id="path68-3"
       inkscape:connector-curvature="0" /><path
       d="M 4.2111769,6.9336799 H 4.287658 V 7.3136051 L 4.5146209,7.1139273 h 0.097152 L 4.3662062,7.3305549 4.6221079,7.5769482 H 4.5228891 L 4.287658,7.3508121 V 7.5769482 H 4.211177 Z"
       style="font-size:0.84666669px;fill:#0000ff;stroke-width:0.02645833"
       id="path70-7"
       inkscape:connector-curvature="0" /><path
       d="m 5.0714861,7.3264208 v 0.037207 H 4.72174 q 0.00496,0.078548 0.047129,0.1198894 0.042581,0.040928 0.1182357,0.040928 0.043822,0 0.084749,-0.010749 0.041341,-0.010749 0.081855,-0.032246 v 0.071934 q -0.040928,0.017363 -0.083922,0.026458 -0.042995,0.0091 -0.08723,0.0091 -0.1107942,0 -0.1756998,-0.064492 -0.064492,-0.064492 -0.064492,-0.1744596 0,-0.1136882 0.061185,-0.1802474 0.061598,-0.066973 0.165778,-0.066973 0.093431,0 0.1475879,0.060358 0.05457,0.059945 0.05457,0.1632975 z m -0.076068,-0.022324 q -8.268e-4,-0.062425 -0.03514,-0.099632 -0.0339,-0.037207 -0.090124,-0.037207 -0.063665,0 -0.1021126,0.035967 -0.038034,0.035967 -0.043822,0.1012858 z"
       style="font-size:0.84666669px;fill:#0000ff;stroke-width:0.02645833"
       id="path72-1"
       inkscape:connector-curvature="0" /><path
       d="m 5.2715774,6.9824625 v 0.1314648 h 0.1566829 v 0.059118 H 5.2715774 v 0.2513541 q 0,0.056637 0.015296,0.072761 0.01571,0.016123 0.063252,0.016123 h 0.078135 v 0.063665 h -0.078135 q -0.088057,0 -0.1215429,-0.03266 Q 5.1950965,7.5112154 5.1950965,7.424399 V 7.1730452 h -0.05581 v -0.059118 h 0.05581 V 6.9824625 Z"
       style="font-size:0.84666669px;fill:#0000ff;stroke-width:0.02645833"
       id="path74-8"
       inkscape:connector-curvature="0" /><path
       d="M 6.1029478,7.1842073 V 6.9336799 h 0.076068 V 7.5769482 H 6.1029478 V 7.507495 q -0.023978,0.041341 -0.060771,0.061598 -0.03638,0.019844 -0.087643,0.019844 -0.083923,0 -0.1368392,-0.066973 -0.052503,-0.066973 -0.052503,-0.1761132 0,-0.1091407 0.052503,-0.1761133 0.052917,-0.066973 0.1368392,-0.066973 0.051263,0 0.087643,0.020257 0.036794,0.019844 0.060771,0.061186 z m -0.259209,0.1616439 q 0,0.083922 0.034313,0.1318782 0.034727,0.047542 0.095085,0.047542 0.060358,0 0.095085,-0.047542 0.034727,-0.047956 0.034727,-0.1318782 0,-0.083923 -0.034727,-0.1314649 -0.034727,-0.047956 -0.095085,-0.047956 -0.060358,0 -0.095085,0.047956 -0.034313,0.047542 -0.034313,0.1314649 z"
       style="font-size:0.84666669px;fill:#0000ff;stroke-width:0.02645833"
       id="path76-9"
       inkscape:connector-curvature="0" /><path
       d="m 6.7317468,7.3264208 v 0.037207 H 6.3820007 q 0.00496,0.078548 0.047129,0.1198894 0.042581,0.040928 0.1182356,0.040928 0.043822,0 0.084749,-0.010749 0.041341,-0.010749 0.081855,-0.032246 v 0.071934 q -0.040928,0.017363 -0.083923,0.026458 -0.042995,0.0091 -0.08723,0.0091 -0.1107943,0 -0.1756999,-0.064492 -0.064492,-0.064492 -0.064492,-0.1744596 0,-0.1136882 0.061185,-0.1802474 0.061598,-0.066973 0.165778,-0.066973 0.093431,0 0.1475878,0.060358 0.05457,0.059945 0.05457,0.1632975 z m -0.076068,-0.022324 q -8.269e-4,-0.062425 -0.03514,-0.099632 -0.0339,-0.037207 -0.090124,-0.037207 -0.063665,0 -0.1021127,0.035967 -0.038034,0.035967 -0.043822,0.1012858 z"
       style="font-size:0.84666669px;fill:#0000ff;stroke-width:0.02645833"
       id="path78-3"
       inkscape:connector-curvature="0" /><path
       d="M 6.9301842,7.507495 V 7.7530615 H 6.853703 V 7.1139273 h 0.076481 v 0.07028 q 0.023978,-0.041341 0.060358,-0.061185 0.036794,-0.020257 0.087643,-0.020257 0.084336,0 0.1368392,0.066973 0.052917,0.066973 0.052917,0.1761133 0,0.1091406 -0.052917,0.1761132 -0.052503,0.066973 -0.1368392,0.066973 -0.05085,0 -0.087643,-0.019844 -0.03638,-0.020257 -0.060358,-0.061599 z M 7.1889797,7.3458512 q 0,-0.083923 -0.034726,-0.1314649 -0.034313,-0.047956 -0.094671,-0.047956 -0.060358,0 -0.095085,0.047956 -0.034313,0.047542 -0.034313,0.1314649 0,0.083922 0.034313,0.1318782 0.034727,0.047542 0.095085,0.047542 0.060358,0 0.094671,-0.047542 0.034726,-0.047956 0.034726,-0.1318782 z"
       style="font-size:0.84666669px;fill:#0000ff;stroke-width:0.02645833"
       id="path80-7"
       inkscape:connector-curvature="0" /><path
       d="m 7.4692729,6.9824625 v 0.1314648 h 0.1566829 v 0.059118 H 7.4692729 v 0.2513541 q 0,0.056637 0.015296,0.072761 0.01571,0.016123 0.063252,0.016123 h 0.078135 v 0.063665 H 7.547821 q -0.088057,0 -0.1215429,-0.03266 Q 7.3927921,7.5112154 7.3927921,7.424399 V 7.1730452 h -0.05581 v -0.059118 h 0.05581 V 6.9824625 Z"
       style="font-size:0.84666669px;fill:#0000ff;stroke-width:0.02645833"
       id="path82-4"
       inkscape:connector-curvature="0" /><path
       d="M 8.1113007,7.297482 V 7.5769482 H 8.035233 V 7.2999625 q 0,-0.065732 -0.025631,-0.098392 -0.025632,-0.03266 -0.076895,-0.03266 -0.061598,0 -0.097152,0.039274 -0.035553,0.039274 -0.035553,0.1070736 V 7.5769482 H 7.7235208 V 6.9336799 h 0.076481 v 0.252181 q 0.027285,-0.041754 0.064079,-0.062425 0.037207,-0.020671 0.085576,-0.020671 0.079789,0 0.1207162,0.049609 0.040928,0.049196 0.040928,0.1451081 z"
       style="font-size:0.84666669px;fill:#0000ff;stroke-width:0.02645833"
       id="path84-8"
       inkscape:connector-curvature="0" /><path
       d="M 8.28328,7.4719417 H 8.37051 V 7.5769482 H 8.28328 Z m 0,-0.3327963 H 8.37051 V 7.2441519 H 8.28328 Z"
       style="font-size:0.84666669px;fill:#0000ff;stroke-width:0.02645833"
       id="path86-0"
       inkscape:connector-curvature="0" /><path
       d="M 8.8446928,7.5066682 H 8.9811186 V 7.0357925 l -0.1484148,0.029766 v -0.076068 l 0.1475879,-0.029766 h 0.083509 v 0.5469434 h 0.1364258 v 0.07028 H 8.8446928 Z"
       style="font-size:0.84666669px;fill:#0000ff;stroke-width:0.02645833"
       id="path88-4"
       inkscape:connector-curvature="0" /><path
       d="m 9.4937489,6.9597248 h 0.07028 l -0.214974,0.6957715 h -0.07028 z"
       style="font-size:0.84666669px;fill:#0000ff;stroke-width:0.02645833"
       id="path90-0"
       inkscape:connector-curvature="0" /><path
       d="M 9.6698619,7.5066682 H 9.8062876 V 7.0357925 l -0.1484147,0.029766 v -0.076068 l 0.1475879,-0.029766 h 0.083509 v 0.5469434 h 0.1364262 v 0.07028 H 9.6698619 Z"
       style="font-size:0.84666669px;fill:#0000ff;stroke-width:0.02645833"
       id="path92-5"
       inkscape:connector-curvature="0" /><path
       d="m 10.38341,7.2350569 q -0.05622,0 -0.0893,0.038447 -0.03266,0.038447 -0.03266,0.10542 0,0.066559 0.03266,0.1054199 0.03307,0.038447 0.0893,0.038447 0.05622,0 0.08888,-0.038447 0.03307,-0.038861 0.03307,-0.1054199 0,-0.066973 -0.03307,-0.10542 -0.03266,-0.038447 -0.08888,-0.038447 z m 0.165778,-0.2616895 v 0.076068 q -0.03142,-0.014883 -0.06366,-0.022738 -0.03183,-0.00785 -0.06325,-0.00785 -0.08268,0 -0.126504,0.05581 -0.04341,0.055811 -0.04961,0.1686719 0.02439,-0.035967 0.06119,-0.054984 0.03679,-0.01943 0.08103,-0.01943 0.09302,0 0.146761,0.056637 0.05416,0.056224 0.05416,0.1533757 0,0.095085 -0.05622,0.1525488 -0.05622,0.057464 -0.149655,0.057464 -0.107073,0 -0.163711,-0.081855 -0.05664,-0.082269 -0.05664,-0.238125 0,-0.1463476 0.06945,-0.2331641 0.06945,-0.08723 0.186449,-0.08723 0.03142,0 0.06325,0.0062 0.03225,0.0062 0.06697,0.018604 z"
       style="font-size:0.84666669px;fill:#0000ff;stroke-width:0.02645833"
       id="path94-7"
       inkscape:connector-curvature="0" /><path
       d="m 10.794755,6.9597248 v 0.2294434 h -0.07028 V 6.9597248 Z m 0.156269,0 v 0.2294434 h -0.07028 V 6.9597248 Z"
       style="font-size:0.84666669px;fill:#0000ff;stroke-width:0.02645833"
       id="path96-0"
       inkscape:connector-curvature="0" /></g><g
     transform="translate(-0.00903667,31.946416)"
     aria-label="Hole Depth: 16mm"
     style="font-style:normal;font-weight:normal;font-size:1.05833316px;line-height:1.25;font-family:sans-serif;letter-spacing:0px;word-spacing:0px;fill:#000000;fill-opacity:1;stroke:none;stroke-width:0.02645833"
     id="text62-0"><path
       inkscape:connector-curvature="0"
       d="m 2.8814003,0.93260699 h 0.083509 V 1.1856148 h 0.303444 V 0.93260699 h 0.083509 V 1.5498303 H 3.2683534 V 1.2558948 h -0.303444 v 0.2939355 h -0.083509 z"
       style="font-size:0.84666669px;fill:#0000ff;stroke-width:0.02645833"
       id="path99-5" /><path
       inkscape:connector-curvature="0"
       d="m 3.6941672,1.1401395 q -0.061185,0 -0.096738,0.047956 -0.035553,0.047542 -0.035553,0.130638 0,0.083096 0.03514,0.1310514 0.035553,0.047542 0.097152,0.047542 0.060771,0 0.096325,-0.047956 0.035553,-0.047956 0.035553,-0.130638 0,-0.082269 -0.035553,-0.1302246 -0.035553,-0.048369 -0.096325,-0.048369 z m 0,-0.064492 q 0.099219,0 0.1558561,0.064492 0.056637,0.064492 0.056637,0.1785938 0,0.1136882 -0.056637,0.1785938 -0.056637,0.064492 -0.1558561,0.064492 -0.099632,0 -0.1562695,-0.064492 -0.056224,-0.064906 -0.056224,-0.1785938 0,-0.1141016 0.056224,-0.1785938 0.056637,-0.064492 0.1562695,-0.064492 z"
       style="font-size:0.84666669px;fill:#0000ff;stroke-width:0.02645833"
       id="path101-6" /><path
       inkscape:connector-curvature="0"
       d="m 4.0323379,0.90656207 h 0.076068 V 1.5498303 h -0.076068 z"
       style="font-size:0.84666669px;fill:#0000ff;stroke-width:0.02645833"
       id="path103-7" /><path
       inkscape:connector-curvature="0"
       d="M 4.6632037,1.299303 V 1.33651 H 4.3134576 q 0.00496,0.078548 0.047129,0.1198893 0.042581,0.040928 0.1182357,0.040928 0.043822,0 0.084749,-0.010749 0.041341,-0.010749 0.081855,-0.032246 v 0.071934 q -0.040928,0.017363 -0.083922,0.026458 -0.042995,0.0091 -0.08723,0.0091 -0.1107942,0 -0.1756998,-0.064492 -0.064492,-0.064492 -0.064492,-0.1744597 0,-0.1136881 0.061185,-0.1802474 0.061598,-0.066973 0.165778,-0.066973 0.093431,0 0.1475879,0.060358 0.05457,0.059945 0.05457,0.1632976 z M 4.587136,1.2769787 q -8.268e-4,-0.062425 -0.03514,-0.099632 -0.0339,-0.037207 -0.090124,-0.037207 -0.063665,0 -0.1021126,0.035967 -0.038034,0.035967 -0.043822,0.1012859 z"
       style="font-size:0.84666669px;fill:#0000ff;stroke-width:0.02645833"
       id="path105-8" /><path
       inkscape:connector-curvature="0"
       d="M 5.1444147,1.0012333 V 1.481204 h 0.1008724 q 0.1277442,0 0.186862,-0.057878 0.059531,-0.057878 0.059531,-0.1827279 0,-0.1240234 -0.059531,-0.1814876 -0.059118,-0.057878 -0.186862,-0.057878 z M 5.0609057,0.932607 h 0.1715658 q 0.1794206,0 0.2633431,0.0748275 0.083922,0.074414 0.083922,0.233164 0,0.1595769 -0.084336,0.2344043 -0.084336,0.074828 -0.2629297,0.074828 H 5.0609056 Z"
       style="font-size:0.84666669px;fill:#0000ff;stroke-width:0.02645833"
       id="path107-0" /><path
       inkscape:connector-curvature="0"
       d="M 6.105183,1.299303 V 1.33651 H 5.7554369 q 0.00496,0.078548 0.047129,0.1198893 0.042581,0.040928 0.1182357,0.040928 0.043822,0 0.084749,-0.010749 0.041341,-0.010749 0.081855,-0.032246 v 0.071934 q -0.040928,0.017363 -0.083922,0.026458 -0.042995,0.0091 -0.08723,0.0091 -0.1107942,0 -0.1756998,-0.064492 -0.064492,-0.064492 -0.064492,-0.1744597 0,-0.1136881 0.061185,-0.1802474 0.061598,-0.066973 0.165778,-0.066973 0.093431,0 0.1475879,0.060358 0.05457,0.059945 0.05457,0.1632976 z M 6.029115,1.276979 Q 6.0282881,1.214554 5.993975,1.177347 5.960075,1.14014 5.903851,1.14014 q -0.063665,0 -0.1021126,0.035967 -0.038034,0.035967 -0.043822,0.1012859 z"
       style="font-size:0.84666669px;fill:#0000ff;stroke-width:0.02645833"
       id="path109-6" /><path
       inkscape:connector-curvature="0"
       d="M 6.3036204,1.4803772 V 1.7259436 H 6.2271392 V 1.0868095 h 0.076481 v 0.07028 q 0.023978,-0.041341 0.060358,-0.061185 0.036794,-0.020257 0.087643,-0.020257 0.084336,0 0.1368392,0.066973 0.052917,0.066973 0.052917,0.1761133 0,0.1091406 -0.052917,0.1761133 -0.052503,0.066973 -0.1368392,0.066973 -0.05085,0 -0.087643,-0.019844 -0.03638,-0.020257 -0.060358,-0.061599 z M 6.5624159,1.3187333 q 0,-0.083923 -0.034727,-0.1314648 -0.034313,-0.047956 -0.094671,-0.047956 -0.060358,0 -0.095085,0.047956 -0.034313,0.047542 -0.034313,0.1314648 0,0.083922 0.034313,0.1318783 0.034727,0.047542 0.095085,0.047542 0.060358,0 0.094671,-0.047542 0.034727,-0.047956 0.034727,-0.1318783 z"
       style="font-size:0.84666669px;fill:#0000ff;stroke-width:0.02645833"
       id="path111-5" /><path
       inkscape:connector-curvature="0"
       d="M 6.8427091,0.95534462 V 1.0868095 H 6.999392 v 0.059118 H 6.8427091 v 0.2513542 q 0,0.056637 0.015296,0.07276 0.01571,0.016123 0.063252,0.016123 h 0.078135 v 0.063665 h -0.078135 q -0.088057,0 -0.1215429,-0.03266 -0.033486,-0.033073 -0.033486,-0.1198893 V 1.1459273 h -0.05581 v -0.059118 h 0.05581 V 0.95534462 Z"
       style="font-size:0.84666669px;fill:#0000ff;stroke-width:0.02645833"
       id="path113-7" /><path
       inkscape:connector-curvature="0"
       d="M 7.4847369,1.2703642 V 1.5498303 H 7.4086692 V 1.2728446 q 0,-0.065732 -0.025632,-0.098392 -0.025632,-0.03266 -0.076894,-0.03266 -0.061598,0 -0.097152,0.039274 -0.035553,0.039274 -0.035553,0.1070736 V 1.5498303 H 7.096957 V 0.90656207 H 7.173438 V 1.1587431 q 0.027285,-0.041755 0.064079,-0.062425 0.037207,-0.020671 0.085576,-0.020671 0.079788,0 0.1207161,0.049609 0.040928,0.049196 0.040928,0.1451081 z"
       style="font-size:0.84666669px;fill:#0000ff;stroke-width:0.02645833"
       id="path115-3" /><path
       inkscape:connector-curvature="0"
       d="m 7.6567163,1.4448238 h 0.08723 v 0.1050065 h -0.08723 z m 0,-0.3327962 h 0.08723 v 0.1050065 h -0.08723 z"
       style="font-size:0.84666669px;fill:#0000ff;stroke-width:0.02645833"
       id="path117-4" /><path
       inkscape:connector-curvature="0"
       d="M 8.218129,1.4795504 H 8.3545548 V 1.0086747 L 8.20614,1.0384403 V 0.9623726 L 8.3537279,0.932607 h 0.083509 v 0.5469434 h 0.1364257 v 0.07028 H 8.218129 Z"
       style="font-size:0.84666669px;fill:#0000ff;stroke-width:0.02645833"
       id="path119-3" /><path
       inkscape:connector-curvature="0"
       d="m 8.9316773,1.207939 q -0.056224,0 -0.089297,0.038447 -0.03266,0.038447 -0.03266,0.1054199 0,0.066559 0.03266,0.1054199 0.033073,0.038447 0.089297,0.038447 0.056224,0 0.088883,-0.038447 0.033073,-0.038861 0.033073,-0.1054199 0,-0.066973 -0.033073,-0.1054199 -0.032659,-0.038447 -0.088883,-0.038447 z m 0.165778,-0.26168943 v 0.0760677 q -0.031419,-0.014883 -0.063665,-0.0227377 -0.031833,-0.007855 -0.063252,-0.007855 -0.082682,0 -0.1265039,0.0558106 -0.043408,0.055811 -0.049609,0.1686719 0.024391,-0.035967 0.061185,-0.054984 0.036794,-0.01943 0.081029,-0.01943 0.093018,0 0.1467611,0.056637 0.054157,0.056224 0.054157,0.1533756 0,0.095085 -0.056224,0.1525489 -0.056224,0.057464 -0.149655,0.057464 -0.1070735,0 -0.1637109,-0.081856 -0.056637,-0.082269 -0.056637,-0.238125 0,-0.1463477 0.069453,-0.2331641 0.069453,-0.0872298 0.1864485,-0.0872298 0.031419,0 0.063252,0.006201 0.032246,0.006201 0.066973,0.0186035 z"
       style="font-size:0.84666669px;fill:#0000ff;stroke-width:0.02645833"
       id="path121-0" /><path
       inkscape:connector-curvature="0"
       d="m 9.6315827,1.1756929 q 0.028525,-0.051263 0.068213,-0.075654 0.039687,-0.024391 0.093431,-0.024391 0.072347,0 0.1116211,0.05085 0.039274,0.050436 0.039274,0.1438672 V 1.5498303 H 9.8676406 V 1.2728446 q 0,-0.066559 -0.023564,-0.098805 -0.023564,-0.032246 -0.071934,-0.032246 -0.059118,0 -0.093431,0.039274 -0.034313,0.039274 -0.034313,0.1070736 V 1.5498303 H 9.5679173 V 1.2728446 q 0,-0.066973 -0.023564,-0.098805 -0.023564,-0.032246 -0.07276,-0.032246 -0.058291,0 -0.092604,0.039688 -0.034313,0.039274 -0.034313,0.1066602 V 1.5498303 H 9.268194 V 1.0868095 h 0.076481 v 0.071934 Q 9.37072,1.1161625 9.4071,1.0959045 q 0.03638,-0.020257 0.086403,-0.020257 0.050436,0 0.085576,0.025632 0.035553,0.025632 0.052504,0.074413 z"
       style="font-size:0.84666669px;fill:#0000ff;stroke-width:0.02645833"
       id="path123-4" /><path
       inkscape:connector-curvature="0"
       d="m 10.456752,1.1756929 q 0.02853,-0.051263 0.06821,-0.075654 0.03969,-0.024391 0.09343,-0.024391 0.07235,0 0.111621,0.05085 0.03927,0.050436 0.03927,0.1438672 V 1.5498303 H 10.69281 V 1.2728446 q 0,-0.066559 -0.02356,-0.098805 -0.02356,-0.032246 -0.07193,-0.032246 -0.05912,0 -0.09343,0.039274 -0.03431,0.039274 -0.03431,0.1070736 V 1.5498306 H 10.3931 v -0.276986 q 0,-0.066973 -0.02356,-0.098805 -0.02356,-0.032246 -0.07276,-0.032246 -0.05829,0 -0.0926,0.039688 -0.03431,0.039274 -0.03431,0.1066602 V 1.5498312 H 10.09339 V 1.0868095 h 0.07648 v 0.071934 q 0.02604,-0.042581 0.06242,-0.062839 0.03638,-0.020257 0.0864,-0.020257 0.05044,0 0.08558,0.025632 0.03555,0.025632 0.0525,0.074414 z"
       style="font-size:0.84666669px;fill:#0000ff;stroke-width:0.02645833"
       id="path125-8" /></g><g
     aria-label="Pocket depth: 1/16&quot;"
     style="font-style:normal;font-weight:normal;font-size:1.05833316px;line-height:1.25;font-family:sans-serif;letter-spacing:0px;word-spacing:0px;fill:#000000;fill-opacity:1;stroke:none;stroke-width:0.02645833"
     id="text58-1-7"
     transform="translate(40.670844,0.04098462)"><path
       d="M 2.8357568,7.0283511 V 7.260275 h 0.1050066 q 0.058291,0 0.090124,-0.030179 0.031833,-0.030179 0.031833,-0.08599 0,-0.055397 -0.031833,-0.085576 -0.031833,-0.030179 -0.090124,-0.030179 z m -0.083509,-0.068626 h 0.1885157 q 0.1037662,0 0.1566829,0.047129 0.05333,0.046716 0.05333,0.1372527 0,0.091364 -0.05333,0.1380794 -0.052917,0.046716 -0.1566829,0.046716 H 2.8357568 v 0.2480469 h -0.083509 z"
       style="font-size:0.84666669px;fill:#0000ff;stroke-width:0.02645833"
       id="path64-0-5"
       inkscape:connector-curvature="0" /><path
       d="m 3.409572,7.1672574 q -0.061185,0 -0.096738,0.047956 -0.035553,0.047542 -0.035553,0.1306381 0,0.083096 0.03514,0.1310514 0.035553,0.047542 0.097152,0.047542 0.060771,0 0.096325,-0.047956 0.035553,-0.047956 0.035553,-0.130638 0,-0.082269 -0.035553,-0.1302247 -0.035553,-0.048369 -0.096325,-0.048369 z m 0,-0.064492 q 0.099219,0 0.1558561,0.064492 0.056637,0.064492 0.056637,0.1785938 0,0.1136881 -0.056637,0.1785937 -0.056637,0.064492 -0.1558561,0.064492 -0.099632,0 -0.1562695,-0.064492 -0.056224,-0.064906 -0.056224,-0.1785937 0,-0.1141016 0.056224,-0.1785938 0.056637,-0.064492 0.1562695,-0.064492 z"
       style="font-size:0.84666669px;fill:#0000ff;stroke-width:0.02645833"
       id="path66-2-9"
       inkscape:connector-curvature="0" /><path
       d="m 4.0809523,7.131704 v 0.071107 q -0.032246,-0.017777 -0.064906,-0.026458 -0.032246,-0.0091 -0.065319,-0.0091 -0.074001,0 -0.1149284,0.047129 -0.040928,0.046715 -0.040928,0.1314649 0,0.084749 0.040928,0.1318782 0.040928,0.046715 0.1149284,0.046715 0.033073,0 0.065319,-0.00868 0.032659,-0.0091 0.064906,-0.026872 v 0.07028 q -0.031833,0.014883 -0.066146,0.022324 -0.0339,0.00744 -0.072347,0.00744 -0.1045931,0 -0.1661914,-0.065732 -0.061598,-0.065732 -0.061598,-0.1773535 0,-0.1132748 0.062012,-0.1781804 0.062425,-0.064906 0.170739,-0.064906 0.03514,0 0.068626,0.00744 0.033486,0.00703 0.064906,0.021497 z"
       style="font-size:0.84666669px;fill:#0000ff;stroke-width:0.02645833"
       id="path68-3-5"
       inkscape:connector-curvature="0" /><path
       d="M 4.2111769,6.9336799 H 4.287658 V 7.3136051 L 4.5146209,7.1139273 h 0.097152 L 4.3662062,7.3305549 4.6221079,7.5769482 H 4.5228891 L 4.287658,7.3508121 V 7.5769482 H 4.211177 Z"
       style="font-size:0.84666669px;fill:#0000ff;stroke-width:0.02645833"
       id="path70-7-3"
       inkscape:connector-curvature="0" /><path
       d="m 5.0714861,7.3264208 v 0.037207 H 4.72174 q 0.00496,0.078548 0.047129,0.1198894 0.042581,0.040928 0.1182357,0.040928 0.043822,0 0.084749,-0.010749 0.041341,-0.010749 0.081855,-0.032246 v 0.071934 q -0.040928,0.017363 -0.083922,0.026458 -0.042995,0.0091 -0.08723,0.0091 -0.1107942,0 -0.1756998,-0.064492 -0.064492,-0.064492 -0.064492,-0.1744596 0,-0.1136882 0.061185,-0.1802474 0.061598,-0.066973 0.165778,-0.066973 0.093431,0 0.1475879,0.060358 0.05457,0.059945 0.05457,0.1632975 z m -0.076068,-0.022324 q -8.268e-4,-0.062425 -0.03514,-0.099632 -0.0339,-0.037207 -0.090124,-0.037207 -0.063665,0 -0.1021126,0.035967 -0.038034,0.035967 -0.043822,0.1012858 z"
       style="font-size:0.84666669px;fill:#0000ff;stroke-width:0.02645833"
       id="path72-1-2"
       inkscape:connector-curvature="0" /><path
       d="m 5.2715774,6.9824625 v 0.1314648 h 0.1566829 v 0.059118 H 5.2715774 v 0.2513541 q 0,0.056637 0.015296,0.072761 0.01571,0.016123 0.063252,0.016123 h 0.078135 v 0.063665 h -0.078135 q -0.088057,0 -0.1215429,-0.03266 Q 5.1950965,7.5112154 5.1950965,7.424399 V 7.1730452 h -0.05581 v -0.059118 h 0.05581 V 6.9824625 Z"
       style="font-size:0.84666669px;fill:#0000ff;stroke-width:0.02645833"
       id="path74-8-7"
       inkscape:connector-curvature="0" /><path
       d="M 6.1029478,7.1842073 V 6.9336799 h 0.076068 V 7.5769482 H 6.1029478 V 7.507495 q -0.023978,0.041341 -0.060771,0.061598 -0.03638,0.019844 -0.087643,0.019844 -0.083923,0 -0.1368392,-0.066973 -0.052503,-0.066973 -0.052503,-0.1761132 0,-0.1091407 0.052503,-0.1761133 0.052917,-0.066973 0.1368392,-0.066973 0.051263,0 0.087643,0.020257 0.036794,0.019844 0.060771,0.061186 z m -0.259209,0.1616439 q 0,0.083922 0.034313,0.1318782 0.034727,0.047542 0.095085,0.047542 0.060358,0 0.095085,-0.047542 0.034727,-0.047956 0.034727,-0.1318782 0,-0.083923 -0.034727,-0.1314649 -0.034727,-0.047956 -0.095085,-0.047956 -0.060358,0 -0.095085,0.047956 -0.034313,0.047542 -0.034313,0.1314649 z"
       style="font-size:0.84666669px;fill:#0000ff;stroke-width:0.02645833"
       id="path76-9-3"
       inkscape:connector-curvature="0" /><path
       d="m 6.7317468,7.3264208 v 0.037207 H 6.3820007 q 0.00496,0.078548 0.047129,0.1198894 0.042581,0.040928 0.1182356,0.040928 0.043822,0 0.084749,-0.010749 0.041341,-0.010749 0.081855,-0.032246 v 0.071934 q -0.040928,0.017363 -0.083923,0.026458 -0.042995,0.0091 -0.08723,0.0091 -0.1107943,0 -0.1756999,-0.064492 -0.064492,-0.064492 -0.064492,-0.1744596 0,-0.1136882 0.061185,-0.1802474 0.061598,-0.066973 0.165778,-0.066973 0.093431,0 0.1475878,0.060358 0.05457,0.059945 0.05457,0.1632975 z m -0.076068,-0.022324 q -8.269e-4,-0.062425 -0.03514,-0.099632 -0.0339,-0.037207 -0.090124,-0.037207 -0.063665,0 -0.1021127,0.035967 -0.038034,0.035967 -0.043822,0.1012858 z"
       style="font-size:0.84666669px;fill:#0000ff;stroke-width:0.02645833"
       id="path78-3-9"
       inkscape:connector-curvature="0" /><path
       d="M 6.9301842,7.507495 V 7.7530615 H 6.853703 V 7.1139273 h 0.076481 v 0.07028 q 0.023978,-0.041341 0.060358,-0.061185 0.036794,-0.020257 0.087643,-0.020257 0.084336,0 0.1368392,0.066973 0.052917,0.066973 0.052917,0.1761133 0,0.1091406 -0.052917,0.1761132 -0.052503,0.066973 -0.1368392,0.066973 -0.05085,0 -0.087643,-0.019844 -0.03638,-0.020257 -0.060358,-0.061599 z M 7.1889797,7.3458512 q 0,-0.083923 -0.034726,-0.1314649 -0.034313,-0.047956 -0.094671,-0.047956 -0.060358,0 -0.095085,0.047956 -0.034313,0.047542 -0.034313,0.1314649 0,0.083922 0.034313,0.1318782 0.034727,0.047542 0.095085,0.047542 0.060358,0 0.094671,-0.047542 0.034726,-0.047956 0.034726,-0.1318782 z"
       style="font-size:0.84666669px;fill:#0000ff;stroke-width:0.02645833"
       id="path80-7-7"
       inkscape:connector-curvature="0" /><path
       d="m 7.4692729,6.9824625 v 0.1314648 h 0.1566829 v 0.059118 H 7.4692729 v 0.2513541 q 0,0.056637 0.015296,0.072761 0.01571,0.016123 0.063252,0.016123 h 0.078135 v 0.063665 H 7.547821 q -0.088057,0 -0.1215429,-0.03266 Q 7.3927921,7.5112154 7.3927921,7.424399 V 7.1730452 h -0.05581 v -0.059118 h 0.05581 V 6.9824625 Z"
       style="font-size:0.84666669px;fill:#0000ff;stroke-width:0.02645833"
       id="path82-4-7"
       inkscape:connector-curvature="0" /><path
       d="M 8.1113007,7.297482 V 7.5769482 H 8.035233 V 7.2999625 q 0,-0.065732 -0.025631,-0.098392 -0.025632,-0.03266 -0.076895,-0.03266 -0.061598,0 -0.097152,0.039274 -0.035553,0.039274 -0.035553,0.1070736 V 7.5769482 H 7.7235208 V 6.9336799 h 0.076481 v 0.252181 q 0.027285,-0.041754 0.064079,-0.062425 0.037207,-0.020671 0.085576,-0.020671 0.079789,0 0.1207162,0.049609 0.040928,0.049196 0.040928,0.1451081 z"
       style="font-size:0.84666669px;fill:#0000ff;stroke-width:0.02645833"
       id="path84-8-9"
       inkscape:connector-curvature="0" /><path
       d="M 8.28328,7.4719417 H 8.37051 V 7.5769482 H 8.28328 Z m 0,-0.3327963 H 8.37051 V 7.2441519 H 8.28328 Z"
       style="font-size:0.84666669px;fill:#0000ff;stroke-width:0.02645833"
       id="path86-0-5"
       inkscape:connector-curvature="0" /><path
       d="M 8.8446928,7.5066682 H 8.9811186 V 7.0357925 l -0.1484148,0.029766 v -0.076068 l 0.1475879,-0.029766 h 0.083509 v 0.5469434 h 0.1364258 v 0.07028 H 8.8446928 Z"
       style="font-size:0.84666669px;fill:#0000ff;stroke-width:0.02645833"
       id="path88-4-3"
       inkscape:connector-curvature="0" /><path
       d="m 9.4937489,6.9597248 h 0.07028 l -0.214974,0.6957715 h -0.07028 z"
       style="font-size:0.84666669px;fill:#0000ff;stroke-width:0.02645833"
       id="path90-0-3"
       inkscape:connector-curvature="0" /><path
       d="M 9.6698619,7.5066682 H 9.8062876 V 7.0357925 l -0.1484147,0.029766 v -0.076068 l 0.1475879,-0.029766 h 0.083509 v 0.5469434 h 0.1364262 v 0.07028 H 9.6698619 Z"
       style="font-size:0.84666669px;fill:#0000ff;stroke-width:0.02645833"
       id="path92-5-3"
       inkscape:connector-curvature="0" /><path
       d="m 10.38341,7.2350569 q -0.05622,0 -0.0893,0.038447 -0.03266,0.038447 -0.03266,0.10542 0,0.066559 0.03266,0.1054199 0.03307,0.038447 0.0893,0.038447 0.05622,0 0.08888,-0.038447 0.03307,-0.038861 0.03307,-0.1054199 0,-0.066973 -0.03307,-0.10542 -0.03266,-0.038447 -0.08888,-0.038447 z m 0.165778,-0.2616895 v 0.076068 q -0.03142,-0.014883 -0.06366,-0.022738 -0.03183,-0.00785 -0.06325,-0.00785 -0.08268,0 -0.126504,0.05581 -0.04341,0.055811 -0.04961,0.1686719 0.02439,-0.035967 0.06119,-0.054984 0.03679,-0.01943 0.08103,-0.01943 0.09302,0 0.146761,0.056637 0.05416,0.056224 0.05416,0.1533757 0,0.095085 -0.05622,0.1525488 -0.05622,0.057464 -0.149655,0.057464 -0.107073,0 -0.163711,-0.081855 -0.05664,-0.082269 -0.05664,-0.238125 0,-0.1463476 0.06945,-0.2331641 0.06945,-0.08723 0.186449,-0.08723 0.03142,0 0.06325,0.0062 0.03225,0.0062 0.06697,0.018604 z"
       style="font-size:0.84666669px;fill:#0000ff;stroke-width:0.02645833"
       id="path94-7-8"
       inkscape:connector-curvature="0" /><path
       d="m 10.794755,6.9597248 v 0.2294434 h -0.07028 V 6.9597248 Z m 0.156269,0 v 0.2294434 h -0.07028 V 6.9597248 Z"
       style="font-size:0.84666669px;fill:#0000ff;stroke-width:0.02645833"
       id="path96-0-5"
       inkscape:connector-curvature="0" /></g><g
     transform="translate(40.670844,0.04098462)"
     aria-label="Hole Depth: 16mm"
     style="font-style:normal;font-weight:normal;font-size:1.05833316px;line-height:1.25;font-family:sans-serif;letter-spacing:0px;word-spacing:0px;fill:#000000;fill-opacity:1;stroke:none;stroke-width:0.02645833"
     id="text62-0-8"><path
       inkscape:connector-curvature="0"
       d="m 2.8814003,0.93260699 h 0.083509 V 1.1856148 h 0.303444 V 0.93260699 h 0.083509 V 1.5498303 H 3.2683534 V 1.2558948 h -0.303444 v 0.2939355 h -0.083509 z"
       style="font-size:0.84666669px;fill:#0000ff;stroke-width:0.02645833"
       id="path99-5-9" /><path
       inkscape:connector-curvature="0"
       d="m 3.6941672,1.1401395 q -0.061185,0 -0.096738,0.047956 -0.035553,0.047542 -0.035553,0.130638 0,0.083096 0.03514,0.1310514 0.035553,0.047542 0.097152,0.047542 0.060771,0 0.096325,-0.047956 0.035553,-0.047956 0.035553,-0.130638 0,-0.082269 -0.035553,-0.1302246 -0.035553,-0.048369 -0.096325,-0.048369 z m 0,-0.064492 q 0.099219,0 0.1558561,0.064492 0.056637,0.064492 0.056637,0.1785938 0,0.1136882 -0.056637,0.1785938 -0.056637,0.064492 -0.1558561,0.064492 -0.099632,0 -0.1562695,-0.064492 -0.056224,-0.064906 -0.056224,-0.1785938 0,-0.1141016 0.056224,-0.1785938 0.056637,-0.064492 0.1562695,-0.064492 z"
       style="font-size:0.84666669px;fill:#0000ff;stroke-width:0.02645833"
       id="path101-6-6" /><path
       inkscape:connector-curvature="0"
       d="m 4.0323379,0.90656207 h 0.076068 V 1.5498303 h -0.076068 z"
       style="font-size:0.84666669px;fill:#0000ff;stroke-width:0.02645833"
       id="path103-7-0" /><path
       inkscape:connector-curvature="0"
       d="M 4.6632037,1.299303 V 1.33651 H 4.3134576 q 0.00496,0.078548 0.047129,0.1198893 0.042581,0.040928 0.1182357,0.040928 0.043822,0 0.084749,-0.010749 0.041341,-0.010749 0.081855,-0.032246 v 0.071934 q -0.040928,0.017363 -0.083922,0.026458 -0.042995,0.0091 -0.08723,0.0091 -0.1107942,0 -0.1756998,-0.064492 -0.064492,-0.064492 -0.064492,-0.1744597 0,-0.1136881 0.061185,-0.1802474 0.061598,-0.066973 0.165778,-0.066973 0.093431,0 0.1475879,0.060358 0.05457,0.059945 0.05457,0.1632976 z M 4.587136,1.2769787 q -8.268e-4,-0.062425 -0.03514,-0.099632 -0.0339,-0.037207 -0.090124,-0.037207 -0.063665,0 -0.1021126,0.035967 -0.038034,0.035967 -0.043822,0.1012859 z"
       style="font-size:0.84666669px;fill:#0000ff;stroke-width:0.02645833"
       id="path105-8-4" /><path
       inkscape:connector-curvature="0"
       d="M 5.1444147,1.0012333 V 1.481204 h 0.1008724 q 0.1277442,0 0.186862,-0.057878 0.059531,-0.057878 0.059531,-0.1827279 0,-0.1240234 -0.059531,-0.1814876 -0.059118,-0.057878 -0.186862,-0.057878 z M 5.0609057,0.932607 h 0.1715658 q 0.1794206,0 0.2633431,0.0748275 0.083922,0.074414 0.083922,0.233164 0,0.1595769 -0.084336,0.2344043 -0.084336,0.074828 -0.2629297,0.074828 H 5.0609056 Z"
       style="font-size:0.84666669px;fill:#0000ff;stroke-width:0.02645833"
       id="path107-0-2" /><path
       inkscape:connector-curvature="0"
       d="M 6.105183,1.299303 V 1.33651 H 5.7554369 q 0.00496,0.078548 0.047129,0.1198893 0.042581,0.040928 0.1182357,0.040928 0.043822,0 0.084749,-0.010749 0.041341,-0.010749 0.081855,-0.032246 v 0.071934 q -0.040928,0.017363 -0.083922,0.026458 -0.042995,0.0091 -0.08723,0.0091 -0.1107942,0 -0.1756998,-0.064492 -0.064492,-0.064492 -0.064492,-0.1744597 0,-0.1136881 0.061185,-0.1802474 0.061598,-0.066973 0.165778,-0.066973 0.093431,0 0.1475879,0.060358 0.05457,0.059945 0.05457,0.1632976 z M 6.029115,1.276979 Q 6.0282881,1.214554 5.993975,1.177347 5.960075,1.14014 5.903851,1.14014 q -0.063665,0 -0.1021126,0.035967 -0.038034,0.035967 -0.043822,0.1012859 z"
       style="font-size:0.84666669px;fill:#0000ff;stroke-width:0.02645833"
       id="path109-6-3" /><path
       inkscape:connector-curvature="0"
       d="M 6.3036204,1.4803772 V 1.7259436 H 6.2271392 V 1.0868095 h 0.076481 v 0.07028 q 0.023978,-0.041341 0.060358,-0.061185 0.036794,-0.020257 0.087643,-0.020257 0.084336,0 0.1368392,0.066973 0.052917,0.066973 0.052917,0.1761133 0,0.1091406 -0.052917,0.1761133 -0.052503,0.066973 -0.1368392,0.066973 -0.05085,0 -0.087643,-0.019844 -0.03638,-0.020257 -0.060358,-0.061599 z M 6.5624159,1.3187333 q 0,-0.083923 -0.034727,-0.1314648 -0.034313,-0.047956 -0.094671,-0.047956 -0.060358,0 -0.095085,0.047956 -0.034313,0.047542 -0.034313,0.1314648 0,0.083922 0.034313,0.1318783 0.034727,0.047542 0.095085,0.047542 0.060358,0 0.094671,-0.047542 0.034727,-0.047956 0.034727,-0.1318783 z"
       style="font-size:0.84666669px;fill:#0000ff;stroke-width:0.02645833"
       id="path111-5-3" /><path
       inkscape:connector-curvature="0"
       d="M 6.8427091,0.95534462 V 1.0868095 H 6.999392 v 0.059118 H 6.8427091 v 0.2513542 q 0,0.056637 0.015296,0.07276 0.01571,0.016123 0.063252,0.016123 h 0.078135 v 0.063665 h -0.078135 q -0.088057,0 -0.1215429,-0.03266 -0.033486,-0.033073 -0.033486,-0.1198893 V 1.1459273 h -0.05581 v -0.059118 h 0.05581 V 0.95534462 Z"
       style="font-size:0.84666669px;fill:#0000ff;stroke-width:0.02645833"
       id="path113-7-7" /><path
       inkscape:connector-curvature="0"
       d="M 7.4847369,1.2703642 V 1.5498303 H 7.4086692 V 1.2728446 q 0,-0.065732 -0.025632,-0.098392 -0.025632,-0.03266 -0.076894,-0.03266 -0.061598,0 -0.097152,0.039274 -0.035553,0.039274 -0.035553,0.1070736 V 1.5498303 H 7.096957 V 0.90656207 H 7.173438 V 1.1587431 q 0.027285,-0.041755 0.064079,-0.062425 0.037207,-0.020671 0.085576,-0.020671 0.079788,0 0.1207161,0.049609 0.040928,0.049196 0.040928,0.1451081 z"
       style="font-size:0.84666669px;fill:#0000ff;stroke-width:0.02645833"
       id="path115-3-0" /><path
       inkscape:connector-curvature="0"
       d="m 7.6567163,1.4448238 h 0.08723 v 0.1050065 h -0.08723 z m 0,-0.3327962 h 0.08723 v 0.1050065 h -0.08723 z"
       style="font-size:0.84666669px;fill:#0000ff;stroke-width:0.02645833"
       id="path117-4-0" /><path
       inkscape:connector-curvature="0"
       d="M 8.218129,1.4795504 H 8.3545548 V 1.0086747 L 8.20614,1.0384403 V 0.9623726 L 8.3537279,0.932607 h 0.083509 v 0.5469434 h 0.1364257 v 0.07028 H 8.218129 Z"
       style="font-size:0.84666669px;fill:#0000ff;stroke-width:0.02645833"
       id="path119-3-1" /><path
       inkscape:connector-curvature="0"
       d="m 8.9316773,1.207939 q -0.056224,0 -0.089297,0.038447 -0.03266,0.038447 -0.03266,0.1054199 0,0.066559 0.03266,0.1054199 0.033073,0.038447 0.089297,0.038447 0.056224,0 0.088883,-0.038447 0.033073,-0.038861 0.033073,-0.1054199 0,-0.066973 -0.033073,-0.1054199 -0.032659,-0.038447 -0.088883,-0.038447 z m 0.165778,-0.26168943 v 0.0760677 q -0.031419,-0.014883 -0.063665,-0.0227377 -0.031833,-0.007855 -0.063252,-0.007855 -0.082682,0 -0.1265039,0.0558106 -0.043408,0.055811 -0.049609,0.1686719 0.024391,-0.035967 0.061185,-0.054984 0.036794,-0.01943 0.081029,-0.01943 0.093018,0 0.1467611,0.056637 0.054157,0.056224 0.054157,0.1533756 0,0.095085 -0.056224,0.1525489 -0.056224,0.057464 -0.149655,0.057464 -0.1070735,0 -0.1637109,-0.081856 -0.056637,-0.082269 -0.056637,-0.238125 0,-0.1463477 0.069453,-0.2331641 0.069453,-0.0872298 0.1864485,-0.0872298 0.031419,0 0.063252,0.006201 0.032246,0.006201 0.066973,0.0186035 z"
       style="font-size:0.84666669px;fill:#0000ff;stroke-width:0.02645833"
       id="path121-0-0" /><path
       inkscape:connector-curvature="0"
       d="m 9.6315827,1.1756929 q 0.028525,-0.051263 0.068213,-0.075654 0.039687,-0.024391 0.093431,-0.024391 0.072347,0 0.1116211,0.05085 0.039274,0.050436 0.039274,0.1438672 V 1.5498303 H 9.8676406 V 1.2728446 q 0,-0.066559 -0.023564,-0.098805 -0.023564,-0.032246 -0.071934,-0.032246 -0.059118,0 -0.093431,0.039274 -0.034313,0.039274 -0.034313,0.1070736 V 1.5498303 H 9.5679173 V 1.2728446 q 0,-0.066973 -0.023564,-0.098805 -0.023564,-0.032246 -0.07276,-0.032246 -0.058291,0 -0.092604,0.039688 -0.034313,0.039274 -0.034313,0.1066602 V 1.5498303 H 9.268194 V 1.0868095 h 0.076481 v 0.071934 Q 9.37072,1.1161625 9.4071,1.0959045 q 0.03638,-0.020257 0.086403,-0.020257 0.050436,0 0.085576,0.025632 0.035553,0.025632 0.052504,0.074413 z"
       style="font-size:0.84666669px;fill:#0000ff;stroke-width:0.02645833"
       id="path123-4-3" /><path
       inkscape:connector-curvature="0"
       d="m 10.456752,1.1756929 q 0.02853,-0.051263 0.06821,-0.075654 0.03969,-0.024391 0.09343,-0.024391 0.07235,0 0.111621,0.05085 0.03927,0.050436 0.03927,0.1438672 V 1.5498303 H 10.69281 V 1.2728446 q 0,-0.066559 -0.02356,-0.098805 -0.02356,-0.032246 -0.07193,-0.032246 -0.05912,0 -0.09343,0.039274 -0.03431,0.039274 -0.03431,0.1070736 V 1.5498306 H 10.3931 v -0.276986 q 0,-0.066973 -0.02356,-0.098805 -0.02356,-0.032246 -0.07276,-0.032246 -0.05829,0 -0.0926,0.039688 -0.03431,0.039274 -0.03431,0.1066602 V 1.5498312 H 10.09339 V 1.0868095 h 0.07648 v 0.071934 q 0.02604,-0.042581 0.06242,-0.062839 0.03638,-0.020257 0.0864,-0.020257 0.05044,0 0.08558,0.025632 0.03555,0.025632 0.0525,0.074414 z"
       style="font-size:0.84666669px;fill:#0000ff;stroke-width:0.02645833"
       id="path125-8-0" /></g><g
     aria-label="Pocket depth: 1/16&quot;"
     style="font-style:normal;font-weight:normal;font-size:1.05833316px;line-height:1.25;font-family:sans-serif;letter-spacing:0px;word-spacing:0px;fill:#000000;fill-opacity:1;stroke:none;stroke-width:0.02645833"
     id="text58-1-0"
     transform="translate(40.700196,31.986943)"><path
       d="M 2.8357568,7.0283511 V 7.260275 h 0.1050066 q 0.058291,0 0.090124,-0.030179 0.031833,-0.030179 0.031833,-0.08599 0,-0.055397 -0.031833,-0.085576 -0.031833,-0.030179 -0.090124,-0.030179 z m -0.083509,-0.068626 h 0.1885157 q 0.1037662,0 0.1566829,0.047129 0.05333,0.046716 0.05333,0.1372527 0,0.091364 -0.05333,0.1380794 -0.052917,0.046716 -0.1566829,0.046716 H 2.8357568 v 0.2480469 h -0.083509 z"
       style="font-size:0.84666669px;fill:#0000ff;stroke-width:0.02645833"
       id="path64-0-3"
       inkscape:connector-curvature="0" /><path
       d="m 3.409572,7.1672574 q -0.061185,0 -0.096738,0.047956 -0.035553,0.047542 -0.035553,0.1306381 0,0.083096 0.03514,0.1310514 0.035553,0.047542 0.097152,0.047542 0.060771,0 0.096325,-0.047956 0.035553,-0.047956 0.035553,-0.130638 0,-0.082269 -0.035553,-0.1302247 -0.035553,-0.048369 -0.096325,-0.048369 z m 0,-0.064492 q 0.099219,0 0.1558561,0.064492 0.056637,0.064492 0.056637,0.1785938 0,0.1136881 -0.056637,0.1785937 -0.056637,0.064492 -0.1558561,0.064492 -0.099632,0 -0.1562695,-0.064492 -0.056224,-0.064906 -0.056224,-0.1785937 0,-0.1141016 0.056224,-0.1785938 0.056637,-0.064492 0.1562695,-0.064492 z"
       style="font-size:0.84666669px;fill:#0000ff;stroke-width:0.02645833"
       id="path66-2-8"
       inkscape:connector-curvature="0" /><path
       d="m 4.0809523,7.131704 v 0.071107 q -0.032246,-0.017777 -0.064906,-0.026458 -0.032246,-0.0091 -0.065319,-0.0091 -0.074001,0 -0.1149284,0.047129 -0.040928,0.046715 -0.040928,0.1314649 0,0.084749 0.040928,0.1318782 0.040928,0.046715 0.1149284,0.046715 0.033073,0 0.065319,-0.00868 0.032659,-0.0091 0.064906,-0.026872 v 0.07028 q -0.031833,0.014883 -0.066146,0.022324 -0.0339,0.00744 -0.072347,0.00744 -0.1045931,0 -0.1661914,-0.065732 -0.061598,-0.065732 -0.061598,-0.1773535 0,-0.1132748 0.062012,-0.1781804 0.062425,-0.064906 0.170739,-0.064906 0.03514,0 0.068626,0.00744 0.033486,0.00703 0.064906,0.021497 z"
       style="font-size:0.84666669px;fill:#0000ff;stroke-width:0.02645833"
       id="path68-3-3"
       inkscape:connector-curvature="0" /><path
       d="M 4.2111769,6.9336799 H 4.287658 V 7.3136051 L 4.5146209,7.1139273 h 0.097152 L 4.3662062,7.3305549 4.6221079,7.5769482 H 4.5228891 L 4.287658,7.3508121 V 7.5769482 H 4.211177 Z"
       style="font-size:0.84666669px;fill:#0000ff;stroke-width:0.02645833"
       id="path70-7-6"
       inkscape:connector-curvature="0" /><path
       d="m 5.0714861,7.3264208 v 0.037207 H 4.72174 q 0.00496,0.078548 0.047129,0.1198894 0.042581,0.040928 0.1182357,0.040928 0.043822,0 0.084749,-0.010749 0.041341,-0.010749 0.081855,-0.032246 v 0.071934 q -0.040928,0.017363 -0.083922,0.026458 -0.042995,0.0091 -0.08723,0.0091 -0.1107942,0 -0.1756998,-0.064492 -0.064492,-0.064492 -0.064492,-0.1744596 0,-0.1136882 0.061185,-0.1802474 0.061598,-0.066973 0.165778,-0.066973 0.093431,0 0.1475879,0.060358 0.05457,0.059945 0.05457,0.1632975 z m -0.076068,-0.022324 q -8.268e-4,-0.062425 -0.03514,-0.099632 -0.0339,-0.037207 -0.090124,-0.037207 -0.063665,0 -0.1021126,0.035967 -0.038034,0.035967 -0.043822,0.1012858 z"
       style="font-size:0.84666669px;fill:#0000ff;stroke-width:0.02645833"
       id="path72-1-0"
       inkscape:connector-curvature="0" /><path
       d="m 5.2715774,6.9824625 v 0.1314648 h 0.1566829 v 0.059118 H 5.2715774 v 0.2513541 q 0,0.056637 0.015296,0.072761 0.01571,0.016123 0.063252,0.016123 h 0.078135 v 0.063665 h -0.078135 q -0.088057,0 -0.1215429,-0.03266 Q 5.1950965,7.5112154 5.1950965,7.424399 V 7.1730452 h -0.05581 v -0.059118 h 0.05581 V 6.9824625 Z"
       style="font-size:0.84666669px;fill:#0000ff;stroke-width:0.02645833"
       id="path74-8-4"
       inkscape:connector-curvature="0" /><path
       d="M 6.1029478,7.1842073 V 6.9336799 h 0.076068 V 7.5769482 H 6.1029478 V 7.507495 q -0.023978,0.041341 -0.060771,0.061598 -0.03638,0.019844 -0.087643,0.019844 -0.083923,0 -0.1368392,-0.066973 -0.052503,-0.066973 -0.052503,-0.1761132 0,-0.1091407 0.052503,-0.1761133 0.052917,-0.066973 0.1368392,-0.066973 0.051263,0 0.087643,0.020257 0.036794,0.019844 0.060771,0.061186 z m -0.259209,0.1616439 q 0,0.083922 0.034313,0.1318782 0.034727,0.047542 0.095085,0.047542 0.060358,0 0.095085,-0.047542 0.034727,-0.047956 0.034727,-0.1318782 0,-0.083923 -0.034727,-0.1314649 -0.034727,-0.047956 -0.095085,-0.047956 -0.060358,0 -0.095085,0.047956 -0.034313,0.047542 -0.034313,0.1314649 z"
       style="font-size:0.84666669px;fill:#0000ff;stroke-width:0.02645833"
       id="path76-9-0"
       inkscape:connector-curvature="0" /><path
       d="m 6.7317468,7.3264208 v 0.037207 H 6.3820007 q 0.00496,0.078548 0.047129,0.1198894 0.042581,0.040928 0.1182356,0.040928 0.043822,0 0.084749,-0.010749 0.041341,-0.010749 0.081855,-0.032246 v 0.071934 q -0.040928,0.017363 -0.083923,0.026458 -0.042995,0.0091 -0.08723,0.0091 -0.1107943,0 -0.1756999,-0.064492 -0.064492,-0.064492 -0.064492,-0.1744596 0,-0.1136882 0.061185,-0.1802474 0.061598,-0.066973 0.165778,-0.066973 0.093431,0 0.1475878,0.060358 0.05457,0.059945 0.05457,0.1632975 z m -0.076068,-0.022324 q -8.269e-4,-0.062425 -0.03514,-0.099632 -0.0339,-0.037207 -0.090124,-0.037207 -0.063665,0 -0.1021127,0.035967 -0.038034,0.035967 -0.043822,0.1012858 z"
       style="font-size:0.84666669px;fill:#0000ff;stroke-width:0.02645833"
       id="path78-3-92"
       inkscape:connector-curvature="0" /><path
       d="M 6.9301842,7.507495 V 7.7530615 H 6.853703 V 7.1139273 h 0.076481 v 0.07028 q 0.023978,-0.041341 0.060358,-0.061185 0.036794,-0.020257 0.087643,-0.020257 0.084336,0 0.1368392,0.066973 0.052917,0.066973 0.052917,0.1761133 0,0.1091406 -0.052917,0.1761132 -0.052503,0.066973 -0.1368392,0.066973 -0.05085,0 -0.087643,-0.019844 -0.03638,-0.020257 -0.060358,-0.061599 z M 7.1889797,7.3458512 q 0,-0.083923 -0.034726,-0.1314649 -0.034313,-0.047956 -0.094671,-0.047956 -0.060358,0 -0.095085,0.047956 -0.034313,0.047542 -0.034313,0.1314649 0,0.083922 0.034313,0.1318782 0.034727,0.047542 0.095085,0.047542 0.060358,0 0.094671,-0.047542 0.034726,-0.047956 0.034726,-0.1318782 z"
       style="font-size:0.84666669px;fill:#0000ff;stroke-width:0.02645833"
       id="path80-7-4"
       inkscape:connector-curvature="0" /><path
       d="m 7.4692729,6.9824625 v 0.1314648 h 0.1566829 v 0.059118 H 7.4692729 v 0.2513541 q 0,0.056637 0.015296,0.072761 0.01571,0.016123 0.063252,0.016123 h 0.078135 v 0.063665 H 7.547821 q -0.088057,0 -0.1215429,-0.03266 Q 7.3927921,7.5112154 7.3927921,7.424399 V 7.1730452 h -0.05581 v -0.059118 h 0.05581 V 6.9824625 Z"
       style="font-size:0.84666669px;fill:#0000ff;stroke-width:0.02645833"
       id="path82-4-9"
       inkscape:connector-curvature="0" /><path
       d="M 8.1113007,7.297482 V 7.5769482 H 8.035233 V 7.2999625 q 0,-0.065732 -0.025631,-0.098392 -0.025632,-0.03266 -0.076895,-0.03266 -0.061598,0 -0.097152,0.039274 -0.035553,0.039274 -0.035553,0.1070736 V 7.5769482 H 7.7235208 V 6.9336799 h 0.076481 v 0.252181 q 0.027285,-0.041754 0.064079,-0.062425 0.037207,-0.020671 0.085576,-0.020671 0.079789,0 0.1207162,0.049609 0.040928,0.049196 0.040928,0.1451081 z"
       style="font-size:0.84666669px;fill:#0000ff;stroke-width:0.02645833"
       id="path84-8-2"
       inkscape:connector-curvature="0" /><path
       d="M 8.28328,7.4719417 H 8.37051 V 7.5769482 H 8.28328 Z m 0,-0.3327963 H 8.37051 V 7.2441519 H 8.28328 Z"
       style="font-size:0.84666669px;fill:#0000ff;stroke-width:0.02645833"
       id="path86-0-9"
       inkscape:connector-curvature="0" /><path
       d="M 8.8446928,7.5066682 H 8.9811186 V 7.0357925 l -0.1484148,0.029766 v -0.076068 l 0.1475879,-0.029766 h 0.083509 v 0.5469434 h 0.1364258 v 0.07028 H 8.8446928 Z"
       style="font-size:0.84666669px;fill:#0000ff;stroke-width:0.02645833"
       id="path88-4-1"
       inkscape:connector-curvature="0" /><path
       d="m 9.4937489,6.9597248 h 0.07028 l -0.214974,0.6957715 h -0.07028 z"
       style="font-size:0.84666669px;fill:#0000ff;stroke-width:0.02645833"
       id="path90-0-0"
       inkscape:connector-curvature="0" /><path
       d="M 9.6698619,7.5066682 H 9.8062876 V 7.0357925 l -0.1484147,0.029766 v -0.076068 l 0.1475879,-0.029766 h 0.083509 v 0.5469434 h 0.1364262 v 0.07028 H 9.6698619 Z"
       style="font-size:0.84666669px;fill:#0000ff;stroke-width:0.02645833"
       id="path92-5-9"
       inkscape:connector-curvature="0" /><path
       d="m 10.38341,7.2350569 q -0.05622,0 -0.0893,0.038447 -0.03266,0.038447 -0.03266,0.10542 0,0.066559 0.03266,0.1054199 0.03307,0.038447 0.0893,0.038447 0.05622,0 0.08888,-0.038447 0.03307,-0.038861 0.03307,-0.1054199 0,-0.066973 -0.03307,-0.10542 -0.03266,-0.038447 -0.08888,-0.038447 z m 0.165778,-0.2616895 v 0.076068 q -0.03142,-0.014883 -0.06366,-0.022738 -0.03183,-0.00785 -0.06325,-0.00785 -0.08268,0 -0.126504,0.05581 -0.04341,0.055811 -0.04961,0.1686719 0.02439,-0.035967 0.06119,-0.054984 0.03679,-0.01943 0.08103,-0.01943 0.09302,0 0.146761,0.056637 0.05416,0.056224 0.05416,0.1533757 0,0.095085 -0.05622,0.1525488 -0.05622,0.057464 -0.149655,0.057464 -0.107073,0 -0.163711,-0.081855 -0.05664,-0.082269 -0.05664,-0.238125 0,-0.1463476 0.06945,-0.2331641 0.06945,-0.08723 0.186449,-0.08723 0.03142,0 0.06325,0.0062 0.03225,0.0062 0.06697,0.018604 z"
       style="font-size:0.84666669px;fill:#0000ff;stroke-width:0.02645833"
       id="path94-7-3"
       inkscape:connector-curvature="0" /><path
       d="m 10.794755,6.9597248 v 0.2294434 h -0.07028 V 6.9597248 Z m 0.156269,0 v 0.2294434 h -0.07028 V 6.9597248 Z"
       style="font-size:0.84666669px;fill:#0000ff;stroke-width:0.02645833"
       id="path96-0-0"
       inkscape:connector-curvature="0" /></g><g
     transform="translate(40.700196,31.986943)"
     aria-label="Hole Depth: 16mm"
     style="font-style:normal;font-weight:normal;font-size:1.05833316px;line-height:1.25;font-family:sans-serif;letter-spacing:0px;word-spacing:0px;fill:#000000;fill-opacity:1;stroke:none;stroke-width:0.02645833"
     id="text62-0-0"><path
       inkscape:connector-curvature="0"
       d="m 2.8814003,0.93260699 h 0.083509 V 1.1856148 h 0.303444 V 0.93260699 h 0.083509 V 1.5498303 H 3.2683534 V 1.2558948 h -0.303444 v 0.2939355 h -0.083509 z"
       style="font-size:0.84666669px;fill:#0000ff;stroke-width:0.02645833"
       id="path99-5-3" /><path
       inkscape:connector-curvature="0"
       d="m 3.6941672,1.1401395 q -0.061185,0 -0.096738,0.047956 -0.035553,0.047542 -0.035553,0.130638 0,0.083096 0.03514,0.1310514 0.035553,0.047542 0.097152,0.047542 0.060771,0 0.096325,-0.047956 0.035553,-0.047956 0.035553,-0.130638 0,-0.082269 -0.035553,-0.1302246 -0.035553,-0.048369 -0.096325,-0.048369 z m 0,-0.064492 q 0.099219,0 0.1558561,0.064492 0.056637,0.064492 0.056637,0.1785938 0,0.1136882 -0.056637,0.1785938 -0.056637,0.064492 -0.1558561,0.064492 -0.099632,0 -0.1562695,-0.064492 -0.056224,-0.064906 -0.056224,-0.1785938 0,-0.1141016 0.056224,-0.1785938 0.056637,-0.064492 0.1562695,-0.064492 z"
       style="font-size:0.84666669px;fill:#0000ff;stroke-width:0.02645833"
       id="path101-6-0" /><path
       inkscape:connector-curvature="0"
       d="m 4.0323379,0.90656207 h 0.076068 V 1.5498303 h -0.076068 z"
       style="font-size:0.84666669px;fill:#0000ff;stroke-width:0.02645833"
       id="path103-7-1" /><path
       inkscape:connector-curvature="0"
       d="M 4.6632037,1.299303 V 1.33651 H 4.3134576 q 0.00496,0.078548 0.047129,0.1198893 0.042581,0.040928 0.1182357,0.040928 0.043822,0 0.084749,-0.010749 0.041341,-0.010749 0.081855,-0.032246 v 0.071934 q -0.040928,0.017363 -0.083922,0.026458 -0.042995,0.0091 -0.08723,0.0091 -0.1107942,0 -0.1756998,-0.064492 -0.064492,-0.064492 -0.064492,-0.1744597 0,-0.1136881 0.061185,-0.1802474 0.061598,-0.066973 0.165778,-0.066973 0.093431,0 0.1475879,0.060358 0.05457,0.059945 0.05457,0.1632976 z M 4.587136,1.2769787 q -8.268e-4,-0.062425 -0.03514,-0.099632 -0.0339,-0.037207 -0.090124,-0.037207 -0.063665,0 -0.1021126,0.035967 -0.038034,0.035967 -0.043822,0.1012859 z"
       style="font-size:0.84666669px;fill:#0000ff;stroke-width:0.02645833"
       id="path105-8-9" /><path
       inkscape:connector-curvature="0"
       d="M 5.1444147,1.0012333 V 1.481204 h 0.1008724 q 0.1277442,0 0.186862,-0.057878 0.059531,-0.057878 0.059531,-0.1827279 0,-0.1240234 -0.059531,-0.1814876 -0.059118,-0.057878 -0.186862,-0.057878 z M 5.0609057,0.932607 h 0.1715658 q 0.1794206,0 0.2633431,0.0748275 0.083922,0.074414 0.083922,0.233164 0,0.1595769 -0.084336,0.2344043 -0.084336,0.074828 -0.2629297,0.074828 H 5.0609056 Z"
       style="font-size:0.84666669px;fill:#0000ff;stroke-width:0.02645833"
       id="path107-0-8" /><path
       inkscape:connector-curvature="0"
       d="M 6.105183,1.299303 V 1.33651 H 5.7554369 q 0.00496,0.078548 0.047129,0.1198893 0.042581,0.040928 0.1182357,0.040928 0.043822,0 0.084749,-0.010749 0.041341,-0.010749 0.081855,-0.032246 v 0.071934 q -0.040928,0.017363 -0.083922,0.026458 -0.042995,0.0091 -0.08723,0.0091 -0.1107942,0 -0.1756998,-0.064492 -0.064492,-0.064492 -0.064492,-0.1744597 0,-0.1136881 0.061185,-0.1802474 0.061598,-0.066973 0.165778,-0.066973 0.093431,0 0.1475879,0.060358 0.05457,0.059945 0.05457,0.1632976 z M 6.029115,1.276979 Q 6.0282881,1.214554 5.993975,1.177347 5.960075,1.14014 5.903851,1.14014 q -0.063665,0 -0.1021126,0.035967 -0.038034,0.035967 -0.043822,0.1012859 z"
       style="font-size:0.84666669px;fill:#0000ff;stroke-width:0.02645833"
       id="path109-6-6" /><path
       inkscape:connector-curvature="0"
       d="M 6.3036204,1.4803772 V 1.7259436 H 6.2271392 V 1.0868095 h 0.076481 v 0.07028 q 0.023978,-0.041341 0.060358,-0.061185 0.036794,-0.020257 0.087643,-0.020257 0.084336,0 0.1368392,0.066973 0.052917,0.066973 0.052917,0.1761133 0,0.1091406 -0.052917,0.1761133 -0.052503,0.066973 -0.1368392,0.066973 -0.05085,0 -0.087643,-0.019844 -0.03638,-0.020257 -0.060358,-0.061599 z M 6.5624159,1.3187333 q 0,-0.083923 -0.034727,-0.1314648 -0.034313,-0.047956 -0.094671,-0.047956 -0.060358,0 -0.095085,0.047956 -0.034313,0.047542 -0.034313,0.1314648 0,0.083922 0.034313,0.1318783 0.034727,0.047542 0.095085,0.047542 0.060358,0 0.094671,-0.047542 0.034727,-0.047956 0.034727,-0.1318783 z"
       style="font-size:0.84666669px;fill:#0000ff;stroke-width:0.02645833"
       id="path111-5-9" /><path
       inkscape:connector-curvature="0"
       d="M 6.8427091,0.95534462 V 1.0868095 H 6.999392 v 0.059118 H 6.8427091 v 0.2513542 q 0,0.056637 0.015296,0.07276 0.01571,0.016123 0.063252,0.016123 h 0.078135 v 0.063665 h -0.078135 q -0.088057,0 -0.1215429,-0.03266 -0.033486,-0.033073 -0.033486,-0.1198893 V 1.1459273 h -0.05581 v -0.059118 h 0.05581 V 0.95534462 Z"
       style="font-size:0.84666669px;fill:#0000ff;stroke-width:0.02645833"
       id="path113-7-0" /><path
       inkscape:connector-curvature="0"
       d="M 7.4847369,1.2703642 V 1.5498303 H 7.4086692 V 1.2728446 q 0,-0.065732 -0.025632,-0.098392 -0.025632,-0.03266 -0.076894,-0.03266 -0.061598,0 -0.097152,0.039274 -0.035553,0.039274 -0.035553,0.1070736 V 1.5498303 H 7.096957 V 0.90656207 H 7.173438 V 1.1587431 q 0.027285,-0.041755 0.064079,-0.062425 0.037207,-0.020671 0.085576,-0.020671 0.079788,0 0.1207161,0.049609 0.040928,0.049196 0.040928,0.1451081 z"
       style="font-size:0.84666669px;fill:#0000ff;stroke-width:0.02645833"
       id="path115-3-1" /><path
       inkscape:connector-curvature="0"
       d="m 7.6567163,1.4448238 h 0.08723 v 0.1050065 h -0.08723 z m 0,-0.3327962 h 0.08723 v 0.1050065 h -0.08723 z"
       style="font-size:0.84666669px;fill:#0000ff;stroke-width:0.02645833"
       id="path117-4-6" /><path
       inkscape:connector-curvature="0"
       d="M 8.218129,1.4795504 H 8.3545548 V 1.0086747 L 8.20614,1.0384403 V 0.9623726 L 8.3537279,0.932607 h 0.083509 v 0.5469434 h 0.1364257 v 0.07028 H 8.218129 Z"
       style="font-size:0.84666669px;fill:#0000ff;stroke-width:0.02645833"
       id="path119-3-4" /><path
       inkscape:connector-curvature="0"
       d="m 8.9316773,1.207939 q -0.056224,0 -0.089297,0.038447 -0.03266,0.038447 -0.03266,0.1054199 0,0.066559 0.03266,0.1054199 0.033073,0.038447 0.089297,0.038447 0.056224,0 0.088883,-0.038447 0.033073,-0.038861 0.033073,-0.1054199 0,-0.066973 -0.033073,-0.1054199 -0.032659,-0.038447 -0.088883,-0.038447 z m 0.165778,-0.26168943 v 0.0760677 q -0.031419,-0.014883 -0.063665,-0.0227377 -0.031833,-0.007855 -0.063252,-0.007855 -0.082682,0 -0.1265039,0.0558106 -0.043408,0.055811 -0.049609,0.1686719 0.024391,-0.035967 0.061185,-0.054984 0.036794,-0.01943 0.081029,-0.01943 0.093018,0 0.1467611,0.056637 0.054157,0.056224 0.054157,0.1533756 0,0.095085 -0.056224,0.1525489 -0.056224,0.057464 -0.149655,0.057464 -0.1070735,0 -0.1637109,-0.081856 -0.056637,-0.082269 -0.056637,-0.238125 0,-0.1463477 0.069453,-0.2331641 0.069453,-0.0872298 0.1864485,-0.0872298 0.031419,0 0.063252,0.006201 0.032246,0.006201 0.066973,0.0186035 z"
       style="font-size:0.84666669px;fill:#0000ff;stroke-width:0.02645833"
       id="path121-0-4" /><path
       inkscape:connector-curvature="0"
       d="m 9.6315827,1.1756929 q 0.028525,-0.051263 0.068213,-0.075654 0.039687,-0.024391 0.093431,-0.024391 0.072347,0 0.1116211,0.05085 0.039274,0.050436 0.039274,0.1438672 V 1.5498303 H 9.8676406 V 1.2728446 q 0,-0.066559 -0.023564,-0.098805 -0.023564,-0.032246 -0.071934,-0.032246 -0.059118,0 -0.093431,0.039274 -0.034313,0.039274 -0.034313,0.1070736 V 1.5498303 H 9.5679173 V 1.2728446 q 0,-0.066973 -0.023564,-0.098805 -0.023564,-0.032246 -0.07276,-0.032246 -0.058291,0 -0.092604,0.039688 -0.034313,0.039274 -0.034313,0.1066602 V 1.5498303 H 9.268194 V 1.0868095 h 0.076481 v 0.071934 Q 9.37072,1.1161625 9.4071,1.0959045 q 0.03638,-0.020257 0.086403,-0.020257 0.050436,0 0.085576,0.025632 0.035553,0.025632 0.052504,0.074413 z"
       style="font-size:0.84666669px;fill:#0000ff;stroke-width:0.02645833"
       id="path123-4-8" /><path
       inkscape:connector-curvature="0"
       d="m 10.456752,1.1756929 q 0.02853,-0.051263 0.06821,-0.075654 0.03969,-0.024391 0.09343,-0.024391 0.07235,0 0.111621,0.05085 0.03927,0.050436 0.03927,0.1438672 V 1.5498303 H 10.69281 V 1.2728446 q 0,-0.066559 -0.02356,-0.098805 -0.02356,-0.032246 -0.07193,-0.032246 -0.05912,0 -0.09343,0.039274 -0.03431,0.039274 -0.03431,0.1070736 V 1.5498306 H 10.3931 v -0.276986 q 0,-0.066973 -0.02356,-0.098805 -0.02356,-0.032246 -0.07276,-0.032246 -0.05829,0 -0.0926,0.039688 -0.03431,0.039274 -0.03431,0.1066602 V 1.5498312 H 10.09339 V 1.0868095 h 0.07648 v 0.071934 q 0.02604,-0.042581 0.06242,-0.062839 0.03638,-0.020257 0.0864,-0.020257 0.05044,0 0.08558,0.025632 0.03555,0.025632 0.0525,0.074414 z"
       style="font-size:0.84666669px;fill:#0000ff;stroke-width:0.02645833"
       id="path125-8-6" /></g></svg>