<?xml version="1.0" encoding="utf-8"?>
<!-- Generator: Fusion 360, Shaper Origin Export Add-In, Version 1.1  -->
<svg enable-background="new 0 0 54.39999999999999 40.64" height="40.64cm" shaper:fusionaddin="version:1.1" version="1.1" viewBox="0 0 54.39999999999999 40.64" width="54.39999999999999cm" x="0cm" xml:space="preserve" xmlns="http://www.w3.org/2000/svg" xmlns:shaper="http://www.shapertools.com/namespaces/shaper" xmlns:xlink="http://www.w3.org/1999/xlink" y="0cm"><path d="M52.6,8.763000000000003 A0.3175000000000008,0.3175000000000008 0 1,1 52.6,8.128000000000002 L54.4,8.128 54.4,0.0 7.105427357601002e-15,0.0 1.4210854715202004e-14,8.128 1.8000000000000114,8.128 A0.31750000000000256,0.31750000000000256 0 1,1 1.8000000000000114,8.763000000000005 L1.8000000000000043,15.620999999999999 A0.31750000000000256,0.31750000000000256 0 1,1 1.8000000000000185,16.256000000000004 L1.1324274851176597e-14,16.256 1.4210854715202004e-14,24.384 1.8000000000000114,24.384 A0.31750000000000256,0.31750000000000256 0 0,1 1.8000000000000116,25.019000000000005 L1.8000000000000043,31.876999999999995 A0.31750000000000256,0.31750000000000256 0 0,1 1.8000000000000185,32.512 L1.1324274851176597e-14,32.512 1.4210854715202004e-14,40.64 54.4,40.64 54.4,32.512 52.6,32.512 A0.31750000000000256,0.31750000000000256 0 1,1 52.6,31.876999999999995 L52.6,25.019000000000002 A0.317499999999999,0.317499999999999 0 1,1 52.6,24.384000000000004 L54.4,24.384 54.4,16.256 52.6,16.256 A0.317499999999999,0.317499999999999 0 1,1 52.6,15.621000000000002 L52.6,8.763000000000003z" fill="rgb(0,0,0)" shaper:cutDepth="0.018000000000000002" shaper:pathType="exterior" transform="matrix(1,0,0,-1,-7.105427357601002e-15,40.64)" vector-effect="non-scaling-stroke" /><path d="M3.784374999999976,5.476875 a0.4762500000000004,0.4762500000000004 0 1,0 0.9525000000000008,0 a0.4762500000000004,0.4762500000000004 0 1,0 -0.9525000000000008,0z" fill="rgb(193,193,193)" fill-rule="evenodd" shaper:cutDepth="0.0168275" shaper:pathType="hogging" transform="matrix(1,0,0,-1,-7.105427357601002e-15,40.64)" vector-effect="non-scaling-stroke" /><path d="M3.784374999999976,3.0956249999999983 a0.4762500000000004,0.4762500000000004 0 1,0 0.9525000000000008,0 a0.4762500000000004,0.4762500000000004 0 1,0 -0.9525000000000008,0z" fill="rgb(193,193,193)" fill-rule="evenodd" shaper:cutDepth="0.0168275" shaper:pathType="hogging" transform="matrix(1,0,0,-1,-7.105427357601002e-15,40.64)" vector-effect="non-scaling-stroke" /><path d="M9.181874999999984,5.476875 a0.4762500000000004,0.4762500000000004 0 1,0 0.9525000000000008,0 a0.4762500000000004,0.4762500000000004 0 1,0 -0.9525000000000008,0z" fill="rgb(193,193,193)" fill-rule="evenodd" shaper:cutDepth="0.0168275" shaper:pathType="hogging" transform="matrix(1,0,0,-1,-7.105427357601002e-15,40.64)" vector-effect="non-scaling-stroke" /><path d="M9.181874999999984,3.0956249999999983 a0.4762500000000004,0.4762500000000004 0 1,0 0.9525000000000008,0 a0.4762500000000004,0.4762500000000004 0 1,0 -0.9525000000000008,0z" fill="rgb(193,193,193)" fill-rule="evenodd" shaper:cutDepth="0.0168275" shaper:pathType="hogging" transform="matrix(1,0,0,-1,-7.105427357601002e-15,40.64)" vector-effect="non-scaling-stroke" /><path d="M3.78437499999999,37.544374999999995 a0.4762500000000004,0.4762500000000004 0 1,0 0.9525000000000008,0 a0.4762500000000004,0.4762500000000004 0 1,0 -0.9525000000000008,0z" fill="rgb(193,193,193)" fill-rule="evenodd" shaper:cutDepth="0.0168275" shaper:pathType="hogging" transform="matrix(1,0,0,-1,-7.105427357601002e-15,40.64)" vector-effect="non-scaling-stroke" /><path d="M3.78437499999999,35.163125 a0.4762500000000004,0.4762500000000004 0 1,0 0.9525000000000008,0 a0.4762500000000004,0.4762500000000004 0 1,0 -0.9525000000000008,0z" fill="rgb(193,193,193)" fill-rule="evenodd" shaper:cutDepth="0.0168275" shaper:pathType="hogging" transform="matrix(1,0,0,-1,-7.105427357601002e-15,40.64)" vector-effect="non-scaling-stroke" /><path d="M9.181874999999998,37.544374999999995 a0.4762500000000004,0.4762500000000004 0 1,0 0.9525000000000008,0 a0.4762500000000004,0.4762500000000004 0 1,0 -0.9525000000000008,0z" fill="rgb(193,193,193)" fill-rule="evenodd" shaper:cutDepth="0.0168275" shaper:pathType="hogging" transform="matrix(1,0,0,-1,-7.105427357601002e-15,40.64)" vector-effect="non-scaling-stroke" /><path d="M9.181874999999998,35.163125 a0.4762500000000004,0.4762500000000004 0 1,0 0.9525000000000008,0 a0.4762500000000004,0.4762500000000004 0 1,0 -0.9525000000000008,0z" fill="rgb(193,193,193)" fill-rule="evenodd" shaper:cutDepth="0.0168275" shaper:pathType="hogging" transform="matrix(1,0,0,-1,-7.105427357601002e-15,40.64)" vector-effect="non-scaling-stroke" /><path d="M44.26562499999999,37.544375 a0.4762500000000004,0.4762500000000004 0 1,0 0.9525000000000008,0 a0.4762500000000004,0.4762500000000004 0 1,0 -0.9525000000000008,0z" fill="rgb(193,193,193)" fill-rule="evenodd" shaper:cutDepth="0.0168275" shaper:pathType="hogging" transform="matrix(1,0,0,-1,-7.105427357601002e-15,40.64)" vector-effect="non-scaling-stroke" /><path d="M44.26562499999999,35.163125 a0.4762500000000004,0.4762500000000004 0 1,0 0.9525000000000008,0 a0.4762500000000004,0.4762500000000004 0 1,0 -0.9525000000000008,0z" fill="rgb(193,193,193)" fill-rule="evenodd" shaper:cutDepth="0.0168275" shaper:pathType="hogging" transform="matrix(1,0,0,-1,-7.105427357601002e-15,40.64)" vector-effect="non-scaling-stroke" /><path d="M49.663124999999994,37.544375 a0.4762500000000004,0.4762500000000004 0 1,0 0.9525000000000008,0 a0.4762500000000004,0.4762500000000004 0 1,0 -0.9525000000000008,0z" fill="rgb(193,193,193)" fill-rule="evenodd" shaper:cutDepth="0.0168275" shaper:pathType="hogging" transform="matrix(1,0,0,-1,-7.105427357601002e-15,40.64)" vector-effect="non-scaling-stroke" /><path d="M49.663124999999994,35.163125 a0.4762500000000004,0.4762500000000004 0 1,0 0.9525000000000008,0 a0.4762500000000004,0.4762500000000004 0 1,0 -0.9525000000000008,0z" fill="rgb(193,193,193)" fill-rule="evenodd" shaper:cutDepth="0.0168275" shaper:pathType="hogging" transform="matrix(1,0,0,-1,-7.105427357601002e-15,40.64)" vector-effect="non-scaling-stroke" /><path d="M44.26562499999999,5.476875 a0.4762500000000004,0.4762500000000004 0 1,0 0.9525000000000008,0 a0.4762500000000004,0.4762500000000004 0 1,0 -0.9525000000000008,0z" fill="rgb(193,193,193)" fill-rule="evenodd" shaper:cutDepth="0.0168275" shaper:pathType="hogging" transform="matrix(1,0,0,-1,-7.105427357601002e-15,40.64)" vector-effect="non-scaling-stroke" /><path d="M44.26562499999999,3.0956249999999983 a0.4762500000000004,0.4762500000000004 0 1,0 0.9525000000000008,0 a0.4762500000000004,0.4762500000000004 0 1,0 -0.9525000000000008,0z" fill="rgb(193,193,193)" fill-rule="evenodd" shaper:cutDepth="0.0168275" shaper:pathType="hogging" transform="matrix(1,0,0,-1,-7.105427357601002e-15,40.64)" vector-effect="non-scaling-stroke" /><path d="M49.663124999999994,5.476875 a0.4762500000000004,0.4762500000000004 0 1,0 0.9525000000000008,0 a0.4762500000000004,0.4762500000000004 0 1,0 -0.9525000000000008,0z" fill="rgb(193,193,193)" fill-rule="evenodd" shaper:cutDepth="0.0168275" shaper:pathType="hogging" transform="matrix(1,0,0,-1,-7.105427357601002e-15,40.64)" vector-effect="non-scaling-stroke" /><path d="M49.663124999999994,3.0956249999999983 a0.4762500000000004,0.4762500000000004 0 1,0 0.9525000000000008,0 a0.4762500000000004,0.4762500000000004 0 1,0 -0.9525000000000008,0z" fill="rgb(193,193,193)" fill-rule="evenodd" shaper:cutDepth="0.0168275" shaper:pathType="hogging" transform="matrix(1,0,0,-1,-7.105427357601002e-15,40.64)" vector-effect="non-scaling-stroke" /><path d="M3.704999999999977,1.9050000000000011 L3.704999999999977,6.667499999999997 10.213749999999978,6.667499999999997 10.213749999999983,1.9050000000000011 3.7049999999999823,1.9050000000000011z M3.784374999999976,5.476875 a0.4762500000000004,0.4762500000000004 0 1,0 0.9525000000000008,0 a0.4762500000000004,0.4762500000000004 0 1,0 -0.9525000000000008,0z M9.181874999999984,5.476875 a0.4762500000000004,0.4762500000000004 0 1,0 0.9525000000000008,0 a0.4762500000000004,0.4762500000000004 0 1,0 -0.9525000000000008,0z M3.784374999999976,3.0956249999999983 a0.4762500000000004,0.4762500000000004 0 1,0 0.9525000000000008,0 a0.4762500000000004,0.4762500000000004 0 1,0 -0.9525000000000008,0z M9.181874999999984,3.0956249999999983 a0.4762500000000004,0.4762500000000004 0 1,0 0.9525000000000008,0 a0.4762500000000004,0.4762500000000004 0 1,0 -0.9525000000000008,0z" fill="rgb(108,108,108)" fill-rule="evenodd" shaper:cutDepth="0.0015874999999999995" shaper:pathType="hogging" transform="matrix(1,0,0,-1,-7.105427357601002e-15,40.64)" vector-effect="non-scaling-stroke" /><path d="M3.704999999999991,33.9725 L3.704999999999991,38.735 10.213749999999992,38.735 10.213749999999997,33.9725 3.7049999999999965,33.9725z M3.78437499999999,37.544374999999995 a0.4762500000000004,0.4762500000000004 0 1,0 0.9525000000000008,0 a0.4762500000000004,0.4762500000000004 0 1,0 -0.9525000000000008,0z M9.181874999999998,37.544374999999995 a0.4762500000000004,0.4762500000000004 0 1,0 0.9525000000000008,0 a0.4762500000000004,0.4762500000000004 0 1,0 -0.9525000000000008,0z M3.78437499999999,35.163125 a0.4762500000000004,0.4762500000000004 0 1,0 0.9525000000000008,0 a0.4762500000000004,0.4762500000000004 0 1,0 -0.9525000000000008,0z M9.181874999999998,35.163125 a0.4762500000000004,0.4762500000000004 0 1,0 0.9525000000000008,0 a0.4762500000000004,0.4762500000000004 0 1,0 -0.9525000000000008,0z" fill="rgb(108,108,108)" fill-rule="evenodd" shaper:cutDepth="0.0015874999999999995" shaper:pathType="hogging" transform="matrix(1,0,0,-1,-7.105427357601002e-15,40.64)" vector-effect="non-scaling-stroke" /><path d="M44.186249999999994,33.972500000000004 L44.186249999999994,38.735 50.69499999999999,38.735 50.69499999999999,33.9725 44.186249999999994,33.972500000000004z M44.26562499999999,37.544375 a0.4762500000000004,0.4762500000000004 0 1,0 0.9525000000000008,0 a0.4762500000000004,0.4762500000000004 0 1,0 -0.9525000000000008,0z M49.663124999999994,37.544375 a0.4762500000000004,0.4762500000000004 0 1,0 0.9525000000000008,0 a0.4762500000000004,0.4762500000000004 0 1,0 -0.9525000000000008,0z M44.26562499999999,35.163125 a0.4762500000000004,0.4762500000000004 0 1,0 0.9525000000000008,0 a0.4762500000000004,0.4762500000000004 0 1,0 -0.9525000000000008,0z M49.663124999999994,35.163125 a0.4762500000000004,0.4762500000000004 0 1,0 0.9525000000000008,0 a0.4762500000000004,0.4762500000000004 0 1,0 -0.9525000000000008,0z" fill="rgb(108,108,108)" fill-rule="evenodd" shaper:cutDepth="0.0015874999999999995" shaper:pathType="hogging" transform="matrix(1,0,0,-1,-7.105427357601002e-15,40.64)" vector-effect="non-scaling-stroke" /><path d="M44.186249999999994,1.9050000000000011 L44.186249999999994,6.667499999999997 50.69499999999999,6.667499999999997 50.69499999999999,1.9050000000000011 44.18624999999999,1.9050000000000011z M44.26562499999999,5.476875 a0.4762500000000004,0.4762500000000004 0 1,0 0.9525000000000008,0 a0.4762500000000004,0.4762500000000004 0 1,0 -0.9525000000000008,0z M49.663124999999994,5.476875 a0.4762500000000004,0.4762500000000004 0 1,0 0.9525000000000008,0 a0.4762500000000004,0.4762500000000004 0 1,0 -0.9525000000000008,0z M44.26562499999999,3.0956249999999983 a0.4762500000000004,0.4762500000000004 0 1,0 0.9525000000000008,0 a0.4762500000000004,0.4762500000000004 0 1,0 -0.9525000000000008,0z M49.663124999999994,3.0956249999999983 a0.4762500000000004,0.4762500000000004 0 1,0 0.9525000000000008,0 a0.4762500000000004,0.4762500000000004 0 1,0 -0.9525000000000008,0z" fill="rgb(108,108,108)" fill-rule="evenodd" shaper:cutDepth="0.0015874999999999995" shaper:pathType="hogging" transform="matrix(1,0,0,-1,-7.105427357601002e-15,40.64)" vector-effect="non-scaling-stroke" /></svg>