<?xml version="1.0" encoding="utf-8"?>
<!-- Generator: Fusion 360, Shaper Origin Export Add-In, Version 1.0  -->
<svg enable-background="new 0 0 54.39999999999999 40.63999999999403" height="40.63999999999403cm" shaper:fusionaddin="version:1.0" version="1.1" viewBox="0 0 54.39999999999999 40.63999999999403" width="54.39999999999999cm" x="0cm" xml:space="preserve" xmlns="http://www.w3.org/2000/svg" xmlns:shaper="http://www.shapertools.com/namespaces/shaper" xmlns:xlink="http://www.w3.org/1999/xlink" y="0cm"><title>Title</title><desc>Description</desc><path d="M52.599999999999994,32.511987018922085 L50.8,32.51198799575564 50.8,33.14698799575555 50.8,40.63999999999402 0.0,40.63999999999403 0.0,33.14698799575555 0.0,32.51198799575564 -1.8,32.51198701892208 -1.8000000000000007,24.383987018920887 0.0,24.383987018920887 A0.31749999999999223,0.31749999999999223 0 0,0 0.3174999999999978,24.066487018453316 A0.3174999999999528,0.3174999999999528 0 0,0 -3.5564231804652103e-17,23.748987018453363 L2.443727154732045e-17,16.890987018454418 A0.31749999999999223,0.31749999999999223 0 0,0 0.3174999999999978,16.573487018454415 A0.31750000000000256,0.31750000000000256 0 0,0 7.43478476333314e-17,16.255987018454416 L-1.8,16.255987018908275 -1.8,8.127987018922346 0.0,8.12798701891849 A0.31750000000004697,0.31750000000004697 0 0,0 1.6282395203988093e-18,7.492987018918398 L0.0,3.3881317890172014e-21 50.8,3.552713678800501e-15 50.8,7.492987018918392 A0.31750000000004963,0.31750000000004963 0 1,0 50.8,8.12798701891849 L52.59999999999999,8.12798701899792 52.599999999999994,16.255987018908282 50.8,16.255987018908282 A0.3174999999999564,0.3174999999999564 0 0,0 50.8,16.890987018454368 L50.8,23.74898701845331 A0.31750000000000256,0.31750000000000256 0 1,0 50.8,24.383987018453315 L52.59999999999999,24.38398701892089 52.599999999999994,32.511987018922085" fill="rgb(0,0,0)" shaper:cutDepth="0.01800000000000008" shaper:pathType="exterior" transform="matrix(1,0,0,-1,1.8000000000000007,40.63999999999403)" vector-effect="non-scaling-stroke" /><path d="M10.160000000001492,19.419987995289706 A0.31750000000000067,0.31750000000000067 0 1,1 10.794999999999991,19.419987018454037 L19.685000000001494,19.419987995290892 A0.3174999999999989,0.3174999999999989 0 1,1 20.31999999999999,19.41998701845404 L20.319999999998487,21.219987995290623 A0.31749999999999534,0.31749999999999534 0 0,1 19.6850000000015,21.219987995759066 L10.794999999999991,21.219987018453768 A0.3175000000000008,0.3175000000000008 0 0,1 10.160000000001492,21.219987995289436 L10.159999999999991,19.41998799575705" fill="rgb(255,255,255)" shaper:cutDepth="0.01800000000000008" shaper:pathType="interior" stroke="rgb(0,0,0)" stroke-width="2" transform="matrix(1,0,0,-1,1.8000000000000007,40.63999999999403)" vector-effect="non-scaling-stroke" /><path d="M31.114999999999988,21.219987018453764 A0.317499999999999,0.317499999999999 0 0,1 30.480000000001493,21.219987995289433 L30.480000000001493,19.419987995290892 A0.3174999999999989,0.3174999999999989 0 1,1 31.114999999999988,19.419987018454037 L40.00500000000148,19.419987995290892 A0.3174999999999989,0.3174999999999989 0 1,1 40.63999999999997,19.419987018454048 L40.63999999999849,21.21998799529062 A0.317500000000006,0.317500000000006 0 0,1 40.00500000000148,21.219987995759055 L31.114999999999988,21.219987995757304" fill="rgb(255,255,255)" shaper:cutDepth="0.01800000000000008" shaper:pathType="interior" stroke="rgb(0,0,0)" stroke-width="2" transform="matrix(1,0,0,-1,1.8000000000000007,40.63999999999403)" vector-effect="non-scaling-stroke" /></svg>