<?xml version="1.0" encoding="utf-8"?>
<!-- Generator: Fusion 360, Shaper Origin Export Add-In, Version 1.0  -->
<svg enable-background="new 0 0 40.64000000000001 25.720000000000002" height="25.720000000000002cm" shaper:fusionaddin="version:1.0" version="1.1" viewBox="0 0 40.64000000000001 25.720000000000002" width="40.64000000000001cm" x="0cm" xml:space="preserve" xmlns="http://www.w3.org/2000/svg" xmlns:shaper="http://www.shapertools.com/namespaces/shaper" xmlns:xlink="http://www.w3.org/1999/xlink" y="0cm"><title>Title</title><desc>Description</desc><path d="M-0.6349999999999973,23.920000000000005 L-0.6349999999999978,20.481743313854523 A0.6349999999999925,0.6349999999999925 0 0,1 -0.5576235829003829,20.177965533572063 L6.98158004033942,6.3387777802824665 A0.6350000000000051,0.6350000000000051 0 0,0 6.423956457439033,5.400000000000003 L3.3306690738754696e-16,5.4 A0.6349999999999998,0.6349999999999998 0 0,1 -0.6349999999999989,4.765000000000001 L-0.6350000000000001,0.6350000000000018 A0.6350000000000003,0.6350000000000003 0 0,1 1.0539699730624587e-16,1.1102230246251565e-15 L39.37000000000001,1.5543122344752192e-15 A0.6349999999999886,0.6349999999999886 0 0,1 40.00500000000001,0.63499999999999 L40.00500000000001,4.764999999999997 A0.6350000000000051,0.6350000000000051 0 0,1 39.370000000000005,5.3999999999999995 L32.946043542560965,5.400000000000006 A0.6349999999999946,0.6349999999999946 0 0,0 32.38841995966058,6.338777780282461 L39.92762358290039,20.17796553357207 A0.6349999999999975,0.6349999999999975 0 0,1 40.005,20.481743313854526 L40.005,23.920000000000005 32.51200000000001,23.92 A0.317499999999999,0.317499999999999 0 1,0 31.877000000000006,23.92 L31.877000000000002,25.720000000000002 23.749000000000002,25.720000000000002 23.749000000000002,23.92 A0.317499999999999,0.317499999999999 0 1,0 23.114000000000004,23.920000000000005 L16.256,23.92 A0.3175000000000008,0.3175000000000008 0 1,0 15.621,23.92 L15.621000000000002,25.720000000000002 7.493000000000003,25.720000000000002 7.493000000000003,23.920000000000005 A0.3174999999999999,0.3174999999999999 0 1,0 6.858000000000003,23.920000000000005 L-0.6349999999999973,23.920000000000005" fill="rgb(0,0,0)" shaper:cutDepth="0.01799999999999997" shaper:pathType="exterior" transform="matrix(1,0,0,-1,0.6350000000000001,25.720000000000002)" vector-effect="non-scaling-stroke" /><path d="M7.493000000000003,1.8000000000000003 A0.3174999999999981,0.3174999999999981 0 1,1 8.128,1.8000000000000003 L14.986,1.7999999999999972 A0.317499999999999,0.317499999999999 0 1,1 15.620999999999999,1.7999999999999972 L15.620999999999999,3.6000000000000014 A0.3174999999999982,0.3174999999999982 0 0,1 14.986000000000004,3.6000000493196125 L8.127999999999998,3.6000005837696243 A0.31749999999999906,0.31749999999999906 0 0,1 7.493000000000002,3.600000633089242 L7.493000000000003,1.8000000000000007" fill="rgb(255,255,255)" shaper:cutDepth="0.01799999999999997" shaper:pathType="interior" stroke="rgb(0,0,0)" stroke-width="2" transform="matrix(1,0,0,-1,0.6350000000000001,25.720000000000002)" vector-effect="non-scaling-stroke" /><path d="M31.877,3.6000000000000028 A0.317499999999999,0.317499999999999 0 1,1 31.242,3.6000000000000028 L24.384,3.6000000000000014 A0.317499999999999,0.317499999999999 0 1,1 23.749000000000002,3.6000000000000014 L23.749000000000002,1.8000000000000007 A0.317499999999999,0.317499999999999 0 1,1 24.384,1.8000000000000027 L31.242,1.8000000000000007 A0.317499999999999,0.317499999999999 0 1,1 31.877,1.7999999999999992 L31.877,3.600000000000005" fill="rgb(255,255,255)" shaper:cutDepth="0.01799999999999997" shaper:pathType="interior" stroke="rgb(0,0,0)" stroke-width="2" transform="matrix(1,0,0,-1,0.6350000000000001,25.720000000000002)" vector-effect="non-scaling-stroke" /><path d="M15.238993686202127,19.381222219717547 L19.127376417099605,12.24359053357207 A0.6350000000000035,0.6350000000000035 0 0,1 20.24262358290037,12.24359053357207 L24.131006313797855,19.381222219717543 A0.6350000000000054,0.6350000000000054 0 0,1 23.57338273089747,20.320000000000007 L15.796617269102509,20.320000000000004 A0.6349999999999945,0.6349999999999945 0 0,1 15.238993686202127,19.38122221971755" fill="rgb(255,255,255)" shaper:cutDepth="0.01799999999999997" shaper:pathType="interior" stroke="rgb(0,0,0)" stroke-width="2" transform="matrix(1,0,0,-1,0.6350000000000001,25.720000000000002)" vector-effect="non-scaling-stroke" /><path d="M20.58500000000003,8.045000000000002 A0.317499999999999,0.317499999999999 0 1,1 20.58500000000003,8.68 L18.785000000000025,8.679999999999996 A0.317499999999999,0.317499999999999 0 1,1 18.785000000000025,8.044999999999998 L18.785000000000025,6.774999999999995 A0.317499999999999,0.317499999999999 0 1,1 18.785000000000025,6.139999999999997 L20.58500000000003,6.140000000000001 A0.317499999999999,0.317499999999999 0 1,1 20.58500000000003,6.774999999999999 L20.58500000000003,8.045000000000002" fill="rgb(255,255,255)" shaper:cutDepth="0.01799999999999997" shaper:pathType="interior" stroke="rgb(0,0,0)" stroke-width="2" transform="matrix(1,0,0,-1,0.6350000000000001,25.720000000000002)" vector-effect="non-scaling-stroke" /></svg>