<?xml version="1.0" encoding="utf-8"?>
<!-- Generator: Fusion 360, Shaper Origin Export Add-In, Version 1.0  -->
<svg enable-background="new 0 0 54.17492234647822 15.344336448080746" height="15.344336448080746cm" shaper:fusionaddin="version:1.0" version="1.1" viewBox="0 0 54.17492234647822 15.344336448080746" width="54.17492234647822cm" x="0cm" xml:space="preserve" xmlns="http://www.w3.org/2000/svg" xmlns:shaper="http://www.shapertools.com/namespaces/shaper" xmlns:xlink="http://www.w3.org/1999/xlink" y="0cm"><title>Title</title><desc>Description</desc><path d="M52.77162166175811,-2.7789111515599165 L52.39483691131529,-5.290809487845389 50.61475147615235,-5.023796672570948 A0.3175000000000001,0.3175000000000001 0 1,1 50.520555288541644,-5.651771256642317 L50.237966725709526,-7.535695008856427 37.30972144159645,-3.56794709557365 A48.26000000000033,48.26000000000033 0 0,1 30.30921849707614,-1.9779667257095213 L20.68231772951912,-0.5339316105759693 A48.2599999999964,48.2599999999964 0 0,1 13.523407471105527,-2.1316282072803006e-14 L1.4210854715202004e-14,2.886579864025407e-15 0.2825885628321313,1.8839237522141083 A0.31750000000000284,0.31750000000000284 0 0,1 0.3767847504428305,2.511898336285484 L-1.4033006847201053,2.77891115155992 -1.026515934277282,5.290809487845389 0.7535695008856533,5.0237966725709455 A0.3175000000000028,0.3175000000000028 0 0,1 0.847765693175135,5.651771255940504 L1.1303542513284857,7.535695008856427 10.549973012399027,6.122752194695844 A0.31750000000000284,0.31750000000000284 0 1,1 11.177947595591698,6.028556001227114 L11.444960411291271,7.808641439224318 21.492553756433168,6.301502437453032 21.225540941158773,4.5214170022903595 A0.3174999999999992,0.3174999999999992 0 1,1 21.85351552523014,4.427220814679654 L30.645159702682832,3.1084741911532734 A0.31749999999999823,0.31749999999999823 0 1,1 31.27313428584715,3.01427799749558 L31.540147101575077,4.794363435681746 41.58774044671698,3.2872244339104597 41.32072763144406,1.507138998747564 A0.31750000000000855,0.31750000000000855 0 0,1 41.948702215965675,1.412942814158617 L51.368320977037996,0.0 51.08573241420588,-1.8839237522141081 A0.31750000000000056,0.31750000000000056 0 1,1 50.99153622659517,-2.511898336285478 L52.77162166175811,-2.7789111515599165" fill="rgb(0,0,0)" shaper:cutDepth="0.018000000000002597" shaper:pathType="exterior" transform="matrix(1,0,0,-1,1.4033006847201053,7.808641439224319)" vector-effect="non-scaling-stroke" /></svg>