<?xml version="1.0" encoding="utf-8"?>
<!-- Generator: Fusion 360, Shaper Origin Export Add-In, Version 1.1  -->
<svg enable-background="new 0 0 8.064919999999994 4.851310000000002" height="4.851310000000002cm" shaper:fusionaddin="version:1.1" version="1.1" viewBox="0 0 8.064919999999994 4.851310000000002" width="8.064919999999994cm" x="0cm" xml:space="preserve" xmlns="http://www.w3.org/2000/svg" xmlns:shaper="http://www.shapertools.com/namespaces/shaper" xmlns:xlink="http://www.w3.org/1999/xlink" y="0cm"><path d="M7.432459999999992,3.2342066666666653 L7.432459999999992,1.617103333333329 6.79999999999999,1.6171033333333291 6.799999999999993,0.0 -1.267302602728064e-15,0.0 0.0,1.617103333333331 -0.6324600000000018,1.6171033333333311 -0.6324600000000018,3.234206666666667 0.0,3.234206666666667 0.0,4.851310000000002 6.799999999999994,4.85131 6.79999999999999,3.2342066666666653 7.432459999999992,3.2342066666666653z" fill="rgb(0,0,0)" shaper:cutDepth="0.006324600000000089" shaper:pathType="exterior" transform="matrix(1,0,0,-1,0.6324600000000018,4.851310000000002)" vector-effect="non-scaling-stroke" /><path d="M1.249999999999993,1.6171033333333344 a0.45000000000000284,0.45000000000000284 0 1,0 0.9000000000000057,0 a0.45000000000000284,0.45000000000000284 0 1,0 -0.9000000000000057,0z" fill="rgb(255,255,255)" shaper:cutDepth="0.006324600000000089" shaper:pathType="interior" stroke="rgb(0,0,0)" stroke-width="2" transform="matrix(1,0,0,-1,0.6324600000000018,4.851310000000002)" vector-effect="non-scaling-stroke" /><path d="M4.649999999999981,1.6171033333333327 a0.4499999999999993,0.4499999999999993 0 1,0 0.8999999999999986,0 a0.4499999999999993,0.4499999999999993 0 1,0 -0.8999999999999986,0z" fill="rgb(255,255,255)" shaper:cutDepth="0.006324600000000089" shaper:pathType="interior" stroke="rgb(0,0,0)" stroke-width="2" transform="matrix(1,0,0,-1,0.6324600000000018,4.851310000000002)" vector-effect="non-scaling-stroke" /><path d="M4.1999999999999815,3.234206666666668 a0.8999999999999986,0.8999999999999986 0 1,0 1.7999999999999972,0 a0.8999999999999986,0.8999999999999986 0 1,0 -1.7999999999999972,0z" fill="rgb(255,255,255)" shaper:cutDepth="0.006324600000000089" shaper:pathType="interior" stroke="rgb(0,0,0)" stroke-width="2" transform="matrix(1,0,0,-1,0.6324600000000018,4.851310000000002)" vector-effect="non-scaling-stroke" /><path d="M0.7999999999999936,3.234206666666668 a0.9000000000000021,0.9000000000000021 0 1,0 1.8000000000000043,0 a0.9000000000000021,0.9000000000000021 0 1,0 -1.8000000000000043,0z" fill="rgb(255,255,255)" shaper:cutDepth="0.006324600000000089" shaper:pathType="interior" stroke="rgb(0,0,0)" stroke-width="2" transform="matrix(1,0,0,-1,0.6324600000000018,4.851310000000002)" vector-effect="non-scaling-stroke" /><path d="M2.4999999999999822,1.6171033333333344 a0.8999999999999986,0.8999999999999986 0 1,0 1.7999999999999972,0 a0.8999999999999986,0.8999999999999986 0 1,0 -1.7999999999999972,0z" fill="rgb(255,255,255)" shaper:cutDepth="0.006324600000000089" shaper:pathType="interior" stroke="rgb(0,0,0)" stroke-width="2" transform="matrix(1,0,0,-1,0.6324600000000018,4.851310000000002)" vector-effect="non-scaling-stroke" /><path d="M2.9499999999999815,3.234206666666668 a0.4499999999999993,0.4499999999999993 0 1,0 0.8999999999999986,0 a0.4499999999999993,0.4499999999999993 0 1,0 -0.8999999999999986,0z" fill="rgb(255,255,255)" shaper:cutDepth="0.006324600000000089" shaper:pathType="interior" stroke="rgb(0,0,0)" stroke-width="2" transform="matrix(1,0,0,-1,0.6324600000000018,4.851310000000002)" vector-effect="non-scaling-stroke" /></svg>