<?xml version="1.0" encoding="utf-8"?>
<!-- Generator: Fusion 360, Shaper Origin Export Add-In, Version 1.1  -->
<svg enable-background="new 0 0 34.9 11.600000000000001" height="11.600000000000001cm" shaper:fusionaddin="version:1.1" version="1.1" viewBox="0 0 34.9 11.600000000000001" width="34.9cm" x="0cm" xml:space="preserve" xmlns="http://www.w3.org/2000/svg" xmlns:shaper="http://www.shapertools.com/namespaces/shaper" xmlns:xlink="http://www.w3.org/1999/xlink" y="0cm"><path d="M18.77016,-8.881784197001252e-16 L0.0,-2.699538141577612e-15 2.202162977070041e-15,-2.2495633333333345 -0.6324600000000036,-2.2495633333333376 -0.6324600000000009,-3.86666666666667 -1.7763568394002505e-15,-3.866666666666668 -1.7763568394002505e-15,-6.116230000000002 -8.064920000000003,-6.116230000000002 -8.064920000000003,-2.2495633333333345 -7.4324600000000025,-2.2495633333333345 -7.4324600000000025,1.6171033333333305 -8.064920000000003,1.6171033333333322 -8.064920000000003,5.48377 0.0,5.48377 -1.7763568394002505e-15,4.851309999999996 18.770159999999997,4.851309999999998 18.770159999999994,5.48377 26.835079999999998,5.48377 26.835079999999998,-2.2495633333333345 26.202619999999992,-2.2495633333333376 26.202619999999996,-3.86666666666667 26.835079999999994,-3.8666666666666676 26.835079999999998,-6.116230000000002 18.770159999999997,-6.116230000000002 18.770159999999997,-3.866666666666667 19.40262,-3.86666666666667 19.40261999999999,-2.2495633333333376 18.770159999999997,-2.2495633333333345 18.77016,-8.881784197001252e-16z" fill="rgb(0,0,0)" shaper:cutDepth="0.0063246000000000005" shaper:pathType="exterior" transform="matrix(1,0,0,-1,8.064920000000003,5.48377)" vector-effect="non-scaling-stroke" /><path d="M-1.7763568394002505e-15,3.23420666666666 L-0.6324600000000036,3.234206666666662 -0.6324600000000009,1.6171033333333291 -1.7763568394002505e-15,1.617103333333326 -1.7763568394002505e-15,3.23420666666666z" fill="rgb(255,255,255)" shaper:cutDepth="0.0063246000000000005" shaper:pathType="interior" stroke="rgb(0,0,0)" stroke-width="2" transform="matrix(1,0,0,-1,8.064920000000003,5.48377)" vector-effect="non-scaling-stroke" /><path d="M19.40262,3.234206666666663 L18.770159999999997,3.2342066666666613 18.770159999999997,1.6171033333333291 19.40262,1.6171033333333331 19.40262,3.234206666666663z" fill="rgb(255,255,255)" shaper:cutDepth="0.0063246000000000005" shaper:pathType="interior" stroke="rgb(0,0,0)" stroke-width="2" transform="matrix(1,0,0,-1,8.064920000000003,5.48377)" vector-effect="non-scaling-stroke" /></svg>