<?xml version="1.0" encoding="utf-8"?>
<!-- Generator: Fusion 360, Shaper Origin Export Add-In, Version 1.1  -->
<svg enable-background="new 0 0 11.6 20.400000000000006" height="20.400000000000006cm" shaper:fusionaddin="version:1.1" version="1.1" viewBox="0 0 11.6 20.400000000000006" width="11.6cm" x="0cm" xml:space="preserve" xmlns="http://www.w3.org/2000/svg" xmlns:shaper="http://www.shapertools.com/namespaces/shaper" xmlns:xlink="http://www.w3.org/1999/xlink" y="0cm"><path d="M-0.6324600000000005,13.600000000000003 L-4.440892098500626e-16,13.600000000000003 0.0,19.767540000000004 1.6171033333333353,19.767540000000004 1.6171033333333353,20.400000000000006 3.234206666666669,20.400000000000006 3.234206666666669,19.767540000000004 4.85131,19.767540000000004 4.85131,10.200000000000003 5.48377,10.200000000000003 5.48377,19.767540000000004 7.10087333333333,19.767540000000004 7.10087333333333,20.400000000000006 8.717976666666663,20.400000000000006 8.717976666666663,19.767540000000004 10.33508,19.767540000000004 10.33508,13.600000000000003 10.96754,13.600000000000003 10.96754,6.8000000000000025 10.33508,6.8000000000000025 10.33508,0.0 0.0,0.0 -4.440892098500626e-16,6.8000000000000025 -0.6324600000000005,6.8000000000000025 -0.6324600000000005,13.600000000000003z" fill="rgb(0,0,0)" shaper:cutDepth="0.0063246000000000005" shaper:pathType="exterior" transform="matrix(1,0,0,-1,0.6324600000000005,20.400000000000006)" vector-effect="non-scaling-stroke" /></svg>