<?xml version="1.0" encoding="utf-8"?>
<!-- Generator: Fusion 360, Shaper Origin Export Add-In, Version 1.1  -->
<svg enable-background="new 0 0 34.900000000000006 20.400000000000006" height="20.400000000000006cm" shaper:fusionaddin="version:1.1" version="1.1" viewBox="0 0 34.900000000000006 20.400000000000006" width="34.900000000000006cm" x="0cm" xml:space="preserve" xmlns="http://www.w3.org/2000/svg" xmlns:shaper="http://www.shapertools.com/namespaces/shaper" xmlns:xlink="http://www.w3.org/1999/xlink" y="0cm"><path d="M-8.06492,6.800000000000001 L-8.06492,0.63246 -3.552713678800501e-15,0.63246 0.0,0.0 18.770159999999997,0.0 18.770159999999997,0.63246 26.835079999999994,0.63246 26.835079999999998,6.800000000000001 26.202619999999996,6.8000000000000025 26.202619999999996,13.600000000000005 26.835079999999994,13.600000000000001 26.835079999999998,20.400000000000006 18.770159999999997,20.400000000000006 18.770159999999994,17.300000000000004 A2.0000000000000018,2.0000000000000018 0 0,0 16.770159999999997,15.300000000000002 L1.9999999999999967,15.300000000000006 A2.0000000000000027,2.0000000000000027 0 0,0 -3.3306690738754696e-15,17.300000000000008 L-3.552713678800501e-15,20.400000000000006 -8.06492,20.400000000000006 -8.064920000000004,13.600000000000001 -7.432459999999999,13.600000000000003 -7.4324600000000025,6.8000000000000025 -8.06492,6.800000000000001z" fill="rgb(0,0,0)" shaper:cutDepth="0.00632460000000003" shaper:pathType="exterior" transform="matrix(1,0,0,-1,8.064920000000004,20.400000000000006)" vector-effect="non-scaling-stroke" /><path d="M19.402619999999995,6.8000000000000025 L19.402619999999995,13.600000000000003 18.770159999999997,13.600000000000001 18.770159999999997,6.800000000000001 19.402619999999995,6.8000000000000025z" fill="rgb(255,255,255)" shaper:cutDepth="0.00632460000000003" shaper:pathType="interior" stroke="rgb(0,0,0)" stroke-width="2" transform="matrix(1,0,0,-1,8.064920000000004,20.400000000000006)" vector-effect="non-scaling-stroke" /><path d="M-0.6324600000000018,13.600000000000003 L-0.6324600000000018,6.8000000000000025 -1.7763568394002505e-15,6.800000000000001 -3.552713678800501e-15,13.600000000000001 -0.6324600000000018,13.600000000000003z" fill="rgb(255,255,255)" shaper:cutDepth="0.00632460000000003" shaper:pathType="interior" stroke="rgb(0,0,0)" stroke-width="2" transform="matrix(1,0,0,-1,8.064920000000004,20.400000000000006)" vector-effect="non-scaling-stroke" /></svg>