<?xml version="1.0" encoding="utf-8"?>
<!-- Generator: Fusion 360, Shaper Origin Export Add-In, Version 1.1  -->
<svg enable-background="new 0 0 11.600000000000001 20.400000000000006" height="20.400000000000006cm" shaper:fusionaddin="version:1.1" version="1.1" viewBox="0 0 11.600000000000001 20.400000000000006" width="11.600000000000001cm" x="0cm" xml:space="preserve" xmlns="http://www.w3.org/2000/svg" xmlns:shaper="http://www.shapertools.com/namespaces/shaper" xmlns:xlink="http://www.w3.org/1999/xlink" y="0cm"><path d="M4.851309999999998,10.200000000000003 L4.851309999999998,19.767540000000004 3.234206666666664,19.767540000000004 3.234206666666664,20.400000000000006 1.6171033333333318,20.400000000000006 1.6171033333333318,19.767540000000004 0.0,19.767540000000004 -2.3314683517128287e-15,13.600000000000001 -0.6324600000000024,13.600000000000001 -0.6324600000000024,6.800000000000001 -1.1102230246251565e-16,6.800000000000001 0.0,0.0 10.335080000000001,0.0 10.33508,6.800000000000001 10.96754,6.800000000000001 10.96754,13.600000000000001 10.335080000000001,13.600000000000001 10.335080000000001,19.767540000000004 8.717976666666667,19.767540000000004 8.717976666666667,20.400000000000006 7.100873333333334,20.400000000000006 7.100873333333334,19.767540000000004 5.483769999999998,19.767540000000004 5.483769999999998,10.200000000000003 4.851309999999998,10.200000000000003z" fill="rgb(0,0,0)" shaper:cutDepth="0.006324599999999982" shaper:pathType="exterior" transform="matrix(1,0,0,-1,0.6324600000000024,20.400000000000006)" vector-effect="non-scaling-stroke" /><path d="M8.717976666666667,9.567540000000019 L8.71797666666667,10.20000000000002 7.100873333333334,10.20000000000002 7.100873333333334,9.567540000000019 8.717976666666667,9.567540000000019z" fill="rgb(255,255,255)" shaper:cutDepth="0.006324599999999982" shaper:pathType="interior" stroke="rgb(0,0,0)" stroke-width="2" transform="matrix(1,0,0,-1,0.6324600000000024,20.400000000000006)" vector-effect="non-scaling-stroke" /></svg>