<?xml version="1.0" encoding="utf-8"?>
<!-- Generator: Fusion 360, Shaper Origin Export Add-In, Version 1.1  -->
<svg enable-background="new 0 0 18.770159999999997 6.116230000000002" height="6.116230000000002cm" shaper:fusionaddin="version:1.1" version="1.1" viewBox="0 0 18.770159999999997 6.116230000000002" width="18.770159999999997cm" x="0cm" xml:space="preserve" xmlns="http://www.w3.org/2000/svg" xmlns:shaper="http://www.shapertools.com/namespaces/shaper" xmlns:xlink="http://www.w3.org/1999/xlink" y="0cm"><path d="M3.552713678800501e-15,-0.63246 L3.552713678800501e-15,6.954345437271065e-17 6.256720000000005,-8.881784197001252e-16 6.256720000000005,4.85131 3.552713678800501e-15,4.851310000000002 3.552713678800501e-15,5.483770000000001 -6.256719999999996,5.483770000000002 -6.256719999999996,4.85131 -12.513439999999992,4.85131 -12.513439999999992,-8.881784197001252e-16 -6.256719999999996,-2.220446049250313e-16 -6.256719999999996,-0.6324600000000004 3.552713678800501e-15,-0.63246z" fill="rgb(0,0,0)" shaper:cutDepth="0.006324600000000036" shaper:pathType="exterior" transform="matrix(1,0,0,-1,12.513439999999992,5.483770000000002)" vector-effect="non-scaling-stroke" /><path d="M2.202688000000016,1.6171033333333473 a0.3000000000000007,0.3000000000000007 0 1,0 0.6000000000000014,0 a0.3000000000000007,0.3000000000000007 0 1,0 -0.6000000000000014,0z" fill="rgb(255,255,255)" shaper:cutDepth="0.006324600000000036" shaper:pathType="interior" stroke="rgb(0,0,0)" stroke-width="2" transform="matrix(1,0,0,-1,12.513439999999992,5.483770000000002)" vector-effect="non-scaling-stroke" /><path d="M-1.551343999999986,1.6171033333333438 a0.3000000000000007,0.3000000000000007 0 1,0 0.6000000000000014,0 a0.3000000000000007,0.3000000000000007 0 1,0 -0.6000000000000014,0z" fill="rgb(255,255,255)" shaper:cutDepth="0.006324600000000036" shaper:pathType="interior" stroke="rgb(0,0,0)" stroke-width="2" transform="matrix(1,0,0,-1,12.513439999999992,5.483770000000002)" vector-effect="non-scaling-stroke" /><path d="M-5.3053759999999865,1.6171033333333402 a0.29999999999999893,0.29999999999999893 0 1,0 0.5999999999999979,0 a0.29999999999999893,0.29999999999999893 0 1,0 -0.5999999999999979,0z" fill="rgb(255,255,255)" shaper:cutDepth="0.006324600000000036" shaper:pathType="interior" stroke="rgb(0,0,0)" stroke-width="2" transform="matrix(1,0,0,-1,12.513439999999992,5.483770000000002)" vector-effect="non-scaling-stroke" /><path d="M-9.05940799999999,1.6171033333333371 a0.3000000000000007,0.3000000000000007 0 1,0 0.6000000000000014,0 a0.3000000000000007,0.3000000000000007 0 1,0 -0.6000000000000014,0z" fill="rgb(255,255,255)" shaper:cutDepth="0.006324600000000036" shaper:pathType="interior" stroke="rgb(0,0,0)" stroke-width="2" transform="matrix(1,0,0,-1,12.513439999999992,5.483770000000002)" vector-effect="non-scaling-stroke" /><path d="M-11.236423999999992,1.617103333333335 a0.5999999999999996,0.5999999999999996 0 1,0 1.1999999999999993,0 a0.5999999999999996,0.5999999999999996 0 1,0 -1.1999999999999993,0z" fill="rgb(255,255,255)" shaper:cutDepth="0.006324600000000036" shaper:pathType="interior" stroke="rgb(0,0,0)" stroke-width="2" transform="matrix(1,0,0,-1,12.513439999999992,5.483770000000002)" vector-effect="non-scaling-stroke" /><path d="M-7.482391999999987,1.6171033333333384 a0.5999999999999996,0.5999999999999996 0 1,0 1.1999999999999993,0 a0.5999999999999996,0.5999999999999996 0 1,0 -1.1999999999999993,0z" fill="rgb(255,255,255)" shaper:cutDepth="0.006324600000000036" shaper:pathType="interior" stroke="rgb(0,0,0)" stroke-width="2" transform="matrix(1,0,0,-1,12.513439999999992,5.483770000000002)" vector-effect="non-scaling-stroke" /><path d="M-3.728359999999988,1.6171033333333416 a0.5999999999999979,0.5999999999999979 0 1,0 1.1999999999999957,0 a0.5999999999999979,0.5999999999999979 0 1,0 -1.1999999999999957,0z" fill="rgb(255,255,255)" shaper:cutDepth="0.006324600000000036" shaper:pathType="interior" stroke="rgb(0,0,0)" stroke-width="2" transform="matrix(1,0,0,-1,12.513439999999992,5.483770000000002)" vector-effect="non-scaling-stroke" /><path d="M0.02567200000001435,1.6171033333333455 a0.6000000000000014,0.6000000000000014 0 1,0 1.2000000000000028,0 a0.6000000000000014,0.6000000000000014 0 1,0 -1.2000000000000028,0z" fill="rgb(255,255,255)" shaper:cutDepth="0.006324600000000036" shaper:pathType="interior" stroke="rgb(0,0,0)" stroke-width="2" transform="matrix(1,0,0,-1,12.513439999999992,5.483770000000002)" vector-effect="non-scaling-stroke" /><path d="M3.7797040000000166,1.617103333333349 a0.6000000000000014,0.6000000000000014 0 1,0 1.2000000000000028,0 a0.6000000000000014,0.6000000000000014 0 1,0 -1.2000000000000028,0z" fill="rgb(255,255,255)" shaper:cutDepth="0.006324600000000036" shaper:pathType="interior" stroke="rgb(0,0,0)" stroke-width="2" transform="matrix(1,0,0,-1,12.513439999999992,5.483770000000002)" vector-effect="non-scaling-stroke" /><path d="M1.902688000000019,3.234206666666682 a0.5999999999999979,0.5999999999999979 0 1,0 1.1999999999999957,0 a0.5999999999999979,0.5999999999999979 0 1,0 -1.1999999999999957,0z" fill="rgb(255,255,255)" shaper:cutDepth="0.006324600000000036" shaper:pathType="interior" stroke="rgb(0,0,0)" stroke-width="2" transform="matrix(1,0,0,-1,12.513439999999992,5.483770000000002)" vector-effect="non-scaling-stroke" /><path d="M-1.8513439999999832,3.234206666666678 a0.5999999999999979,0.5999999999999979 0 1,0 1.1999999999999957,0 a0.5999999999999979,0.5999999999999979 0 1,0 -1.1999999999999957,0z" fill="rgb(255,255,255)" shaper:cutDepth="0.006324600000000036" shaper:pathType="interior" stroke="rgb(0,0,0)" stroke-width="2" transform="matrix(1,0,0,-1,12.513439999999992,5.483770000000002)" vector-effect="non-scaling-stroke" /><path d="M-5.605375999999987,3.2342066666666742 a0.5999999999999996,0.5999999999999996 0 1,0 1.1999999999999993,0 a0.5999999999999996,0.5999999999999996 0 1,0 -1.1999999999999993,0z" fill="rgb(255,255,255)" shaper:cutDepth="0.006324600000000036" shaper:pathType="interior" stroke="rgb(0,0,0)" stroke-width="2" transform="matrix(1,0,0,-1,12.513439999999992,5.483770000000002)" vector-effect="non-scaling-stroke" /><path d="M-9.359407999999988,3.2342066666666707 a0.5999999999999996,0.5999999999999996 0 1,0 1.1999999999999993,0 a0.5999999999999996,0.5999999999999996 0 1,0 -1.1999999999999993,0z" fill="rgb(255,255,255)" shaper:cutDepth="0.006324600000000036" shaper:pathType="interior" stroke="rgb(0,0,0)" stroke-width="2" transform="matrix(1,0,0,-1,12.513439999999992,5.483770000000002)" vector-effect="non-scaling-stroke" /><path d="M-10.93642399999999,3.234206666666669 a0.3000000000000007,0.3000000000000007 0 1,0 0.6000000000000014,0 a0.3000000000000007,0.3000000000000007 0 1,0 -0.6000000000000014,0z" fill="rgb(255,255,255)" shaper:cutDepth="0.006324600000000036" shaper:pathType="interior" stroke="rgb(0,0,0)" stroke-width="2" transform="matrix(1,0,0,-1,12.513439999999992,5.483770000000002)" vector-effect="non-scaling-stroke" /><path d="M-7.182391999999988,3.2342066666666724 a0.3000000000000007,0.3000000000000007 0 1,0 0.6000000000000014,0 a0.3000000000000007,0.3000000000000007 0 1,0 -0.6000000000000014,0z" fill="rgb(255,255,255)" shaper:cutDepth="0.006324600000000036" shaper:pathType="interior" stroke="rgb(0,0,0)" stroke-width="2" transform="matrix(1,0,0,-1,12.513439999999992,5.483770000000002)" vector-effect="non-scaling-stroke" /><path d="M-3.4283599999999943,3.2342066666666764 a0.3000000000000007,0.3000000000000007 0 1,0 0.6000000000000014,0 a0.3000000000000007,0.3000000000000007 0 1,0 -0.6000000000000014,0z" fill="rgb(255,255,255)" shaper:cutDepth="0.006324600000000036" shaper:pathType="interior" stroke="rgb(0,0,0)" stroke-width="2" transform="matrix(1,0,0,-1,12.513439999999992,5.483770000000002)" vector-effect="non-scaling-stroke" /><path d="M0.32567200000001506,3.23420666666668 a0.3000000000000007,0.3000000000000007 0 1,0 0.6000000000000014,0 a0.3000000000000007,0.3000000000000007 0 1,0 -0.6000000000000014,0z" fill="rgb(255,255,255)" shaper:cutDepth="0.006324600000000036" shaper:pathType="interior" stroke="rgb(0,0,0)" stroke-width="2" transform="matrix(1,0,0,-1,12.513439999999992,5.483770000000002)" vector-effect="non-scaling-stroke" /><path d="M4.079704000000021,3.234206666666684 a0.29999999999999716,0.29999999999999716 0 1,0 0.5999999999999943,0 a0.29999999999999716,0.29999999999999716 0 1,0 -0.5999999999999943,0z" fill="rgb(255,255,255)" shaper:cutDepth="0.006324600000000036" shaper:pathType="interior" stroke="rgb(0,0,0)" stroke-width="2" transform="matrix(1,0,0,-1,12.513439999999992,5.483770000000002)" vector-effect="non-scaling-stroke" /></svg>