<?xml version="1.0" encoding="utf-8"?>
<!-- Generator: Fusion 360, Shaper Origin Export Add-In, Version 1.1  -->
<svg enable-background="new 0 0 34.9 20.400000000000006" height="20.400000000000006cm" shaper:fusionaddin="version:1.1" version="1.1" viewBox="0 0 34.9 20.400000000000006" width="34.9cm" x="0cm" xml:space="preserve" xmlns="http://www.w3.org/2000/svg" xmlns:shaper="http://www.shapertools.com/namespaces/shaper" xmlns:xlink="http://www.w3.org/1999/xlink" y="0cm"><path d="M19.40262,20.400000000000006 L0.6324600000000018,20.400000000000006 0.63246,19.767540000000004 -7.432460000000001,19.767540000000004 -7.432460000000001,13.600000000000003 -6.800000000000002,13.600000000000001 -6.800000000000002,6.8 -7.432460000000001,6.800000000000002 -7.432460000000001,0.0 -6.800000000000002,0.0 -6.800000000000001,2.079999999999998 A2.0000000000000027,2.0000000000000027 0 0,0 -4.800000000000001,4.079999999999998 L-1.9999999999999998,4.079999999999999 A2.000000000000001,2.000000000000001 0 0,0 0.0,2.0799999999999983 L0.0,0.0 20.035079999999994,0.0 20.035079999999994,2.0799999999999983 A1.9999999999999982,1.9999999999999982 0 0,0 22.035079999999994,4.079999999999998 L24.835079999999998,4.079999999999999 A1.9999999999999964,1.9999999999999964 0 0,0 26.835079999999998,2.080000000000001 L26.835079999999998,0.0 27.46754,0.0 27.46754,6.8000000000000025 26.835079999999998,6.800000000000001 26.835079999999998,13.600000000000001 27.46754,13.600000000000005 27.46754,19.767540000000004 19.40262,19.767540000000004 19.40262,20.400000000000006z" fill="rgb(0,0,0)" shaper:cutDepth="0.006324599999999978" shaper:pathType="exterior" transform="matrix(1,0,0,-1,7.432460000000001,20.400000000000006)" vector-effect="non-scaling-stroke" /><path d="M0.63246,13.600000000000001 L0.0,13.600000000000001 0.0,6.800000000000001 0.63246,6.8000000000000025 0.63246,13.600000000000001z" fill="rgb(255,255,255)" shaper:cutDepth="0.006324599999999978" shaper:pathType="interior" stroke="rgb(0,0,0)" stroke-width="2" transform="matrix(1,0,0,-1,7.432460000000001,20.400000000000006)" vector-effect="non-scaling-stroke" /><path d="M19.40262,6.800000000000003 L20.035079999999994,6.800000000000001 20.035079999999994,13.600000000000001 19.40262,13.600000000000003 19.40262,6.800000000000003z" fill="rgb(255,255,255)" shaper:cutDepth="0.006324599999999978" shaper:pathType="interior" stroke="rgb(0,0,0)" stroke-width="2" transform="matrix(1,0,0,-1,7.432460000000001,20.400000000000006)" vector-effect="non-scaling-stroke" /><path d="M13.145899999999996,9.883770000000005 L13.145899999999996,10.516230000000007 6.889179999999996,10.516230000000006 6.889179999999998,9.883770000000002 13.145899999999996,9.883770000000005z" fill="rgb(255,255,255)" shaper:cutDepth="0.006324599999999978" shaper:pathType="interior" stroke="rgb(0,0,0)" stroke-width="2" transform="matrix(1,0,0,-1,7.432460000000001,20.400000000000006)" vector-effect="non-scaling-stroke" /></svg>