<?xml version="1.0" encoding="utf-8"?>
<!-- Generator: Fusion 360, Shaper Origin Export Add-In, Version 1.1  -->
<svg enable-background="new 0 0 11.600000000000003 20.400000000000006" height="20.400000000000006cm" shaper:fusionaddin="version:1.1" version="1.1" viewBox="0 0 11.600000000000003 20.400000000000006" width="11.600000000000003cm" x="0cm" xml:space="preserve" xmlns="http://www.w3.org/2000/svg" xmlns:shaper="http://www.shapertools.com/namespaces/shaper" xmlns:xlink="http://www.w3.org/1999/xlink" y="0cm"><path d="M4.851309999999998,19.767540000000004 L3.234206666666667,19.767540000000004 3.234206666666667,20.400000000000006 1.6171033333333336,20.400000000000006 1.6171033333333336,19.767540000000004 -1.1102230246251565e-16,19.767540000000004 -2.3314683517128287e-15,13.600000000000003 -0.6324600000000024,13.600000000000003 -0.6324600000000024,6.8000000000000025 -2.3314683517128287e-15,6.8000000000000025 -1.1102230246251565e-16,0.0 10.335080000000001,0.0 10.335080000000001,6.8000000000000025 10.967540000000001,6.8000000000000025 10.967540000000001,13.600000000000003 10.335080000000001,13.600000000000003 10.335080000000001,15.687540000000004 5.483769999999998,15.687540000000004 5.483769999999998,10.200000000000003 4.851309999999998,10.200000000000003 4.851309999999998,19.767540000000004z" fill="rgb(0,0,0)" shaper:cutDepth="0.006324600000000018" shaper:pathType="exterior" transform="matrix(1,0,0,-1,0.6324600000000024,20.400000000000006)" vector-effect="non-scaling-stroke" /><path d="M7.100873333333334,10.200000000000028 L7.100873333333334,9.567540000000019 8.717976666666667,9.567540000000019 8.71797666666667,10.200000000000028 7.100873333333334,10.200000000000028z" fill="rgb(255,255,255)" shaper:cutDepth="0.006324600000000018" shaper:pathType="interior" stroke="rgb(0,0,0)" stroke-width="2" transform="matrix(1,0,0,-1,0.6324600000000024,20.400000000000006)" vector-effect="non-scaling-stroke" /></svg>