<?xml version="1.0" encoding="utf-8"?>
<!-- Generator: Fusion 360, Shaper Origin Export Add-In, Version 1.1  -->
<svg enable-background="new 0 0 27.46754 24.20000000000001" height="24.20000000000001cm" shaper:fusionaddin="version:1.1" version="1.1" viewBox="0 0 27.46754 24.20000000000001" width="27.46754cm" x="0cm" xml:space="preserve" xmlns="http://www.w3.org/2000/svg" xmlns:shaper="http://www.shapertools.com/namespaces/shaper" xmlns:xlink="http://www.w3.org/1999/xlink" y="0cm"><path d="M-0.6324599999999911,10.200000000000001 L-0.6324599999999947,20.400000000000006 -7.432459999999995,20.400000000000006 -7.432459999999995,10.200000000000001 -8.064919999999997,10.200000000000001 -8.064919999999997,0.63246 3.552713678800501e-15,0.63246 3.552713678800501e-15,0.0 18.770159999999997,0.0 18.770159999999997,0.63246 19.402620000000002,0.63246 19.402620000000002,10.200000000000001 18.77016,10.200000000000001 18.77016,23.20000000000001 A1.0000000000000036,1.0000000000000036 0 0,1 17.77016,24.20000000000001 L1.0000000000000036,24.200000000000003 A1.0000000000000036,1.0000000000000036 0 0,1 3.1086244689504383e-15,23.2 L3.552713678800501e-15,10.200000000000001 -0.6324599999999911,10.200000000000001z" fill="rgb(0,0,0)" shaper:cutDepth="0.0063246" shaper:pathType="exterior" transform="matrix(1,0,0,-1,8.064919999999997,24.20000000000001)" vector-effect="non-scaling-stroke" /><path d="M3.5333333333333385,20.400000000000006 L15.236826666666666,20.400000000000006 A1.0,1.0 0 0,1 16.236826666666666,21.400000000000006 L16.23682666666667,21.933333333333337 A1.0,1.0 0 0,1 15.236826666666667,22.933333333333337 L3.5333333333333385,22.933333333333337 A0.9999999999999964,0.9999999999999964 0 0,1 2.5333333333333385,21.93333333333334 L2.5333333333333385,21.400000000000006 A1.0000000000000044,1.0000000000000044 0 0,1 3.5333333333333385,20.400000000000006z" fill="rgb(255,255,255)" shaper:cutDepth="0.0063246" shaper:pathType="interior" stroke="rgb(0,0,0)" stroke-width="2" transform="matrix(1,0,0,-1,8.064919999999997,24.20000000000001)" vector-effect="non-scaling-stroke" /><path d="M6.256720000000005,10.51623 L6.256720000000005,9.883769999999998 12.513440000000005,9.88377 12.513440000000003,10.516230000000002 6.256720000000005,10.51623z" fill="rgb(255,255,255)" shaper:cutDepth="0.0063246" shaper:pathType="interior" stroke="rgb(0,0,0)" stroke-width="2" transform="matrix(1,0,0,-1,8.064919999999997,24.20000000000001)" vector-effect="non-scaling-stroke" /></svg>