<?xml version="1.0" encoding="utf-8"?>
<!-- Generator: Fusion 360, Shaper Origin Export Add-In, Version 1.1  -->
<svg enable-background="new 0 0 11.600000000000009 20.400000000000006" height="20.400000000000006cm" shaper:fusionaddin="version:1.1" version="1.1" viewBox="0 0 11.600000000000009 20.400000000000006" width="11.600000000000009cm" x="0cm" xml:space="preserve" xmlns="http://www.w3.org/2000/svg" xmlns:shaper="http://www.shapertools.com/namespaces/shaper" xmlns:xlink="http://www.w3.org/1999/xlink" y="0cm"><path d="M10.335080000000001,12.967540000000003 L10.335080000000001,19.767540000000004 7.100873333333335,19.767540000000004 7.100873333333335,20.400000000000006 3.23420666666667,20.400000000000006 3.23420666666667,19.767540000000004 -8.881784197001252e-16,19.767540000000004 -2.6645352591003757e-15,12.967540000000003 -0.6324600000000045,12.967540000000003 -0.6324600000000045,6.1675400000000025 -2.6645352591003757e-15,6.1675400000000025 -8.881784197001252e-16,0.0 10.335080000000001,0.0 10.335080000000001,6.1675400000000025 10.967540000000003,6.1675400000000025 10.967540000000003,12.967540000000003 10.335080000000001,12.967540000000003z" fill="rgb(0,0,0)" shaper:cutDepth="0.0063246000000000005" shaper:pathType="exterior" transform="matrix(1,0,0,-1,0.6324600000000045,20.400000000000006)" vector-effect="non-scaling-stroke" /><path d="M2.687540000000001,3.799999999999997 A1.0000000000000009,1.0000000000000009 0 0,1 1.6875400000000007,2.7999999999999963 L1.6875400000000012,2.2666666666666657 A1.0000000000000004,1.0000000000000004 0 0,1 2.6875400000000016,1.2666666666666657 L7.647540000000004,1.2666666666666657 A0.9999999999999964,0.9999999999999964 0 0,1 8.647540000000001,2.2666666666666617 L8.647540000000003,2.799999999999997 A0.9999999999999991,0.9999999999999991 0 0,1 7.647540000000002,3.799999999999999 L2.687540000000001,3.799999999999997z" fill="rgb(255,255,255)" shaper:cutDepth="0.0063246000000000005" shaper:pathType="interior" stroke="rgb(0,0,0)" stroke-width="2" transform="matrix(1,0,0,-1,0.6324600000000045,20.400000000000006)" vector-effect="non-scaling-stroke" /></svg>