<?xml version="1.0" encoding="utf-8"?>
<!-- Generator: Fusion 360, Shaper Origin Export Add-In, Version 1.0  -->
<svg enable-background="new 0 0 12.100000000000003 20.400000000000006" height="20.400000000000006cm" shaper:fusionaddin="version:1.0" version="1.1" viewBox="0 0 12.100000000000003 20.400000000000006" width="12.100000000000003cm" x="0cm" xml:space="preserve" xmlns="http://www.w3.org/2000/svg" xmlns:shaper="http://www.shapertools.com/namespaces/shaper" xmlns:xlink="http://www.w3.org/1999/xlink" y="0cm"><title>Title</title><desc>Description</desc><path d="M-0.6324600000000018,6.800000000000001 L-1.7763568394002505e-15,6.800000000000001 0.0,0.0 10.835080000000001,0.0 10.835080000000001,6.800000000000001 11.467540000000001,6.800000000000001 11.467540000000001,13.600000000000001 10.835080000000001,13.600000000000001 10.835080000000001,19.767540000000004 9.134643333333335,19.767540000000004 9.134643333333335,20.400000000000006 7.43420666666667,20.400000000000006 7.43420666666667,19.767540000000004 5.733770000000001,19.767540000000004 5.73377,10.200000000000003 5.101310000000001,10.200000000000003 5.101310000000001,19.767540000000004 3.4008733333333296,19.767540000000004 3.4008733333333296,20.400000000000006 1.7004366666666648,20.400000000000006 1.7004366666666648,19.767540000000004 0.0,19.767540000000004 -1.7763568394002505e-15,13.600000000000001 -0.6324600000000018,13.600000000000001 -0.6324600000000018,6.800000000000001" fill="rgb(0,0,0)" shaper:cutDepth="0.0063246000000000005" shaper:pathType="exterior" transform="matrix(1,0,0,-1,0.6324600000000018,20.400000000000006)" vector-effect="non-scaling-stroke" /></svg>