<?xml version="1.0" encoding="utf-8"?>
<!-- Generator: Fusion 360, Shaper Origin Export Add-In, Version 1.0  -->
<svg enable-background="new 0 0 28.46754 24.20000000000001" height="24.20000000000001cm" shaper:fusionaddin="version:1.0" version="1.1" viewBox="0 0 28.46754 24.20000000000001" width="28.46754cm" x="0cm" xml:space="preserve" xmlns="http://www.w3.org/2000/svg" xmlns:shaper="http://www.shapertools.com/namespaces/shaper" xmlns:xlink="http://www.w3.org/1999/xlink" y="0cm"><title>Title</title><desc>Description</desc><path d="M19.770159999999997,10.200000000000001 L19.770159999999997,23.200000000000003 A1.0000000000000036,1.0000000000000036 0 0,1 18.770159999999997,24.200000000000003 L1.0,24.20000000000001 A1.0000000000000036,1.0000000000000036 0 0,1 -2.886579864025407e-15,23.200000000000006 L-1.7763568394002505e-15,10.200000000000001 -0.6324600000000027,10.200000000000001 -0.6324600000000018,0.63246 0.0,0.63246 0.0,0.0 19.770159999999997,0.0 19.770159999999997,0.63246 27.835079999999998,0.63246 27.835079999999998,10.200000000000001 27.202619999999996,10.200000000000001 27.202619999999996,20.400000000000006 20.40262,20.400000000000006 20.40262,10.200000000000001 19.770159999999997,10.200000000000001" fill="rgb(0,0,0)" shaper:cutDepth="0.006324600000000002" shaper:pathType="exterior" transform="matrix(1,0,0,-1,0.6324600000000027,24.20000000000001)" vector-effect="non-scaling-stroke" /><path d="M16.23682666666666,20.400000000000006 A1.0000000000000036,1.0000000000000036 0 0,1 17.23682666666666,21.40000000000001 L17.23682666666666,21.933333333333337 A1.0000000000000036,1.0000000000000036 0 0,1 16.23682666666666,22.933333333333337 L3.5333333333333314,22.933333333333337 A0.9999999999999964,0.9999999999999964 0 0,1 2.5333333333333314,21.93333333333334 L2.5333333333333297,21.400000000000006 A1.0000000000000062,1.0000000000000062 0 0,1 3.533333333333333,20.4 L16.23682666666666,20.400000000000006" fill="rgb(255,255,255)" shaper:cutDepth="0.006324600000000002" shaper:pathType="interior" stroke="rgb(0,0,0)" stroke-width="2" transform="matrix(1,0,0,-1,0.6324600000000027,24.20000000000001)" vector-effect="non-scaling-stroke" /><path d="M6.59005333333333,10.516230000000002 L6.59005333333333,9.88377 13.180106666666665,9.88377 13.180106666666665,10.51623 6.59005333333333,10.516230000000002" fill="rgb(255,255,255)" shaper:cutDepth="0.006324600000000002" shaper:pathType="interior" stroke="rgb(0,0,0)" stroke-width="2" transform="matrix(1,0,0,-1,0.6324600000000027,24.20000000000001)" vector-effect="non-scaling-stroke" /></svg>