<?xml version="1.0" encoding="utf-8"?>
<!-- Generator: Fusion 360, Shaper Origin Export Add-In, Version 1.0  -->
<svg enable-background="new 0 0 35.9 20.400000000000006" height="20.400000000000006cm" shaper:fusionaddin="version:1.0" version="1.1" viewBox="0 0 35.9 20.400000000000006" width="35.9cm" x="0cm" xml:space="preserve" xmlns="http://www.w3.org/2000/svg" xmlns:shaper="http://www.shapertools.com/namespaces/shaper" xmlns:xlink="http://www.w3.org/1999/xlink" y="0cm"><title>Title</title><desc>Description</desc><path d="M28.467539999999996,19.767540000000004 L20.402619999999995,19.767540000000004 20.402619999999995,20.400000000000006 0.6324599999999982,20.400000000000006 0.6324599999999982,19.767540000000004 -7.4324600000000025,19.767540000000004 -7.4324600000000025,13.600000000000003 -6.800000000000001,13.600000000000001 -6.800000000000001,6.8 -7.4324600000000025,6.8000000000000025 -7.4324600000000025,0.0 -6.800000000000001,0.0 -6.800000000000001,2.0799999999999983 A2.000000000000001,2.000000000000001 0 0,0 -4.800000000000001,4.08 L-1.999999999999997,4.079999999999998 A2.0000000000000018,2.0000000000000018 0 0,0 3.3306690738754696e-15,2.079999999999997 L3.552713678800501e-15,0.0 21.035079999999997,0.0 21.035079999999994,2.0799999999999983 A1.9999999999999982,1.9999999999999982 0 0,0 23.035079999999994,4.08 L25.835079999999998,4.079999999999999 A1.9999999999999964,1.9999999999999964 0 0,0 27.835079999999998,2.080000000000001 L27.835079999999994,0.0 28.467539999999996,0.0 28.467539999999996,6.8000000000000025 27.835079999999994,6.800000000000001 27.835079999999998,13.6 28.467539999999996,13.600000000000003 28.467539999999996,19.767540000000004" fill="rgb(0,0,0)" shaper:cutDepth="0.0063246000000000005" shaper:pathType="exterior" transform="matrix(1,0,0,-1,7.4324600000000025,20.400000000000006)" vector-effect="non-scaling-stroke" /><path d="M3.552713678800501e-15,13.600000000000001 L3.552713678800501e-15,6.800000000000001 0.6324599999999982,6.8000000000000025 0.6324599999999982,13.600000000000003 3.552713678800501e-15,13.600000000000001" fill="rgb(255,255,255)" shaper:cutDepth="0.0063246000000000005" shaper:pathType="interior" stroke="rgb(0,0,0)" stroke-width="2" transform="matrix(1,0,0,-1,7.4324600000000025,20.400000000000006)" vector-effect="non-scaling-stroke" /><path d="M21.035079999999997,6.800000000000001 L21.035079999999997,13.600000000000001 20.402619999999995,13.600000000000003 20.402619999999995,6.8000000000000025 21.035079999999997,6.800000000000001" fill="rgb(255,255,255)" shaper:cutDepth="0.0063246000000000005" shaper:pathType="interior" stroke="rgb(0,0,0)" stroke-width="2" transform="matrix(1,0,0,-1,7.4324600000000025,20.400000000000006)" vector-effect="non-scaling-stroke" /><path d="M13.81256666666666,9.883770000000002 L13.812566666666662,10.516230000000006 7.222513333333328,10.516230000000004 7.222513333333328,9.883770000000005 13.81256666666666,9.883770000000002" fill="rgb(255,255,255)" shaper:cutDepth="0.0063246000000000005" shaper:pathType="interior" stroke="rgb(0,0,0)" stroke-width="2" transform="matrix(1,0,0,-1,7.4324600000000025,20.400000000000006)" vector-effect="non-scaling-stroke" /></svg>