<?xml version="1.0" encoding="utf-8"?>
<!-- Generator: Fusion 360, Shaper Origin Export Add-In, Version 1.0  -->
<svg enable-background="new 0 0 35.9 12.100000000000005" height="12.100000000000005cm" shaper:fusionaddin="version:1.0" version="1.1" viewBox="0 0 35.9 12.100000000000005" width="35.9cm" x="0cm" xml:space="preserve" xmlns="http://www.w3.org/2000/svg" xmlns:shaper="http://www.shapertools.com/namespaces/shaper" xmlns:xlink="http://www.w3.org/1999/xlink" y="0cm"><title>Title</title><desc>Description</desc><path d="M19.770159999999997,-2.6645352591003757e-15 L0.0,-1.9159253957446275e-15 1.7961712338696707e-15,-2.3328966666666684 -0.6324600000000036,-2.3328966666666715 -0.6324600000000006,-4.033333333333336 -1.7763568394002505e-15,-4.033333333333334 -1.0871898738676387e-15,-6.366230000000001 -8.064920000000003,-6.366230000000001 -8.064920000000003,-2.3328966666666693 -7.4324600000000025,-2.3328966666666693 -7.4324600000000025,1.7004366666666648 -8.064920000000003,1.7004366666666668 -8.06492,5.733770000000001 0.0,5.73377 -1.5329727638104619e-15,5.101309999999999 19.770159999999997,5.101309999999998 19.770159999999994,5.733769999999999 27.835079999999998,5.733769999999997 27.835079999999998,-2.332896666666671 27.202619999999996,-2.3328966666666746 27.202619999999996,-4.033333333333339 27.835079999999994,-4.033333333333338 27.835079999999998,-6.366230000000004 19.770159999999997,-6.366230000000003 19.770159999999997,-4.033333333333336 20.40262,-4.0333333333333385 20.40261999999999,-2.3328966666666737 19.770159999999997,-2.3328966666666697 19.770159999999997,-2.6645352591003757e-15" fill="rgb(0,0,0)" shaper:cutDepth="0.0063246000000000005" shaper:pathType="exterior" transform="matrix(1,0,0,-1,8.064920000000003,5.733770000000001)" vector-effect="non-scaling-stroke" /><path d="M-1.7763568394002505e-15,3.4008733333333283 L-0.6324600000000036,3.40087333333333 -0.6324600000000001,1.7004366666666693 -1.7763568394002505e-15,1.7004366666666648 -1.7763568394002505e-15,3.4008733333333283" fill="rgb(255,255,255)" shaper:cutDepth="0.0063246000000000005" shaper:pathType="interior" stroke="rgb(0,0,0)" stroke-width="2" transform="matrix(1,0,0,-1,8.064920000000003,5.733770000000001)" vector-effect="non-scaling-stroke" /><path d="M20.40262,3.400873333333334 L19.770159999999997,3.4008733333333323 19.770159999999997,1.7004366666666657 20.40262,1.7004366666666688 20.40262,3.400873333333334" fill="rgb(255,255,255)" shaper:cutDepth="0.0063246000000000005" shaper:pathType="interior" stroke="rgb(0,0,0)" stroke-width="2" transform="matrix(1,0,0,-1,8.064920000000003,5.733770000000001)" vector-effect="non-scaling-stroke" /></svg>