<?xml version="1.0" encoding="utf-8"?>
<!-- Generator: Fusion 360, Shaper Origin Export Add-In, Version 1.0  -->
<svg enable-background="new 0 0 12.100000000000005 20.400000000000006" height="20.400000000000006cm" shaper:fusionaddin="version:1.0" version="1.1" viewBox="0 0 12.100000000000005 20.400000000000006" width="12.100000000000005cm" x="0cm" xml:space="preserve" xmlns="http://www.w3.org/2000/svg" xmlns:shaper="http://www.shapertools.com/namespaces/shaper" xmlns:xlink="http://www.w3.org/1999/xlink" y="0cm"><title>Title</title><desc>Description</desc><path d="M-0.6324600000000018,13.600000000000003 L-1.7763568394002505e-15,13.600000000000003 0.0,19.767540000000004 1.7004366666666666,19.767540000000004 1.7004366666666666,20.400000000000006 3.400873333333333,20.400000000000006 3.400873333333333,19.767540000000004 5.1013100000000025,19.767540000000004 5.1013100000000025,10.200000000000003 5.7337700000000025,10.200000000000003 5.7337700000000025,19.767540000000004 7.434206666666668,19.767540000000004 7.434206666666668,20.400000000000006 9.134643333333335,20.400000000000006 9.134643333333335,19.767540000000004 10.835080000000001,19.767540000000004 10.835080000000003,13.600000000000003 11.467540000000003,13.600000000000003 11.467540000000003,6.8000000000000025 10.835080000000003,6.8000000000000025 10.835080000000001,0.0 0.0,0.0 -1.7763568394002505e-15,6.8000000000000025 -0.6324600000000018,6.8000000000000025 -0.6324600000000018,13.600000000000003" fill="rgb(0,0,0)" shaper:cutDepth="0.006324599999999982" shaper:pathType="exterior" transform="matrix(1,0,0,-1,0.6324600000000018,20.400000000000006)" vector-effect="non-scaling-stroke" /><path d="M3.400873333333333,9.567540000000001 L3.400873333333333,10.200000000000003 1.700436666666663,10.200000000000003 1.7004366666666668,9.567540000000001 3.400873333333333,9.567540000000001" fill="rgb(255,255,255)" shaper:cutDepth="0.006324599999999982" shaper:pathType="interior" stroke="rgb(0,0,0)" stroke-width="2" transform="matrix(1,0,0,-1,0.6324600000000018,20.400000000000006)" vector-effect="non-scaling-stroke" /></svg>