<?xml version="1.0" encoding="utf-8"?>
<!-- Generator: Fusion 360, Shaper Origin Export Add-In, Version 1.0  -->
<svg enable-background="new 0 0 8.064919999999997 5.101310000000001" height="5.101310000000001cm" shaper:fusionaddin="version:1.0" version="1.1" viewBox="0 0 8.064919999999997 5.101310000000001" width="8.064919999999997cm" x="0cm" xml:space="preserve" xmlns="http://www.w3.org/2000/svg" xmlns:shaper="http://www.shapertools.com/namespaces/shaper" xmlns:xlink="http://www.w3.org/1999/xlink" y="0cm"><title>Title</title><desc>Description</desc><path d="M7.432459999999995,3.400873333333333 L7.432459999999995,1.700436666666663 6.799999999999994,1.700436666666663 6.799999999999994,0.0 0.0,0.0 0.0,1.700436666666663 -0.6324600000000018,1.700436666666663 -0.6324600000000018,3.400873333333333 0.0,3.400873333333333 0.0,5.101310000000001 6.799999999999994,5.101310000000001 6.799999999999994,3.400873333333333 7.432459999999995,3.400873333333333" fill="rgb(0,0,0)" shaper:cutDepth="0.006324600000000089" shaper:pathType="exterior" transform="matrix(1,0,0,-1,0.6324600000000018,5.101310000000001)" vector-effect="non-scaling-stroke" /><path d="M 1.7000000000000028 1.7004366666666666 m -0.45000000000000284, 0 a 0.45000000000000284,0.45000000000000284 0 1,0 0.9000000000000057,0 a 0.45000000000000284,0.45000000000000284 0 1,0 -0.9000000000000057,0" fill="rgb(255,255,255)" shaper:cutDepth="0.006324600000000089" shaper:pathType="interior" stroke="rgb(0,0,0)" stroke-width="2" transform="matrix(1,0,0,-1,0.6324600000000018,5.101310000000001)" vector-effect="non-scaling-stroke" /><path d="M 5.099999999999998 1.7004366666666666 m -0.4499999999999993, 0 a 0.4499999999999993,0.4499999999999993 0 1,0 0.8999999999999986,0 a 0.4499999999999993,0.4499999999999993 0 1,0 -0.8999999999999986,0" fill="rgb(255,255,255)" shaper:cutDepth="0.006324600000000089" shaper:pathType="interior" stroke="rgb(0,0,0)" stroke-width="2" transform="matrix(1,0,0,-1,0.6324600000000018,5.101310000000001)" vector-effect="non-scaling-stroke" /><path d="M 5.099999999999994 3.400873333333335 m -0.8999999999999986, 0 a 0.8999999999999986,0.8999999999999986 0 1,0 1.7999999999999972,0 a 0.8999999999999986,0.8999999999999986 0 1,0 -1.7999999999999972,0" fill="rgb(255,255,255)" shaper:cutDepth="0.006324600000000089" shaper:pathType="interior" stroke="rgb(0,0,0)" stroke-width="2" transform="matrix(1,0,0,-1,0.6324600000000018,5.101310000000001)" vector-effect="non-scaling-stroke" /><path d="M 1.7000000000000028 3.400873333333333 m -0.8999999999999986, 0 a 0.8999999999999986,0.8999999999999986 0 1,0 1.7999999999999972,0 a 0.8999999999999986,0.8999999999999986 0 1,0 -1.7999999999999972,0" fill="rgb(255,255,255)" shaper:cutDepth="0.006324600000000089" shaper:pathType="interior" stroke="rgb(0,0,0)" stroke-width="2" transform="matrix(1,0,0,-1,0.6324600000000018,5.101310000000001)" vector-effect="non-scaling-stroke" /><path d="M 3.3999999999999986 1.7004366666666666 m -0.8999999999999986, 0 a 0.8999999999999986,0.8999999999999986 0 1,0 1.7999999999999972,0 a 0.8999999999999986,0.8999999999999986 0 1,0 -1.7999999999999972,0" fill="rgb(255,255,255)" shaper:cutDepth="0.006324600000000089" shaper:pathType="interior" stroke="rgb(0,0,0)" stroke-width="2" transform="matrix(1,0,0,-1,0.6324600000000018,5.101310000000001)" vector-effect="non-scaling-stroke" /><path d="M 3.3999999999999986 3.400873333333333 m -0.4499999999999993, 0 a 0.4499999999999993,0.4499999999999993 0 1,0 0.8999999999999986,0 a 0.4499999999999993,0.4499999999999993 0 1,0 -0.8999999999999986,0" fill="rgb(255,255,255)" shaper:cutDepth="0.006324600000000089" shaper:pathType="interior" stroke="rgb(0,0,0)" stroke-width="2" transform="matrix(1,0,0,-1,0.6324600000000018,5.101310000000001)" vector-effect="non-scaling-stroke" /></svg>