<?xml version="1.0" encoding="utf-8"?>
<!-- Generator: Fusion 360, Shaper Origin Export Add-In, Version 1.0  -->
<svg enable-background="new 0 0 35.9 20.400000000000006" height="20.400000000000006cm" shaper:fusionaddin="version:1.0" version="1.1" viewBox="0 0 35.9 20.400000000000006" width="35.9cm" x="0cm" xml:space="preserve" xmlns="http://www.w3.org/2000/svg" xmlns:shaper="http://www.shapertools.com/namespaces/shaper" xmlns:xlink="http://www.w3.org/1999/xlink" y="0cm"><title>Title</title><desc>Description</desc><path d="M-8.06492,0.63246 L1.7763568394002505e-15,0.63246 1.7763568394002505e-15,0.0 19.77015999999999,0.0 19.770159999999994,0.63246 27.835079999999998,0.63246 27.835079999999998,6.800000000000001 27.202619999999996,6.8000000000000025 27.202619999999996,13.600000000000005 27.835079999999998,13.600000000000001 27.835079999999998,20.400000000000006 19.770159999999997,20.400000000000006 19.77016,17.300000000000004 A1.9999999999999964,1.9999999999999964 0 0,0 17.77016,15.300000000000004 L1.9999999999999998,15.300000000000006 A2.000000000000003,2.000000000000003 0 0,0 2.220446049250313e-15,17.30000000000001 L1.7763568394002505e-15,20.400000000000006 -8.06492,20.400000000000006 -8.06492,13.600000000000001 -7.4324600000000025,13.600000000000003 -7.4324600000000025,6.8000000000000025 -8.06492,6.800000000000001 -8.06492,0.63246" fill="rgb(0,0,0)" shaper:cutDepth="0.006324599999999997" shaper:pathType="exterior" transform="matrix(1,0,0,-1,8.06492,20.400000000000006)" vector-effect="non-scaling-stroke" /><path d="M20.40262,13.600000000000003 L19.770159999999997,13.600000000000001 19.770159999999997,6.800000000000001 20.40262,6.8000000000000025 20.40262,13.600000000000003" fill="rgb(255,255,255)" shaper:cutDepth="0.006324599999999997" shaper:pathType="interior" stroke="rgb(0,0,0)" stroke-width="2" transform="matrix(1,0,0,-1,8.06492,20.400000000000006)" vector-effect="non-scaling-stroke" /><path d="M0.0,13.600000000000003 L-0.6324599999999982,13.600000000000005 -0.6324600000000009,6.8000000000000025 0.0,6.800000000000001 0.0,13.600000000000003" fill="rgb(255,255,255)" shaper:cutDepth="0.006324599999999997" shaper:pathType="interior" stroke="rgb(0,0,0)" stroke-width="2" transform="matrix(1,0,0,-1,8.06492,20.400000000000006)" vector-effect="non-scaling-stroke" /></svg>