<?xml version="1.0" encoding="utf-8"?>
<!-- Generator: Fusion 360, Shaper Origin Export Add-In, Version 1.0  -->
<svg enable-background="new 0 0 19.770159999999997 6.366230000000003" height="6.366230000000003cm" shaper:fusionaddin="version:1.0" version="1.1" viewBox="0 0 19.770159999999997 6.366230000000003" width="19.770159999999997cm" x="0cm" xml:space="preserve" xmlns="http://www.w3.org/2000/svg" xmlns:shaper="http://www.shapertools.com/namespaces/shaper" xmlns:xlink="http://www.w3.org/1999/xlink" y="0cm"><title>Title</title><desc>Description</desc><path d="M6.590053333333337,0.0 L6.590053333333337,0.63246 13.180106666666667,0.63246 13.180106666666667,5.7337700000000025 6.590053333333337,5.7337700000000025 6.590053333333337,6.3662300000000025 1.7407405327098676e-15,6.366230000000003 1.7763568394002505e-15,5.7337700000000025 -6.59005333333333,5.733770000000002 -6.59005333333333,0.63246 1.7763568394002505e-15,0.63246 1.7763568394002505e-15,0.0 6.590053333333337,0.0" fill="rgb(0,0,0)" shaper:cutDepth="0.006324600000000036" shaper:pathType="exterior" transform="matrix(1,0,0,-1,6.59005333333333,6.366230000000003)" vector-effect="non-scaling-stroke" /><path d="M 9.226074666666673 2.3328966666666777 m -0.3000000000000007, 0 a 0.3000000000000007,0.3000000000000007 0 1,0 0.6000000000000014,0 a 0.3000000000000007,0.3000000000000007 0 1,0 -0.6000000000000014,0" fill="rgb(255,255,255)" shaper:cutDepth="0.006324600000000036" shaper:pathType="interior" stroke="rgb(0,0,0)" stroke-width="2" transform="matrix(1,0,0,-1,6.59005333333333,6.366230000000003)" vector-effect="non-scaling-stroke" /><path d="M 5.272042666666675 2.332896666666675 m -0.3000000000000007, 0 a 0.3000000000000007,0.3000000000000007 0 1,0 0.6000000000000014,0 a 0.3000000000000007,0.3000000000000007 0 1,0 -0.6000000000000014,0" fill="rgb(255,255,255)" shaper:cutDepth="0.006324600000000036" shaper:pathType="interior" stroke="rgb(0,0,0)" stroke-width="2" transform="matrix(1,0,0,-1,6.59005333333333,6.366230000000003)" vector-effect="non-scaling-stroke" /><path d="M 1.318010666666673 2.332896666666673 m -0.29999999999999893, 0 a 0.29999999999999893,0.29999999999999893 0 1,0 0.5999999999999979,0 a 0.29999999999999893,0.29999999999999893 0 1,0 -0.5999999999999979,0" fill="rgb(255,255,255)" shaper:cutDepth="0.006324600000000036" shaper:pathType="interior" stroke="rgb(0,0,0)" stroke-width="2" transform="matrix(1,0,0,-1,6.59005333333333,6.366230000000003)" vector-effect="non-scaling-stroke" /><path d="M -2.636021333333325 2.3328966666666697 m -0.3000000000000007, 0 a 0.3000000000000007,0.3000000000000007 0 1,0 0.6000000000000014,0 a 0.3000000000000007,0.3000000000000007 0 1,0 -0.6000000000000014,0" fill="rgb(255,255,255)" shaper:cutDepth="0.006324600000000036" shaper:pathType="interior" stroke="rgb(0,0,0)" stroke-width="2" transform="matrix(1,0,0,-1,6.59005333333333,6.366230000000003)" vector-effect="non-scaling-stroke" /><path d="M -4.613037333333326 2.3328966666666684 m -0.5999999999999996, 0 a 0.5999999999999996,0.5999999999999996 0 1,0 1.1999999999999993,0 a 0.5999999999999996,0.5999999999999996 0 1,0 -1.1999999999999993,0" fill="rgb(255,255,255)" shaper:cutDepth="0.006324600000000036" shaper:pathType="interior" stroke="rgb(0,0,0)" stroke-width="2" transform="matrix(1,0,0,-1,6.59005333333333,6.366230000000003)" vector-effect="non-scaling-stroke" /><path d="M -0.6590053333333259 2.332896666666671 m -0.5999999999999996, 0 a 0.5999999999999996,0.5999999999999996 0 1,0 1.1999999999999993,0 a 0.5999999999999996,0.5999999999999996 0 1,0 -1.1999999999999993,0" fill="rgb(255,255,255)" shaper:cutDepth="0.006324600000000036" shaper:pathType="interior" stroke="rgb(0,0,0)" stroke-width="2" transform="matrix(1,0,0,-1,6.59005333333333,6.366230000000003)" vector-effect="non-scaling-stroke" /><path d="M 3.295026666666672 2.3328966666666737 m -0.5999999999999979, 0 a 0.5999999999999979,0.5999999999999979 0 1,0 1.1999999999999957,0 a 0.5999999999999979,0.5999999999999979 0 1,0 -1.1999999999999957,0" fill="rgb(255,255,255)" shaper:cutDepth="0.006324600000000036" shaper:pathType="interior" stroke="rgb(0,0,0)" stroke-width="2" transform="matrix(1,0,0,-1,6.59005333333333,6.366230000000003)" vector-effect="non-scaling-stroke" /><path d="M 7.249058666666674 2.332896666666677 m -0.6000000000000014, 0 a 0.6000000000000014,0.6000000000000014 0 1,0 1.2000000000000028,0 a 0.6000000000000014,0.6000000000000014 0 1,0 -1.2000000000000028,0" fill="rgb(255,255,255)" shaper:cutDepth="0.006324600000000036" shaper:pathType="interior" stroke="rgb(0,0,0)" stroke-width="2" transform="matrix(1,0,0,-1,6.59005333333333,6.366230000000003)" vector-effect="non-scaling-stroke" /><path d="M 11.203090666666672 2.3328966666666795 m -0.6000000000000014, 0 a 0.6000000000000014,0.6000000000000014 0 1,0 1.2000000000000028,0 a 0.6000000000000014,0.6000000000000014 0 1,0 -1.2000000000000028,0" fill="rgb(255,255,255)" shaper:cutDepth="0.006324600000000036" shaper:pathType="interior" stroke="rgb(0,0,0)" stroke-width="2" transform="matrix(1,0,0,-1,6.59005333333333,6.366230000000003)" vector-effect="non-scaling-stroke" /><path d="M 9.226074666666673 4.033333333333344 m -0.5999999999999979, 0 a 0.5999999999999979,0.5999999999999979 0 1,0 1.1999999999999957,0 a 0.5999999999999979,0.5999999999999979 0 1,0 -1.1999999999999957,0" fill="rgb(255,255,255)" shaper:cutDepth="0.006324600000000036" shaper:pathType="interior" stroke="rgb(0,0,0)" stroke-width="2" transform="matrix(1,0,0,-1,6.59005333333333,6.366230000000003)" vector-effect="non-scaling-stroke" /><path d="M 5.272042666666675 4.033333333333341 m -0.5999999999999979, 0 a 0.5999999999999979,0.5999999999999979 0 1,0 1.1999999999999957,0 a 0.5999999999999979,0.5999999999999979 0 1,0 -1.1999999999999957,0" fill="rgb(255,255,255)" shaper:cutDepth="0.006324600000000036" shaper:pathType="interior" stroke="rgb(0,0,0)" stroke-width="2" transform="matrix(1,0,0,-1,6.59005333333333,6.366230000000003)" vector-effect="non-scaling-stroke" /><path d="M 1.318010666666673 4.0333333333333385 m -0.5999999999999996, 0 a 0.5999999999999996,0.5999999999999996 0 1,0 1.1999999999999993,0 a 0.5999999999999996,0.5999999999999996 0 1,0 -1.1999999999999993,0" fill="rgb(255,255,255)" shaper:cutDepth="0.006324600000000036" shaper:pathType="interior" stroke="rgb(0,0,0)" stroke-width="2" transform="matrix(1,0,0,-1,6.59005333333333,6.366230000000003)" vector-effect="non-scaling-stroke" /><path d="M -2.636021333333325 4.033333333333337 m -0.5999999999999996, 0 a 0.5999999999999996,0.5999999999999996 0 1,0 1.1999999999999993,0 a 0.5999999999999996,0.5999999999999996 0 1,0 -1.1999999999999993,0" fill="rgb(255,255,255)" shaper:cutDepth="0.006324600000000036" shaper:pathType="interior" stroke="rgb(0,0,0)" stroke-width="2" transform="matrix(1,0,0,-1,6.59005333333333,6.366230000000003)" vector-effect="non-scaling-stroke" /><path d="M -4.613037333333326 4.033333333333335 m -0.3000000000000007, 0 a 0.3000000000000007,0.3000000000000007 0 1,0 0.6000000000000014,0 a 0.3000000000000007,0.3000000000000007 0 1,0 -0.6000000000000014,0" fill="rgb(255,255,255)" shaper:cutDepth="0.006324600000000036" shaper:pathType="interior" stroke="rgb(0,0,0)" stroke-width="2" transform="matrix(1,0,0,-1,6.59005333333333,6.366230000000003)" vector-effect="non-scaling-stroke" /><path d="M -0.6590053333333259 4.033333333333338 m -0.3000000000000007, 0 a 0.3000000000000007,0.3000000000000007 0 1,0 0.6000000000000014,0 a 0.3000000000000007,0.3000000000000007 0 1,0 -0.6000000000000014,0" fill="rgb(255,255,255)" shaper:cutDepth="0.006324600000000036" shaper:pathType="interior" stroke="rgb(0,0,0)" stroke-width="2" transform="matrix(1,0,0,-1,6.59005333333333,6.366230000000003)" vector-effect="non-scaling-stroke" /><path d="M 3.295026666666672 4.03333333333334 m -0.3000000000000007, 0 a 0.3000000000000007,0.3000000000000007 0 1,0 0.6000000000000014,0 a 0.3000000000000007,0.3000000000000007 0 1,0 -0.6000000000000014,0" fill="rgb(255,255,255)" shaper:cutDepth="0.006324600000000036" shaper:pathType="interior" stroke="rgb(0,0,0)" stroke-width="2" transform="matrix(1,0,0,-1,6.59005333333333,6.366230000000003)" vector-effect="non-scaling-stroke" /><path d="M 7.249058666666674 4.033333333333342 m -0.3000000000000007, 0 a 0.3000000000000007,0.3000000000000007 0 1,0 0.6000000000000014,0 a 0.3000000000000007,0.3000000000000007 0 1,0 -0.6000000000000014,0" fill="rgb(255,255,255)" shaper:cutDepth="0.006324600000000036" shaper:pathType="interior" stroke="rgb(0,0,0)" stroke-width="2" transform="matrix(1,0,0,-1,6.59005333333333,6.366230000000003)" vector-effect="non-scaling-stroke" /><path d="M 11.203090666666672 4.033333333333345 m -0.29999999999999716, 0 a 0.29999999999999716,0.29999999999999716 0 1,0 0.5999999999999943,0 a 0.29999999999999716,0.29999999999999716 0 1,0 -0.5999999999999943,0" fill="rgb(255,255,255)" shaper:cutDepth="0.006324600000000036" shaper:pathType="interior" stroke="rgb(0,0,0)" stroke-width="2" transform="matrix(1,0,0,-1,6.59005333333333,6.366230000000003)" vector-effect="non-scaling-stroke" /></svg>