<?xml version="1.0" encoding="utf-8"?>
<!-- Generator: Fusion 360, Shaper Origin Export Add-In, Version 1.0  -->
<svg enable-background="new 0 0 12.100000000000001 20.400000000000006" height="20.400000000000006cm" shaper:fusionaddin="version:1.0" version="1.1" viewBox="0 0 12.100000000000001 20.400000000000006" width="12.100000000000001cm" x="0cm" xml:space="preserve" xmlns="http://www.w3.org/2000/svg" xmlns:shaper="http://www.shapertools.com/namespaces/shaper" xmlns:xlink="http://www.w3.org/1999/xlink" y="0cm"><title>Title</title><desc>Description</desc><path d="M-0.6324600000000018,6.1675400000000025 L0.0,6.1675400000000025 0.0,0.0 10.835080000000001,0.0 10.835079999999998,6.1675400000000025 11.46754,6.1675400000000025 11.46754,12.967540000000003 10.835079999999998,12.967540000000003 10.835080000000001,19.767540000000004 7.434206666666666,19.767540000000004 7.434206666666666,20.400000000000006 3.400873333333333,20.400000000000006 3.400873333333333,19.767540000000004 0.0,19.767540000000004 0.0,12.967540000000003 -0.6324600000000018,12.967540000000003 -0.6324600000000018,6.1675400000000025" fill="rgb(0,0,0)" shaper:cutDepth="0.0063246000000000005" shaper:pathType="exterior" transform="matrix(1,0,0,-1,0.6324600000000018,20.400000000000006)" vector-effect="non-scaling-stroke" /><path d="M2.787539999999998,3.799999999999997 A1.0000000000000009,1.0000000000000009 0 0,1 1.7875399999999977,2.7999999999999963 L1.78754,2.2666666666666657 A0.9999999999999991,0.9999999999999991 0 0,1 2.787539999999998,1.2666666666666675 L8.04754,1.2666666666666657 A1.0000000000000013,1.0000000000000013 0 0,1 9.047540000000001,2.2666666666666666 L9.047539999999998,2.8000000000000007 A0.9999999999999947,0.9999999999999947 0 0,1 8.047540000000001,3.7999999999999967 L2.787539999999998,3.799999999999997" fill="rgb(255,255,255)" shaper:cutDepth="0.0063246000000000005" shaper:pathType="interior" stroke="rgb(0,0,0)" stroke-width="2" transform="matrix(1,0,0,-1,0.6324600000000018,20.400000000000006)" vector-effect="non-scaling-stroke" /></svg>