<?xml version="1.0" encoding="UTF-8" standalone="no"?>
<!-- Created with Inkscape (http://www.inkscape.org/) -->

<svg
   xmlns:shaper="http://www.shapertools.com/namespaces/shaper"
   xmlns:dc="http://purl.org/dc/elements/1.1/"
   xmlns:cc="http://creativecommons.org/ns#"
   xmlns:rdf="http://www.w3.org/1999/02/22-rdf-syntax-ns#"
   xmlns:svg="http://www.w3.org/2000/svg"
   xmlns="http://www.w3.org/2000/svg"
   xmlns:sodipodi="http://sodipodi.sourceforge.net/DTD/sodipodi-0.dtd"
   xmlns:inkscape="http://www.inkscape.org/namespaces/inkscape"
   width="23.5in"
   height="11.75in"
   viewBox="0 0 596.90001 298.45001"
   version="1.1"
   id="svg8"
   inkscape:version="0.92.2 5c3e80d, 2017-08-06"
   sodipodi:docname="talenti_tray_flat_2.svg">
  <defs
     id="defs2" />
  <sodipodi:namedview
     id="base"
     pagecolor="#ffffff"
     bordercolor="#666666"
     borderopacity="1.0"
     inkscape:pageopacity="0.0"
     inkscape:pageshadow="2"
     inkscape:zoom="0.35"
     inkscape:cx="1252.8571"
     inkscape:cy="560"
     inkscape:document-units="mm"
     inkscape:current-layer="layer1"
     showgrid="false"
     units="in"
     inkscape:window-width="1680"
     inkscape:window-height="1006"
     inkscape:window-x="0"
     inkscape:window-y="0"
     inkscape:window-maximized="1" />
  <metadata
     id="metadata5">
    <rdf:RDF>
      <cc:Work
         rdf:about="">
        <dc:format>image/svg+xml</dc:format>
        <dc:type
           rdf:resource="http://purl.org/dc/dcmitype/StillImage" />
        <dc:title></dc:title>
      </cc:Work>
    </rdf:RDF>
  </metadata>
  <g
     inkscape:label="Layer 1"
     inkscape:groupmode="layer"
     id="layer1"
     transform="translate(0,1.4500168)">
    <g
       id="g711"
       transform="matrix(0,9.9999999,-9.9999999,0,594.62715,0.54328023)">
      <path
         id="path664"
         transform="matrix(1,0,0,-1,7.3659998,38.73754)"
         shaper:pathType="exterior"
         shaper:cutDepth="0.006324599999999949"
         d="M 22.098,12.490873 H 21.46554 L 21.465541,0 18.415,-4.012979e-8 V -0.63246 H 14.732 V 0 L 0,-2.8237877e-7 V -0.63246 H -3.683 V -3.3082857e-7 L -6.7335395,-3.7095836e-7 -6.7335397,12.490873 h -0.63246 l -1e-7,13.123333 h 0.63246 l -2e-7,12.490874 H -3.683 v 0.63246 H 0 v -0.63246 h 14.732 v 0.63246 h 3.683 v -0.63246 h 3.05054 V 25.614206 H 22.098 V 12.490873"
         inkscape:connector-curvature="0"
         style="vector-effect:non-scaling-stroke;fill:#000000" />
      <path
         id="path666"
         transform="matrix(1,0,0,-1,7.3659998,38.73754)"
         shaper:pathType="interior"
         shaper:cutDepth="0.006324599999999949"
         d="m -1.84277,5.081016 m -4.318,0 a 4.318,4.318 0 1 0 8.636,0 4.318,4.318 0 1 0 -8.636,0"
         inkscape:connector-curvature="0"
         style="vector-effect:non-scaling-stroke;fill:#ffffff;stroke:#000000;stroke-width:2" />
      <path
         id="path668"
         transform="matrix(1,0,0,-1,7.3659998,38.73754)"
         shaper:pathType="interior"
         shaper:cutDepth="0.006324599999999949"
         d="m 7.366,14.395365 m -4.318,0 a 4.318,4.318 0 1 0 8.636,0 4.318,4.318 0 1 0 -8.636,0"
         inkscape:connector-curvature="0"
         style="vector-effect:non-scaling-stroke;fill:#ffffff;stroke:#000000;stroke-width:2" />
      <path
         id="path670"
         transform="matrix(1,0,0,-1,7.3659998,38.73754)"
         shaper:pathType="interior"
         shaper:cutDepth="0.006324599999999949"
         d="m 16.57477,23.709715 m -4.318,0 a 4.318,4.318 0 1 0 8.636,0 4.318,4.318 0 1 0 -8.636,0"
         inkscape:connector-curvature="0"
         style="vector-effect:non-scaling-stroke;fill:#ffffff;stroke:#000000;stroke-width:2" />
      <path
         id="path672"
         transform="matrix(1,0,0,-1,7.3659998,38.73754)"
         shaper:pathType="interior"
         shaper:cutDepth="0.006324599999999949"
         d="m 16.57477,33.024064 m -4.318,0 a 4.318,4.318 0 1 0 8.636,0 4.318,4.318 0 1 0 -8.636,0"
         inkscape:connector-curvature="0"
         style="vector-effect:non-scaling-stroke;fill:#ffffff;stroke:#000000;stroke-width:2" />
      <path
         id="path674"
         transform="matrix(1,0,0,-1,7.3659998,38.73754)"
         shaper:pathType="interior"
         shaper:cutDepth="0.006324599999999949"
         d="m 7.366,23.709715 m -4.318,0 a 4.318,4.318 0 1 0 8.636,0 4.318,4.318 0 1 0 -8.636,0"
         inkscape:connector-curvature="0"
         style="vector-effect:non-scaling-stroke;fill:#ffffff;stroke:#000000;stroke-width:2" />
      <path
         id="path676"
         transform="matrix(1,0,0,-1,7.3659998,38.73754)"
         shaper:pathType="interior"
         shaper:cutDepth="0.006324599999999949"
         d="m -1.84277,14.395365 m -4.318,0 a 4.318,4.318 0 1 0 8.636,0 4.318,4.318 0 1 0 -8.636,0"
         inkscape:connector-curvature="0"
         style="vector-effect:non-scaling-stroke;fill:#ffffff;stroke:#000000;stroke-width:2" />
      <path
         id="path678"
         transform="matrix(1,0,0,-1,7.3659998,38.73754)"
         shaper:pathType="interior"
         shaper:cutDepth="0.006324599999999949"
         d="m 7.366,5.081016 m -4.318,0 a 4.318,4.318 0 1 0 8.636,0 4.318,4.318 0 1 0 -8.636,0"
         inkscape:connector-curvature="0"
         style="vector-effect:non-scaling-stroke;fill:#ffffff;stroke:#000000;stroke-width:2" />
      <path
         id="path680"
         transform="matrix(1,0,0,-1,7.3659998,38.73754)"
         shaper:pathType="interior"
         shaper:cutDepth="0.006324599999999949"
         d="m 16.57477,14.395365 m -4.318,0 a 4.318,4.318 0 1 0 8.636,0 4.318,4.318 0 1 0 -8.636,0"
         inkscape:connector-curvature="0"
         style="vector-effect:non-scaling-stroke;fill:#ffffff;stroke:#000000;stroke-width:2" />
      <path
         id="path682"
         transform="matrix(1,0,0,-1,7.3659998,38.73754)"
         shaper:pathType="interior"
         shaper:cutDepth="0.006324599999999949"
         d="m -1.84277,33.024064 m -4.318,0 a 4.318,4.318 0 1 0 8.636,0 4.318,4.318 0 1 0 -8.636,0"
         inkscape:connector-curvature="0"
         style="vector-effect:non-scaling-stroke;fill:#ffffff;stroke:#000000;stroke-width:2" />
      <path
         id="path684"
         transform="matrix(1,0,0,-1,7.3659998,38.73754)"
         shaper:pathType="interior"
         shaper:cutDepth="0.006324599999999949"
         d="m 7.366,33.024064 m -4.318,0 a 4.318,4.318 0 1 0 8.636,0 4.318,4.318 0 1 0 -8.636,0"
         inkscape:connector-curvature="0"
         style="vector-effect:non-scaling-stroke;fill:#ffffff;stroke:#000000;stroke-width:2" />
      <path
         id="path686"
         transform="matrix(1,0,0,-1,7.3659998,38.73754)"
         shaper:pathType="interior"
         shaper:cutDepth="0.006324599999999949"
         d="m -1.84277,23.709715 m -4.318,0 a 4.318,4.318 0 1 0 8.636,0 4.318,4.318 0 1 0 -8.636,0"
         inkscape:connector-curvature="0"
         style="vector-effect:non-scaling-stroke;fill:#ffffff;stroke:#000000;stroke-width:2" />
      <path
         id="path688"
         transform="matrix(1,0,0,-1,7.3659998,38.73754)"
         shaper:pathType="interior"
         shaper:cutDepth="0.006324599999999949"
         d="m 16.57477,5.081016 m -4.318,0 a 4.318,4.318 0 1 0 8.636,0 4.318,4.318 0 1 0 -8.636,0"
         inkscape:connector-curvature="0"
         style="vector-effect:non-scaling-stroke;fill:#ffffff;stroke:#000000;stroke-width:2" />
    </g>
  </g>
</svg>
