<?xml version="1.0" encoding="utf-8"?>
<!-- Generator: Adobe Illustrator 22.0.1, SVG Export Plug-In . SVG Version: 6.00 Build 0)  -->
<svg version="1.1" id="Layer_1" xmlns="http://www.w3.org/2000/svg" xmlns:xlink="http://www.w3.org/1999/xlink" x="0px" y="0px"
	 viewBox="0 0 1728 1296" style="enable-background:new 0 0 1728 1296;" xml:space="preserve">
<style type="text/css">
	.st0{fill:none;stroke:#FF0000;stroke-width:0.127;}
	.st1{fill:none;stroke:#FF0000;stroke-width:1.270000e-02;}
</style>
<g>
	
		<sodipodi:namedview  bordercolor="#666666" borderopacity="1.0" id="base" inkscape:current-layer="layer1" inkscape:cx="282.78412" inkscape:cy="1027.907" inkscape:document-units="mm" inkscape:pageopacity="0.0" inkscape:pageshadow="2" inkscape:window-height="1006" inkscape:window-maximized="1" inkscape:window-width="1680" inkscape:window-x="0" inkscape:window-y="0" inkscape:zoom="0.35" pagecolor="#ffffff" showgrid="false" units="in">
		</sodipodi:namedview>
	<g id="layer1_1_" transform="translate(0,134.80002)" inkscape:groupmode="layer" inkscape:label="Layer 1">
		
			<path id="path4209_1_" inkscape:connector-curvature="0" shaper:cutDepth="0.006324600000000018" shaper:pathType="exterior" class="st0" d="
			M827,1027.2v-105l17.1,0l17.9,0v-23.4c0-16.3-10.9-30.6-26.7-34.8l-297.7-79.8c-15.7-4.2-26.7-18.5-26.7-34.8l0-72
			c0-16.3,10.9-30.6,26.7-34.8l297.7-79.8c15.7-4.2,26.7-18.5,26.7-34.8v-22.8l-17.5,0l-17.5,0l0-105l36,0v-104l-48,0v18l-48,0v-18
			l-48,0v181.1c0,16.3-10.9,30.6-26.7,34.8L457.7,575c-15.7,4.2-26.7,18.5-26.7,34.8v208c0,16.3,10.9,30.6,26.7,34.8l234.6,62.9
			c15.7,4.2,26.7,18.5,26.7,34.8v181.1l48,0v-18l48,0v18l48,0l0-104H827"/>
		
			<path id="path4271_1_" inkscape:connector-curvature="0" shaper:cutDepth="0.0063246000000000005" shaper:pathType="exterior" class="st0" d="
			M519,922.2l0-23.2c0-16.3-10.9-30.6-26.7-34.8l-297.6-79.8c-15.7-4.2-26.7-18.5-26.7-34.8l0-71.9c0-16.3,10.9-30.6,26.7-34.8
			l297.6-79.8c15.7-4.2,26.7-18.5,26.7-34.8v-23.3l-18,0l-18,0l0-105l36,0l0-104l-48,0v18l-48,0v-18l-48,0v181.2
			c0,16.3-10.9,30.6-26.7,34.8L113.7,575C97.9,579.2,87,593.5,87,609.8v208c0,16.3,10.9,30.6,26.7,34.8l234.6,62.9
			c15.7,4.2,26.7,18.5,26.7,34.8v181l48,0v-18l48,0v18l48,0l0-104l-36,0l0-104l18,0l18,0"/>
		<g id="g4495_1_" transform="matrix(9.9999999,0,0,9.9999999,288.71246,-97.893832)">
			
				<path id="path4448_1_" inkscape:connector-curvature="0" shaper:cutDepth="0.006324599999999949" shaper:pathType="exterior" class="st1" d="
				M142.5,87.4h-1.8v35.4h-8.6v1.8h-10.4v-1.8H79.9v1.8H69.5v-1.8h-8.7V87.4H59V50.2h1.8V14.8h8.7V13h10.4v1.8h41.8V13h10.4v1.8h8.6
				v35.4h1.8V87.4"/>
			
				<path id="path4450_1_" inkscape:connector-curvature="0" shaper:cutDepth="0.006324599999999949" shaper:pathType="interior" class="st1" d="
				M62.5,108.4c0-6.8,5.5-12.2,12.2-12.2s12.2,5.5,12.2,12.2s-5.5,12.2-12.2,12.2S62.5,115.1,62.5,108.4"/>
			
				<path id="path4452_1_" inkscape:connector-curvature="0" shaper:cutDepth="0.006324599999999949" shaper:pathType="interior" class="st1" d="
				M88.6,82c0-6.8,5.5-12.2,12.2-12.2S113,75.2,113,82s-5.5,12.2-12.2,12.2S88.6,88.7,88.6,82"/>
			
				<path id="path4454_1_" inkscape:connector-curvature="0" shaper:cutDepth="0.006324599999999949" shaper:pathType="interior" class="st1" d="
				M114.6,55.6c0-6.8,5.5-12.2,12.2-12.2c6.8,0,12.2,5.5,12.2,12.2c0,0,0,0,0,0c0,6.8-5.5,12.2-12.2,12.2
				C120.1,67.8,114.6,62.3,114.6,55.6"/>
			
				<path id="path4456_1_" inkscape:connector-curvature="0" shaper:cutDepth="0.006324599999999949" shaper:pathType="interior" class="st1" d="
				M114.6,29.2c0-6.8,5.5-12.2,12.2-12.2c6.8,0,12.2,5.5,12.2,12.2c0,0,0,0,0,0c0,6.8-5.5,12.2-12.2,12.2
				C120.1,41.4,114.6,35.9,114.6,29.2"/>
			
				<path id="path4458_1_" inkscape:connector-curvature="0" shaper:cutDepth="0.006324599999999949" shaper:pathType="interior" class="st1" d="
				M88.6,55.6c0-6.8,5.5-12.2,12.2-12.2S113,48.8,113,55.6l0,0c0,6.8-5.5,12.2-12.2,12.2S88.6,62.3,88.6,55.6"/>
			
				<path id="path4460_1_" inkscape:connector-curvature="0" shaper:cutDepth="0.006324599999999949" shaper:pathType="interior" class="st1" d="
				M62.5,82c0-6.8,5.5-12.2,12.2-12.2S86.9,75.2,86.9,82s-5.5,12.2-12.2,12.2S62.5,88.7,62.5,82"/>
			
				<path id="path4462_1_" inkscape:connector-curvature="0" shaper:cutDepth="0.006324599999999949" shaper:pathType="interior" class="st1" d="
				M88.6,108.4c0-6.8,5.5-12.2,12.2-12.2s12.2,5.5,12.2,12.2s-5.5,12.2-12.2,12.2S88.6,115.1,88.6,108.4"/>
			
				<path id="path4464_1_" inkscape:connector-curvature="0" shaper:cutDepth="0.006324599999999949" shaper:pathType="interior" class="st1" d="
				M114.6,82c0-6.8,5.5-12.2,12.2-12.2c6.8,0,12.2,5.5,12.2,12.2c0,0,0,0,0,0c0,6.8-5.5,12.2-12.2,12.2
				C120.1,94.2,114.6,88.7,114.6,82"/>
			
				<path id="path4466_1_" inkscape:connector-curvature="0" shaper:cutDepth="0.006324599999999949" shaper:pathType="interior" class="st1" d="
				M62.5,29.2c0-6.8,5.5-12.2,12.2-12.2s12.2,5.5,12.2,12.2s-5.5,12.2-12.2,12.2S62.5,35.9,62.5,29.2"/>
			
				<path id="path4468_1_" inkscape:connector-curvature="0" shaper:cutDepth="0.006324599999999949" shaper:pathType="interior" class="st1" d="
				M88.6,29.2c0-6.8,5.5-12.2,12.2-12.2S113,22.4,113,29.2s-5.5,12.2-12.2,12.2S88.6,35.9,88.6,29.2"/>
			
				<path id="path4470_1_" inkscape:connector-curvature="0" shaper:cutDepth="0.006324599999999949" shaper:pathType="interior" class="st1" d="
				M62.5,55.6c0-6.8,5.5-12.2,12.2-12.2s12.2,5.5,12.2,12.2l0,0c0,6.8-5.5,12.2-12.2,12.2S62.5,62.3,62.5,55.6"/>
			
				<path id="path4472_1_" inkscape:connector-curvature="0" shaper:cutDepth="0.006324599999999949" shaper:pathType="interior" class="st1" d="
				M114.6,108.4c0-6.8,5.5-12.2,12.2-12.2c6.8,0,12.2,5.5,12.2,12.2c0,0,0,0,0,0c0,6.8-5.5,12.2-12.2,12.2
				C120.1,120.6,114.6,115.1,114.6,108.4"/>
		</g>
	</g>
</g>
</svg>
