<?xml version="1.0" encoding="UTF-8" standalone="no"?>
<svg
   xmlns:shaper="http://www.shapertools.com/namespaces/shaper"
   xmlns:dc="http://purl.org/dc/elements/1.1/"
   xmlns:cc="http://creativecommons.org/ns#"
   xmlns:rdf="http://www.w3.org/1999/02/22-rdf-syntax-ns#"
   xmlns:svg="http://www.w3.org/2000/svg"
   xmlns="http://www.w3.org/2000/svg"
   id="svg8"
   version="1.1"
   viewBox="0 0 596.90001 298.45001"
   height="11.75in"
   width="23.5in">
  <defs
     id="defs2" />
  <metadata
     id="metadata5">
    <rdf:RDF>
      <cc:Work
         rdf:about="">
        <dc:format>image/svg+xml</dc:format>
        <dc:type
           rdf:resource="http://purl.org/dc/dcmitype/StillImage" />
        <dc:title></dc:title>
      </cc:Work>
    </rdf:RDF>
  </metadata>
  <g
     transform="translate(0,1.4500168)"
     id="layer1">
    <g
       transform="matrix(0,9.9999999,-9.9999999,0,594.62715,0.54328023)"
       id="g711">
      <path
         style="vector-effect:non-scaling-stroke;fill:#000000"
         d="M 22.098,12.490873 H 21.46554 L 21.465541,0 18.415,-4.012979e-8 V -0.63246 H 14.732 V 0 L 0,-2.8237877e-7 V -0.63246 H -3.683 V -3.3082857e-7 L -6.7335395,-3.7095836e-7 -6.7335397,12.490873 h -0.63246 l -1e-7,13.123333 h 0.63246 l -2e-7,12.490874 H -3.683 v 0.63246 H 0 v -0.63246 h 14.732 v 0.63246 h 3.683 v -0.63246 h 3.05054 V 25.614206 H 22.098 V 12.490873"
         shaper:cutDepth="0.006324599999999949"
         shaper:pathType="exterior"
         transform="matrix(1,0,0,-1,7.3659998,38.73754)"
         id="path664" />
      <path
         style="vector-effect:non-scaling-stroke;fill:#ffffff;stroke:#000000;stroke-width:2"
         d="m -1.84277,5.081016 m -4.318,0 a 4.318,4.318 0 1 0 8.636,0 4.318,4.318 0 1 0 -8.636,0"
         shaper:cutDepth="0.006324599999999949"
         shaper:pathType="interior"
         transform="matrix(1,0,0,-1,7.3659998,38.73754)"
         id="path666" />
      <path
         style="vector-effect:non-scaling-stroke;fill:#ffffff;stroke:#000000;stroke-width:2"
         d="m 7.366,14.395365 m -4.318,0 a 4.318,4.318 0 1 0 8.636,0 4.318,4.318 0 1 0 -8.636,0"
         shaper:cutDepth="0.006324599999999949"
         shaper:pathType="interior"
         transform="matrix(1,0,0,-1,7.3659998,38.73754)"
         id="path668" />
      <path
         style="vector-effect:non-scaling-stroke;fill:#ffffff;stroke:#000000;stroke-width:2"
         d="m 16.57477,23.709715 m -4.318,0 a 4.318,4.318 0 1 0 8.636,0 4.318,4.318 0 1 0 -8.636,0"
         shaper:cutDepth="0.006324599999999949"
         shaper:pathType="interior"
         transform="matrix(1,0,0,-1,7.3659998,38.73754)"
         id="path670" />
      <path
         style="vector-effect:non-scaling-stroke;fill:#ffffff;stroke:#000000;stroke-width:2"
         d="m 16.57477,33.024064 m -4.318,0 a 4.318,4.318 0 1 0 8.636,0 4.318,4.318 0 1 0 -8.636,0"
         shaper:cutDepth="0.006324599999999949"
         shaper:pathType="interior"
         transform="matrix(1,0,0,-1,7.3659998,38.73754)"
         id="path672" />
      <path
         style="vector-effect:non-scaling-stroke;fill:#ffffff;stroke:#000000;stroke-width:2"
         d="m 7.366,23.709715 m -4.318,0 a 4.318,4.318 0 1 0 8.636,0 4.318,4.318 0 1 0 -8.636,0"
         shaper:cutDepth="0.006324599999999949"
         shaper:pathType="interior"
         transform="matrix(1,0,0,-1,7.3659998,38.73754)"
         id="path674" />
      <path
         style="vector-effect:non-scaling-stroke;fill:#ffffff;stroke:#000000;stroke-width:2"
         d="m -1.84277,14.395365 m -4.318,0 a 4.318,4.318 0 1 0 8.636,0 4.318,4.318 0 1 0 -8.636,0"
         shaper:cutDepth="0.006324599999999949"
         shaper:pathType="interior"
         transform="matrix(1,0,0,-1,7.3659998,38.73754)"
         id="path676" />
      <path
         style="vector-effect:non-scaling-stroke;fill:#ffffff;stroke:#000000;stroke-width:2"
         d="m 7.366,5.081016 m -4.318,0 a 4.318,4.318 0 1 0 8.636,0 4.318,4.318 0 1 0 -8.636,0"
         shaper:cutDepth="0.006324599999999949"
         shaper:pathType="interior"
         transform="matrix(1,0,0,-1,7.3659998,38.73754)"
         id="path678" />
      <path
         style="vector-effect:non-scaling-stroke;fill:#ffffff;stroke:#000000;stroke-width:2"
         d="m 16.57477,14.395365 m -4.318,0 a 4.318,4.318 0 1 0 8.636,0 4.318,4.318 0 1 0 -8.636,0"
         shaper:cutDepth="0.006324599999999949"
         shaper:pathType="interior"
         transform="matrix(1,0,0,-1,7.3659998,38.73754)"
         id="path680" />
      <path
         style="vector-effect:non-scaling-stroke;fill:#ffffff;stroke:#000000;stroke-width:2"
         d="m -1.84277,33.024064 m -4.318,0 a 4.318,4.318 0 1 0 8.636,0 4.318,4.318 0 1 0 -8.636,0"
         shaper:cutDepth="0.006324599999999949"
         shaper:pathType="interior"
         transform="matrix(1,0,0,-1,7.3659998,38.73754)"
         id="path682" />
      <path
         style="vector-effect:non-scaling-stroke;fill:#ffffff;stroke:#000000;stroke-width:2"
         d="m 7.366,33.024064 m -4.318,0 a 4.318,4.318 0 1 0 8.636,0 4.318,4.318 0 1 0 -8.636,0"
         shaper:cutDepth="0.006324599999999949"
         shaper:pathType="interior"
         transform="matrix(1,0,0,-1,7.3659998,38.73754)"
         id="path684" />
      <path
         style="vector-effect:non-scaling-stroke;fill:#ffffff;stroke:#000000;stroke-width:2"
         d="m -1.84277,23.709715 m -4.318,0 a 4.318,4.318 0 1 0 8.636,0 4.318,4.318 0 1 0 -8.636,0"
         shaper:cutDepth="0.006324599999999949"
         shaper:pathType="interior"
         transform="matrix(1,0,0,-1,7.3659998,38.73754)"
         id="path686" />
      <path
         style="vector-effect:non-scaling-stroke;fill:#ffffff;stroke:#000000;stroke-width:2"
         d="m 16.57477,5.081016 m -4.318,0 a 4.318,4.318 0 1 0 8.636,0 4.318,4.318 0 1 0 -8.636,0"
         shaper:cutDepth="0.006324599999999949"
         shaper:pathType="interior"
         transform="matrix(1,0,0,-1,7.3659998,38.73754)"
         id="path688" />
    </g>
  </g>
</svg>
