<?xml version="1.0" encoding="utf-8"?>
<!-- Generator: Adobe Illustrator 22.0.1, SVG Export Plug-In . SVG Version: 6.00 Build 0)  -->
<svg version="1.1" id="Layer_1" xmlns="http://www.w3.org/2000/svg" xmlns:xlink="http://www.w3.org/1999/xlink" x="0px" y="0px"
	 viewBox="0 0 1728 1296" style="enable-background:new 0 0 1728 1296;" xml:space="preserve">
<style type="text/css">
	.st0{fill:none;stroke:#FF0000;stroke-width:0.127;}
</style>
<g>
	
		<sodipodi:namedview  bordercolor="#666666" borderopacity="1.0" id="base" inkscape:current-layer="layer1" inkscape:cx="855.71403" inkscape:cy="877.35611" inkscape:document-units="mm" inkscape:pageopacity="0.0" inkscape:pageshadow="2" inkscape:window-height="1006" inkscape:window-maximized="1" inkscape:window-width="1680" inkscape:window-x="0" inkscape:window-y="0" inkscape:zoom="0.49497475" pagecolor="#ffffff" showgrid="false" units="in">
		</sodipodi:namedview>
	<g id="layer1_1_" transform="translate(0,134.80002)" inkscape:groupmode="layer" inkscape:label="Layer 1">
		
			<path id="path4666_1_" inkscape:connector-curvature="0" shaper:cutDepth="0.0063246000000000005" shaper:pathType="exterior" class="st0" d="
			M781,1027.2v-18h86v-354h18v-372h-18v-354h-86v-18H676v18H258v-18H154v18H68v354H50v372h18v354h86v18h104v-18h418v18H781"/>
		
			<path id="path4681_1_" inkscape:connector-curvature="0" shaper:cutDepth="0.0063246000000000005" shaper:pathType="exterior" class="st0" d="
			M1036,1007.2h48v18h48v-18h48v-1080h-48v-18h-48v18h-12.1h-17.9H1036v354h18h18v372h-18h-18V1007.2"/>
		
			<path id="path4696_1_" inkscape:connector-curvature="0" shaper:cutDepth="0.00632460000000002" shaper:pathType="exterior" class="st0" d="
			M907,653.2h-18v354h48v18h48v-18h48v-1080h-48v-18h-48v18h-48v354h18h18v372H907"/>
	</g>
</g>
</svg>
