<?xml version="1.0" encoding="UTF-8" standalone="no"?>
<!-- Created with Inkscape (http://www.inkscape.org/) -->

<svg
   xmlns:shaper="http://www.shapertools.com/namespaces/shaper"
   xmlns:dc="http://purl.org/dc/elements/1.1/"
   xmlns:cc="http://creativecommons.org/ns#"
   xmlns:rdf="http://www.w3.org/1999/02/22-rdf-syntax-ns#"
   xmlns:svg="http://www.w3.org/2000/svg"
   xmlns="http://www.w3.org/2000/svg"
   xmlns:sodipodi="http://sodipodi.sourceforge.net/DTD/sodipodi-0.dtd"
   xmlns:inkscape="http://www.inkscape.org/namespaces/inkscape"
   width="23.5in"
   height="5.25in"
   viewBox="0 0 596.90001 133.35"
   version="1.1"
   id="svg8"
   inkscape:version="0.92.2 5c3e80d, 2017-08-06"
   sodipodi:docname="systainer_dogs_flat_2.svg">
  <defs
     id="defs2" />
  <sodipodi:namedview
     id="base"
     pagecolor="#ffffff"
     bordercolor="#666666"
     borderopacity="1.0"
     inkscape:pageopacity="0.0"
     inkscape:pageshadow="2"
     inkscape:zoom="0.3344501"
     inkscape:cx="741.98028"
     inkscape:cy="228.57143"
     inkscape:document-units="mm"
     inkscape:current-layer="layer1"
     showgrid="false"
     units="in"
     inkscape:window-width="1680"
     inkscape:window-height="1006"
     inkscape:window-x="0"
     inkscape:window-y="0"
     inkscape:window-maximized="1" />
  <metadata
     id="metadata5">
    <rdf:RDF>
      <cc:Work
         rdf:about="">
        <dc:format>image/svg+xml</dc:format>
        <dc:type
           rdf:resource="http://purl.org/dc/dcmitype/StillImage" />
        <dc:title></dc:title>
      </cc:Work>
    </rdf:RDF>
  </metadata>
  <g
     inkscape:label="Layer 1"
     inkscape:groupmode="layer"
     id="layer1"
     transform="translate(0,-163.64998)">
    <g
       id="g233"
       transform="matrix(10,0,0,10,2.4641325,167.5254)">
      <path
         id="path207"
         transform="matrix(1,0,0,-1,3.2,10.25)"
         shaper:pathType="exterior"
         shaper:cutDepth="0.0063246000000000005"
         d="M 6.4,10.25 H -1.1638593 A 0.2,0.2 0 0 1 -1.3619477,10.077586 1.25,1.25 0 0 0 -2.4275862,9.0119477 0.2,0.2 0 0 1 -2.6,8.8138593 V 5 H -3 A 0.2,0.2 0 0 1 -3.2,4.8 V 0.63246 H 0 V 0 h 21.9 v 0.63246 h 3.2 L 25.1,8.8 A 0.2,0.2 0 0 1 24.9,9 h -6.8 v 1.05 a 0.2,0.2 0 0 1 -0.2,0.2 H 7.03246 V 7.0441667 H 6.4 Z"
         inkscape:connector-curvature="0"
         style="vector-effect:non-scaling-stroke;fill:#000000" />
      <path
         id="path209"
         transform="matrix(1,0,0,-1,3.2,10.25)"
         shaper:pathType="interior"
         shaper:cutDepth="0.0063246000000000005"
         d="m -0.6,2.63246 a 1,1 0 1 0 2,0 1,1 0 1 0 -2,0 z"
         inkscape:connector-curvature="0"
         style="vector-effect:non-scaling-stroke;fill:#ffffff;stroke:#000000;stroke-width:2" />
      <path
         id="path211"
         transform="matrix(1,0,0,-1,3.2,10.25)"
         shaper:pathType="interior"
         shaper:cutDepth="0.0063246000000000005"
         d="m 2.4,7.88246 a 1,1 0 1 0 2,0 1,1 0 1 0 -2,0 z"
         inkscape:connector-curvature="0"
         style="vector-effect:non-scaling-stroke;fill:#ffffff;stroke:#000000;stroke-width:2" />
      <path
         id="path213"
         transform="matrix(1,0,0,-1,3.2,10.25)"
         shaper:pathType="interior"
         shaper:cutDepth="0.0063246000000000005"
         d="m 2.4,4.38246 a 1,1 0 1 0 2,0 1,1 0 1 0 -2,0 z"
         inkscape:connector-curvature="0"
         style="vector-effect:non-scaling-stroke;fill:#ffffff;stroke:#000000;stroke-width:2" />
      <path
         id="path215"
         transform="matrix(1,0,0,-1,3.2,10.25)"
         shaper:pathType="interior"
         shaper:cutDepth="0.0063246000000000005"
         d="m -0.6,6.13246 a 1,1 0 1 0 2,0 1,1 0 1 0 -2,0 z"
         inkscape:connector-curvature="0"
         style="vector-effect:non-scaling-stroke;fill:#ffffff;stroke:#000000;stroke-width:2" />
      <path
         id="path217"
         transform="matrix(1,0,0,-1,3.2,10.25)"
         shaper:pathType="interior"
         shaper:cutDepth="0.0063246000000000005"
         d="M 7.03246,3.8383333 H 6.4 V 0.63246 h 0.63246 z"
         inkscape:connector-curvature="0"
         style="vector-effect:non-scaling-stroke;fill:#ffffff;stroke:#000000;stroke-width:2" />
    </g>
    <g
       id="g194"
       transform="matrix(10,0,0,10,294.83406,248.42797)">
      <path
         id="path180"
         transform="matrix(1,0,0,-1,0,4.63246)"
         shaper:pathType="exterior"
         shaper:cutDepth="0.006324600000000018"
         d="M 17.373333,3.36754 V 4 H 5.4633 V 4.63246 H 0 V 0 H 28.3 V 4.63246 H 22.836667 V 3.36754 Z"
         inkscape:connector-curvature="0"
         style="vector-effect:non-scaling-stroke;fill:#000000" />
      <path
         id="path182"
         transform="matrix(1,0,0,-1,0,4.63246)"
         shaper:pathType="interior"
         shaper:cutDepth="0.006324600000000018"
         d="M 11.27754,1.3333333 H 11.91 v 1.3333334 h -0.63246 z"
         inkscape:connector-curvature="0"
         style="vector-effect:non-scaling-stroke;fill:#ffffff;stroke:#000000;stroke-width:2" />
    </g>
    <g
       id="g274"
       transform="matrix(-10,0,0,-10,571.41959,211.37553)">
      <path
         id="path260"
         transform="matrix(1,0,0,-1,0,4.63246)"
         shaper:pathType="exterior"
         shaper:cutDepth="0.0063246000000000005"
         d="M 21.9,4 H 3.2 V 4.63246 H 0 V 0 H 28.3 V 4.63246 H 25.1 V 3.36754 h -3.2 z"
         inkscape:connector-curvature="0"
         style="vector-effect:non-scaling-stroke;fill:#000000" />
      <path
         id="path262"
         transform="matrix(1,0,0,-1,0,4.63246)"
         shaper:pathType="interior"
         shaper:cutDepth="0.0063246000000000005"
         d="M 18.7,1.3333333 V 2.6666667 H 18.06754 V 1.3333333 Z"
         inkscape:connector-curvature="0"
         style="vector-effect:non-scaling-stroke;fill:#ffffff;stroke:#000000;stroke-width:2" />
    </g>
    <path
       id="path196"
       shaper:pathType="exterior"
       shaper:cutDepth="0.006324601430511479"
       d="m 350.5254,226.49836 h -6.3246 v 13.3333 h 6.3246 v 13.3334 h 96.1754 v -46.3246 h -32.05833 v 12.6492 h -32.05833 v -12.6492 H 350.5254 Z"
       inkscape:connector-curvature="0"
       style="vector-effect:non-scaling-stroke;fill:#000000;stroke-width:10" />
  </g>
</svg>
