<?xml version="1.0" encoding="UTF-8" standalone="no"?>
<svg
   xmlns:shaper="http://www.shapertools.com/namespaces/shaper"
   xmlns:dc="http://purl.org/dc/elements/1.1/"
   xmlns:cc="http://creativecommons.org/ns#"
   xmlns:rdf="http://www.w3.org/1999/02/22-rdf-syntax-ns#"
   xmlns:svg="http://www.w3.org/2000/svg"
   xmlns="http://www.w3.org/2000/svg"
   id="svg8"
   version="1.1"
   viewBox="0 0 596.90001 133.35"
   height="5.25in"
   width="23.5in">
  <defs
     id="defs2" />
  <metadata
     id="metadata5">
    <rdf:RDF>
      <cc:Work
         rdf:about="">
        <dc:format>image/svg+xml</dc:format>
        <dc:type
           rdf:resource="http://purl.org/dc/dcmitype/StillImage" />
        <dc:title></dc:title>
      </cc:Work>
    </rdf:RDF>
  </metadata>
  <g
     transform="translate(0,-163.64998)"
     id="layer1">
    <g
       transform="matrix(10,0,0,10,2.4641325,167.5254)"
       id="g233">
      <path
         style="vector-effect:non-scaling-stroke;fill:#000000"
         d="M 6.4,10.25 H -1.1638593 A 0.2,0.2 0 0 1 -1.3619477,10.077586 1.25,1.25 0 0 0 -2.4275862,9.0119477 0.2,0.2 0 0 1 -2.6,8.8138593 V 5 H -3 A 0.2,0.2 0 0 1 -3.2,4.8 V 0.63246 H 0 V 0 h 21.9 v 0.63246 h 3.2 L 25.1,8.8 A 0.2,0.2 0 0 1 24.9,9 h -6.8 v 1.05 a 0.2,0.2 0 0 1 -0.2,0.2 H 7.03246 V 7.0441667 H 6.4 Z"
         shaper:cutDepth="0.0063246000000000005"
         shaper:pathType="exterior"
         transform="matrix(1,0,0,-1,3.2,10.25)"
         id="path207" />
      <path
         style="vector-effect:non-scaling-stroke;fill:#ffffff;stroke:#000000;stroke-width:2"
         d="m -0.6,2.63246 a 1,1 0 1 0 2,0 1,1 0 1 0 -2,0 z"
         shaper:cutDepth="0.0063246000000000005"
         shaper:pathType="interior"
         transform="matrix(1,0,0,-1,3.2,10.25)"
         id="path209" />
      <path
         style="vector-effect:non-scaling-stroke;fill:#ffffff;stroke:#000000;stroke-width:2"
         d="m 2.4,7.88246 a 1,1 0 1 0 2,0 1,1 0 1 0 -2,0 z"
         shaper:cutDepth="0.0063246000000000005"
         shaper:pathType="interior"
         transform="matrix(1,0,0,-1,3.2,10.25)"
         id="path211" />
      <path
         style="vector-effect:non-scaling-stroke;fill:#ffffff;stroke:#000000;stroke-width:2"
         d="m 2.4,4.38246 a 1,1 0 1 0 2,0 1,1 0 1 0 -2,0 z"
         shaper:cutDepth="0.0063246000000000005"
         shaper:pathType="interior"
         transform="matrix(1,0,0,-1,3.2,10.25)"
         id="path213" />
      <path
         style="vector-effect:non-scaling-stroke;fill:#ffffff;stroke:#000000;stroke-width:2"
         d="m -0.6,6.13246 a 1,1 0 1 0 2,0 1,1 0 1 0 -2,0 z"
         shaper:cutDepth="0.0063246000000000005"
         shaper:pathType="interior"
         transform="matrix(1,0,0,-1,3.2,10.25)"
         id="path215" />
      <path
         style="vector-effect:non-scaling-stroke;fill:#ffffff;stroke:#000000;stroke-width:2"
         d="M 7.03246,3.8383333 H 6.4 V 0.63246 h 0.63246 z"
         shaper:cutDepth="0.0063246000000000005"
         shaper:pathType="interior"
         transform="matrix(1,0,0,-1,3.2,10.25)"
         id="path217" />
    </g>
    <g
       transform="matrix(10,0,0,10,294.83406,248.42797)"
       id="g194">
      <path
         style="vector-effect:non-scaling-stroke;fill:#000000"
         d="M 17.373333,3.36754 V 4 H 5.4633 V 4.63246 H 0 V 0 H 28.3 V 4.63246 H 22.836667 V 3.36754 Z"
         shaper:cutDepth="0.006324600000000018"
         shaper:pathType="exterior"
         transform="matrix(1,0,0,-1,0,4.63246)"
         id="path180" />
      <path
         style="vector-effect:non-scaling-stroke;fill:#ffffff;stroke:#000000;stroke-width:2"
         d="M 11.27754,1.3333333 H 11.91 v 1.3333334 h -0.63246 z"
         shaper:cutDepth="0.006324600000000018"
         shaper:pathType="interior"
         transform="matrix(1,0,0,-1,0,4.63246)"
         id="path182" />
    </g>
    <g
       transform="matrix(-10,0,0,-10,571.41959,211.37553)"
       id="g274">
      <path
         style="vector-effect:non-scaling-stroke;fill:#000000"
         d="M 21.9,4 H 3.2 V 4.63246 H 0 V 0 H 28.3 V 4.63246 H 25.1 V 3.36754 h -3.2 z"
         shaper:cutDepth="0.0063246000000000005"
         shaper:pathType="exterior"
         transform="matrix(1,0,0,-1,0,4.63246)"
         id="path260" />
      <path
         style="vector-effect:non-scaling-stroke;fill:#ffffff;stroke:#000000;stroke-width:2"
         d="M 18.7,1.3333333 V 2.6666667 H 18.06754 V 1.3333333 Z"
         shaper:cutDepth="0.0063246000000000005"
         shaper:pathType="interior"
         transform="matrix(1,0,0,-1,0,4.63246)"
         id="path262" />
    </g>
    <path
       style="vector-effect:non-scaling-stroke;fill:#000000;stroke-width:10"
       d="m 350.5254,226.49836 h -6.3246 v 13.3333 h 6.3246 v 13.3334 h 96.1754 v -46.3246 h -32.05833 v 12.6492 h -32.05833 v -12.6492 H 350.5254 Z"
       shaper:cutDepth="0.006324601430511479"
       shaper:pathType="exterior"
       id="path196" />
  </g>
</svg>
