<?xml version="1.0" encoding="UTF-8" standalone="no"?>
<svg
   xmlns:shaper="http://www.shapertools.com/namespaces/shaper"
   xmlns:dc="http://purl.org/dc/elements/1.1/"
   xmlns:cc="http://creativecommons.org/ns#"
   xmlns:rdf="http://www.w3.org/1999/02/22-rdf-syntax-ns#"
   xmlns:svg="http://www.w3.org/2000/svg"
   xmlns="http://www.w3.org/2000/svg"
   id="svg282"
   version="1.1"
   viewBox="0 0 596.90001 133.35"
   height="5.25in"
   width="23.5in">
  <defs
     id="defs276" />
  <metadata
     id="metadata279">
    <rdf:RDF>
      <cc:Work
         rdf:about="">
        <dc:format>image/svg+xml</dc:format>
        <dc:type
           rdf:resource="http://purl.org/dc/dcmitype/StillImage" />
        <dc:title></dc:title>
      </cc:Work>
    </rdf:RDF>
  </metadata>
  <g
     transform="translate(0,-163.64999)"
     id="layer1">
    <g
       transform="matrix(10,0,0,10,279.37873,166.53824)"
       id="g178">
      <path
         style="vector-effect:non-scaling-stroke;fill:#000000"
         d="m 14.353859,0 v 3.2058333 h 0.63246 v 3.2058334 h -0.63246 V 9.61754 H 8.890526 V 10.25 H 3.4271927 V 9.61754 H -2.0361407 V 5.45 a 0.2,0.2 0 0 1 0.2,-0.2 h 0.4 V 1.4361407 A 0.2,0.2 0 0 1 -1.2637269,1.2380523 1.25,1.25 0 0 0 -0.19808837,0.17241379 0.2,0.2 0 0 1 0,0 Z"
         shaper:cutDepth="0.0063246000000000005"
         shaper:pathType="exterior"
         transform="matrix(1,0,0,-1,2.0361407,10.25)"
         id="path155" />
      <path
         style="vector-effect:non-scaling-stroke;fill:#ffffff;stroke:#000000;stroke-width:2"
         d="m 7.7138593,0.99875 a 0.4,0.4 0 0 0 -0.4,0.4 v 6.82 a 0.4,0.4 0 0 0 0.4,0.4 h 1.74 a 0.4,0.4 0 0 0 0.4,-0.4 v -6.82 a 0.4,0.4 0 0 0 -0.4,-0.4 z"
         shaper:cutDepth="0.0063246000000000005"
         shaper:pathType="interior"
         transform="matrix(1,0,0,-1,2.0361407,10.25)"
         id="path157" />
      <path
         style="vector-effect:non-scaling-stroke;fill:#ffffff;stroke:#000000;stroke-width:2"
         d="m 4.2138593,0.99875 a 0.4,0.4 0 0 0 -0.4,0.4 v 6.82 a 0.4,0.4 0 0 0 0.4,0.4 h 1.74 a 0.4,0.4 0 0 0 0.4,-0.4 v -6.82 a 0.4,0.4 0 0 0 -0.4,-0.4 z"
         shaper:cutDepth="0.0063246000000000005"
         shaper:pathType="interior"
         transform="matrix(1,0,0,-1,2.0361407,10.25)"
         id="path159" />
      <path
         style="vector-effect:non-scaling-stroke;fill:#ffffff;stroke:#000000;stroke-width:2"
         d="m 0.71385934,0.99875 a 0.4,0.4 0 0 0 -0.4,0.4 v 6.82 a 0.4,0.4 0 0 0 0.4,0.4 H 2.4538593 a 0.4,0.4 0 0 0 0.4,-0.4 v -6.82 a 0.4,0.4 0 0 0 -0.4,-0.4 z"
         shaper:cutDepth="0.0063246000000000005"
         shaper:pathType="interior"
         transform="matrix(1,0,0,-1,2.0361407,10.25)"
         id="path161" />
      <path
         style="vector-effect:non-scaling-stroke;fill:#ffffff;stroke:#000000;stroke-width:2"
         d="m 11.213859,0.99875 a 0.4,0.4 0 0 0 -0.4,0.4 v 6.82 a 0.4,0.4 0 0 0 0.4,0.4 h 1.74 a 0.4,0.4 0 0 0 0.4,-0.4 v -6.82 a 0.4,0.4 0 0 0 -0.4,-0.4 z"
         shaper:cutDepth="0.0063246000000000005"
         shaper:pathType="interior"
         transform="matrix(1,0,0,-1,2.0361407,10.25)"
         id="path163" />
    </g>
    <g
       transform="matrix(-10,0,0,-10,547.17473,294.1187)"
       id="g258">
      <path
         style="vector-effect:non-scaling-stroke;fill:#000000"
         d="M 0,0 H 7.5638593 A 0.2,0.2 0 0 1 7.7619477,0.17241379 1.25,1.25 0 0 0 8.8275862,1.2380523 0.2,0.2 0 0 1 9,1.4361407 V 5.25 h 0.4 a 0.2,0.2 0 0 1 0.2,0.2 V 9.61754 H 6.4 V 10.25 H 3.2 V 9.61754 H 0 V 6.4116667 H -0.63246 V 3.2058333 H 0 Z"
         shaper:cutDepth="0.0063246000000000005"
         shaper:pathType="exterior"
         transform="matrix(1,0,0,-1,0.63246,10.25)"
         id="path235" />
      <path
         style="vector-effect:non-scaling-stroke;fill:#ffffff;stroke:#000000;stroke-width:2"
         d="m 2,5.86754 a 1,1 0 1 0 2,0 1,1 0 1 0 -2,0 z"
         shaper:cutDepth="0.0063246000000000005"
         shaper:pathType="interior"
         transform="matrix(1,0,0,-1,0.63246,10.25)"
         id="path237" />
      <path
         style="vector-effect:non-scaling-stroke;fill:#ffffff;stroke:#000000;stroke-width:2"
         d="m 5,4.11754 a 1,1 0 1 0 2,0 1,1 0 1 0 -2,0 z"
         shaper:cutDepth="0.0063246000000000005"
         shaper:pathType="interior"
         transform="matrix(1,0,0,-1,0.63246,10.25)"
         id="path239" />
      <path
         style="vector-effect:non-scaling-stroke;fill:#ffffff;stroke:#000000;stroke-width:2"
         d="m 2,2.36754 a 1,1 0 1 0 2,0 1,1 0 1 0 -2,0 z"
         shaper:cutDepth="0.0063246000000000005"
         shaper:pathType="interior"
         transform="matrix(1,0,0,-1,0.63246,10.25)"
         id="path241" />
      <path
         style="vector-effect:non-scaling-stroke;fill:#ffffff;stroke:#000000;stroke-width:2"
         d="m 5,7.61754 a 1,1 0 1 0 2,0 1,1 0 1 0 -2,0 z"
         shaper:cutDepth="0.0063246000000000005"
         shaper:pathType="interior"
         transform="matrix(1,0,0,-1,0.63246,10.25)"
         id="path243" />
    </g>
    <path
       style="vector-effect:non-scaling-stroke;fill:#000000;stroke-width:10"
       d="m 561.41144,256.26454 h -12.6492 v 32.05833 h 46.3246 v -96.1754 h -13.3334 v -6.3246 h -13.3333 v 6.3246 h -19.6579 v 32.05873 h 12.6492 z"
       shaper:cutDepth="0.006324600000000018"
       shaper:pathType="exterior"
       id="path116" />
    <g
       transform="matrix(10,0,0,10,1.504529,167.56445)"
       id="g153">
      <path
         style="vector-effect:non-scaling-stroke;fill:#000000"
         d="M 17.373367,0.63246 H 22.8367 V 4.8 a 0.2,0.2 0 0 1 -0.2,0.2 h -0.4 V 8.8138593 A 0.2,0.2 0 0 1 22.064286,9.0119477 1.25,1.25 0 0 0 20.998648,10.077586 0.2,0.2 0 0 1 20.800559,10.25 H 6.4467 V 7.0441667 H 5.81424 V 10.25 H 1.7367 a 0.2,0.2 0 0 1 -0.2,-0.2 V 9 h -6.8 a 0.2,0.2 0 0 1 -0.2,-0.2 V 0.63246 H 0 V 0 h 17.373367 z"
         shaper:cutDepth="0.0063246000000000005"
         shaper:pathType="exterior"
         transform="matrix(1,0,0,-1,5.4633,10.25)"
         id="path127" />
      <path
         style="vector-effect:non-scaling-stroke;fill:#ffffff;stroke:#000000;stroke-width:2"
         d="m 13.4867,8.85125 a 0.4,0.4 0 0 1 -0.4,0.4 h -1.74 a 0.4,0.4 0 0 1 -0.4,-0.4 v -6.82 a 0.4,0.4 0 0 1 0.4,-0.4 h 1.74 a 0.4,0.4 0 0 1 0.4,0.4 z"
         shaper:cutDepth="0.0063246000000000005"
         shaper:pathType="interior"
         transform="matrix(1,0,0,-1,5.4633,10.25)"
         id="path129" />
      <path
         style="vector-effect:non-scaling-stroke;fill:#ffffff;stroke:#000000;stroke-width:2"
         d="m 16.9867,8.85125 a 0.4,0.4 0 0 1 -0.4,0.4 h -1.74 a 0.4,0.4 0 0 1 -0.4,-0.4 v -6.82 a 0.4,0.4 0 0 1 0.4,-0.4 h 1.74 a 0.4,0.4 0 0 1 0.4,0.4 z"
         shaper:cutDepth="0.0063246000000000005"
         shaper:pathType="interior"
         transform="matrix(1,0,0,-1,5.4633,10.25)"
         id="path131" />
      <path
         style="vector-effect:non-scaling-stroke;fill:#ffffff;stroke:#000000;stroke-width:2"
         d="m 20.4867,8.85125 a 0.4,0.4 0 0 1 -0.4,0.4 h -1.74 a 0.4,0.4 0 0 1 -0.4,-0.4 v -6.82 a 0.4,0.4 0 0 1 0.4,-0.4 h 1.74 a 0.4,0.4 0 0 1 0.4,0.4 z"
         shaper:cutDepth="0.0063246000000000005"
         shaper:pathType="interior"
         transform="matrix(1,0,0,-1,5.4633,10.25)"
         id="path133" />
      <path
         style="vector-effect:non-scaling-stroke;fill:#ffffff;stroke:#000000;stroke-width:2"
         d="M 6.4467,3.8383333 H 5.81424 V 0.63246 H 6.4467 Z"
         shaper:cutDepth="0.0063246000000000005"
         shaper:pathType="interior"
         transform="matrix(1,0,0,-1,5.4633,10.25)"
         id="path135" />
      <path
         style="vector-effect:non-scaling-stroke;fill:#ffffff;stroke:#000000;stroke-width:2"
         d="m 9.9867,8.85125 a 0.4,0.4 0 0 1 -0.4,0.4 h -1.74 a 0.4,0.4 0 0 1 -0.4,-0.4 v -6.82 a 0.4,0.4 0 0 1 0.4,-0.4 h 1.74 a 0.4,0.4 0 0 1 0.4,0.4 z"
         shaper:cutDepth="0.0063246000000000005"
         shaper:pathType="interior"
         transform="matrix(1,0,0,-1,5.4633,10.25)"
         id="path137" />
    </g>
  </g>
</svg>
