<?xml version="1.0" encoding="UTF-8" standalone="no"?>
<!-- Created with Inkscape (http://www.inkscape.org/) -->

<svg
   xmlns:shaper="http://www.shapertools.com/namespaces/shaper"
   xmlns:dc="http://purl.org/dc/elements/1.1/"
   xmlns:cc="http://creativecommons.org/ns#"
   xmlns:rdf="http://www.w3.org/1999/02/22-rdf-syntax-ns#"
   xmlns:svg="http://www.w3.org/2000/svg"
   xmlns="http://www.w3.org/2000/svg"
   xmlns:sodipodi="http://sodipodi.sourceforge.net/DTD/sodipodi-0.dtd"
   xmlns:inkscape="http://www.inkscape.org/namespaces/inkscape"
   width="23.5in"
   height="5.25in"
   viewBox="0 0 596.90001 133.35"
   version="1.1"
   id="svg282"
   inkscape:version="0.92.2 5c3e80d, 2017-08-06"
   sodipodi:docname="systainer_dogs_flat_1.svg">
  <defs
     id="defs276" />
  <sodipodi:namedview
     id="base"
     pagecolor="#ffffff"
     bordercolor="#666666"
     borderopacity="1.0"
     inkscape:pageopacity="0.0"
     inkscape:pageshadow="2"
     inkscape:zoom="0.49497475"
     inkscape:cx="1075.2277"
     inkscape:cy="255.04566"
     inkscape:document-units="mm"
     inkscape:current-layer="layer1"
     showgrid="false"
     units="in"
     inkscape:window-width="1680"
     inkscape:window-height="1006"
     inkscape:window-x="0"
     inkscape:window-y="0"
     inkscape:window-maximized="1" />
  <metadata
     id="metadata279">
    <rdf:RDF>
      <cc:Work
         rdf:about="">
        <dc:format>image/svg+xml</dc:format>
        <dc:type
           rdf:resource="http://purl.org/dc/dcmitype/StillImage" />
        <dc:title></dc:title>
      </cc:Work>
    </rdf:RDF>
  </metadata>
  <g
     inkscape:label="Layer 1"
     inkscape:groupmode="layer"
     id="layer1"
     transform="translate(0,-163.64999)">
    <g
       id="g178"
       transform="matrix(10,0,0,10,279.37873,166.53824)">
      <path
         id="path155"
         transform="matrix(1,0,0,-1,2.0361407,10.25)"
         shaper:pathType="exterior"
         shaper:cutDepth="0.0063246000000000005"
         d="m 14.353859,0 v 3.2058333 h 0.63246 v 3.2058334 h -0.63246 V 9.61754 H 8.890526 V 10.25 H 3.4271927 V 9.61754 H -2.0361407 V 5.45 a 0.2,0.2 0 0 1 0.2,-0.2 h 0.4 V 1.4361407 A 0.2,0.2 0 0 1 -1.2637269,1.2380523 1.25,1.25 0 0 0 -0.19808837,0.17241379 0.2,0.2 0 0 1 0,0 Z"
         inkscape:connector-curvature="0"
         style="vector-effect:non-scaling-stroke;fill:#000000" />
      <path
         id="path157"
         transform="matrix(1,0,0,-1,2.0361407,10.25)"
         shaper:pathType="interior"
         shaper:cutDepth="0.0063246000000000005"
         d="m 7.7138593,0.99875 a 0.4,0.4 0 0 0 -0.4,0.4 v 6.82 a 0.4,0.4 0 0 0 0.4,0.4 h 1.74 a 0.4,0.4 0 0 0 0.4,-0.4 v -6.82 a 0.4,0.4 0 0 0 -0.4,-0.4 z"
         inkscape:connector-curvature="0"
         style="vector-effect:non-scaling-stroke;fill:#ffffff;stroke:#000000;stroke-width:2" />
      <path
         id="path159"
         transform="matrix(1,0,0,-1,2.0361407,10.25)"
         shaper:pathType="interior"
         shaper:cutDepth="0.0063246000000000005"
         d="m 4.2138593,0.99875 a 0.4,0.4 0 0 0 -0.4,0.4 v 6.82 a 0.4,0.4 0 0 0 0.4,0.4 h 1.74 a 0.4,0.4 0 0 0 0.4,-0.4 v -6.82 a 0.4,0.4 0 0 0 -0.4,-0.4 z"
         inkscape:connector-curvature="0"
         style="vector-effect:non-scaling-stroke;fill:#ffffff;stroke:#000000;stroke-width:2" />
      <path
         id="path161"
         transform="matrix(1,0,0,-1,2.0361407,10.25)"
         shaper:pathType="interior"
         shaper:cutDepth="0.0063246000000000005"
         d="m 0.71385934,0.99875 a 0.4,0.4 0 0 0 -0.4,0.4 v 6.82 a 0.4,0.4 0 0 0 0.4,0.4 H 2.4538593 a 0.4,0.4 0 0 0 0.4,-0.4 v -6.82 a 0.4,0.4 0 0 0 -0.4,-0.4 z"
         inkscape:connector-curvature="0"
         style="vector-effect:non-scaling-stroke;fill:#ffffff;stroke:#000000;stroke-width:2" />
      <path
         id="path163"
         transform="matrix(1,0,0,-1,2.0361407,10.25)"
         shaper:pathType="interior"
         shaper:cutDepth="0.0063246000000000005"
         d="m 11.213859,0.99875 a 0.4,0.4 0 0 0 -0.4,0.4 v 6.82 a 0.4,0.4 0 0 0 0.4,0.4 h 1.74 a 0.4,0.4 0 0 0 0.4,-0.4 v -6.82 a 0.4,0.4 0 0 0 -0.4,-0.4 z"
         inkscape:connector-curvature="0"
         style="vector-effect:non-scaling-stroke;fill:#ffffff;stroke:#000000;stroke-width:2" />
    </g>
    <g
       id="g258"
       transform="matrix(-10,0,0,-10,547.17473,294.1187)">
      <path
         id="path235"
         transform="matrix(1,0,0,-1,0.63246,10.25)"
         shaper:pathType="exterior"
         shaper:cutDepth="0.0063246000000000005"
         d="M 0,0 H 7.5638593 A 0.2,0.2 0 0 1 7.7619477,0.17241379 1.25,1.25 0 0 0 8.8275862,1.2380523 0.2,0.2 0 0 1 9,1.4361407 V 5.25 h 0.4 a 0.2,0.2 0 0 1 0.2,0.2 V 9.61754 H 6.4 V 10.25 H 3.2 V 9.61754 H 0 V 6.4116667 H -0.63246 V 3.2058333 H 0 Z"
         inkscape:connector-curvature="0"
         style="vector-effect:non-scaling-stroke;fill:#000000" />
      <path
         id="path237"
         transform="matrix(1,0,0,-1,0.63246,10.25)"
         shaper:pathType="interior"
         shaper:cutDepth="0.0063246000000000005"
         d="m 2,5.86754 a 1,1 0 1 0 2,0 1,1 0 1 0 -2,0 z"
         inkscape:connector-curvature="0"
         style="vector-effect:non-scaling-stroke;fill:#ffffff;stroke:#000000;stroke-width:2" />
      <path
         id="path239"
         transform="matrix(1,0,0,-1,0.63246,10.25)"
         shaper:pathType="interior"
         shaper:cutDepth="0.0063246000000000005"
         d="m 5,4.11754 a 1,1 0 1 0 2,0 1,1 0 1 0 -2,0 z"
         inkscape:connector-curvature="0"
         style="vector-effect:non-scaling-stroke;fill:#ffffff;stroke:#000000;stroke-width:2" />
      <path
         id="path241"
         transform="matrix(1,0,0,-1,0.63246,10.25)"
         shaper:pathType="interior"
         shaper:cutDepth="0.0063246000000000005"
         d="m 2,2.36754 a 1,1 0 1 0 2,0 1,1 0 1 0 -2,0 z"
         inkscape:connector-curvature="0"
         style="vector-effect:non-scaling-stroke;fill:#ffffff;stroke:#000000;stroke-width:2" />
      <path
         id="path243"
         transform="matrix(1,0,0,-1,0.63246,10.25)"
         shaper:pathType="interior"
         shaper:cutDepth="0.0063246000000000005"
         d="m 5,7.61754 a 1,1 0 1 0 2,0 1,1 0 1 0 -2,0 z"
         inkscape:connector-curvature="0"
         style="vector-effect:non-scaling-stroke;fill:#ffffff;stroke:#000000;stroke-width:2" />
    </g>
    <path
       id="path116"
       shaper:pathType="exterior"
       shaper:cutDepth="0.006324600000000018"
       d="m 561.41144,256.26454 h -12.6492 v 32.05833 h 46.3246 v -96.1754 h -13.3334 v -6.3246 h -13.3333 v 6.3246 h -19.6579 v 32.05873 h 12.6492 z"
       inkscape:connector-curvature="0"
       style="vector-effect:non-scaling-stroke;fill:#000000;stroke-width:10" />
    <g
       id="g153"
       transform="matrix(10,0,0,10,1.504529,167.56445)">
      <path
         id="path127"
         transform="matrix(1,0,0,-1,5.4633,10.25)"
         shaper:pathType="exterior"
         shaper:cutDepth="0.0063246000000000005"
         d="M 17.373367,0.63246 H 22.8367 V 4.8 a 0.2,0.2 0 0 1 -0.2,0.2 h -0.4 V 8.8138593 A 0.2,0.2 0 0 1 22.064286,9.0119477 1.25,1.25 0 0 0 20.998648,10.077586 0.2,0.2 0 0 1 20.800559,10.25 H 6.4467 V 7.0441667 H 5.81424 V 10.25 H 1.7367 a 0.2,0.2 0 0 1 -0.2,-0.2 V 9 h -6.8 a 0.2,0.2 0 0 1 -0.2,-0.2 V 0.63246 H 0 V 0 h 17.373367 z"
         inkscape:connector-curvature="0"
         style="vector-effect:non-scaling-stroke;fill:#000000" />
      <path
         id="path129"
         transform="matrix(1,0,0,-1,5.4633,10.25)"
         shaper:pathType="interior"
         shaper:cutDepth="0.0063246000000000005"
         d="m 13.4867,8.85125 a 0.4,0.4 0 0 1 -0.4,0.4 h -1.74 a 0.4,0.4 0 0 1 -0.4,-0.4 v -6.82 a 0.4,0.4 0 0 1 0.4,-0.4 h 1.74 a 0.4,0.4 0 0 1 0.4,0.4 z"
         inkscape:connector-curvature="0"
         style="vector-effect:non-scaling-stroke;fill:#ffffff;stroke:#000000;stroke-width:2" />
      <path
         id="path131"
         transform="matrix(1,0,0,-1,5.4633,10.25)"
         shaper:pathType="interior"
         shaper:cutDepth="0.0063246000000000005"
         d="m 16.9867,8.85125 a 0.4,0.4 0 0 1 -0.4,0.4 h -1.74 a 0.4,0.4 0 0 1 -0.4,-0.4 v -6.82 a 0.4,0.4 0 0 1 0.4,-0.4 h 1.74 a 0.4,0.4 0 0 1 0.4,0.4 z"
         inkscape:connector-curvature="0"
         style="vector-effect:non-scaling-stroke;fill:#ffffff;stroke:#000000;stroke-width:2" />
      <path
         id="path133"
         transform="matrix(1,0,0,-1,5.4633,10.25)"
         shaper:pathType="interior"
         shaper:cutDepth="0.0063246000000000005"
         d="m 20.4867,8.85125 a 0.4,0.4 0 0 1 -0.4,0.4 h -1.74 a 0.4,0.4 0 0 1 -0.4,-0.4 v -6.82 a 0.4,0.4 0 0 1 0.4,-0.4 h 1.74 a 0.4,0.4 0 0 1 0.4,0.4 z"
         inkscape:connector-curvature="0"
         style="vector-effect:non-scaling-stroke;fill:#ffffff;stroke:#000000;stroke-width:2" />
      <path
         id="path135"
         transform="matrix(1,0,0,-1,5.4633,10.25)"
         shaper:pathType="interior"
         shaper:cutDepth="0.0063246000000000005"
         d="M 6.4467,3.8383333 H 5.81424 V 0.63246 H 6.4467 Z"
         inkscape:connector-curvature="0"
         style="vector-effect:non-scaling-stroke;fill:#ffffff;stroke:#000000;stroke-width:2" />
      <path
         id="path137"
         transform="matrix(1,0,0,-1,5.4633,10.25)"
         shaper:pathType="interior"
         shaper:cutDepth="0.0063246000000000005"
         d="m 9.9867,8.85125 a 0.4,0.4 0 0 1 -0.4,0.4 h -1.74 a 0.4,0.4 0 0 1 -0.4,-0.4 v -6.82 a 0.4,0.4 0 0 1 0.4,-0.4 h 1.74 a 0.4,0.4 0 0 1 0.4,0.4 z"
         inkscape:connector-curvature="0"
         style="vector-effect:non-scaling-stroke;fill:#ffffff;stroke:#000000;stroke-width:2" />
    </g>
  </g>
</svg>
