<?xml version="1.0" encoding="utf-8"?>
<!-- Generator: Fusion 360, Shaper Origin Export Add-In, Version 1.0  -->
<svg enable-background="new 0 0 29.463999999999995 39.370000000000005" height="39.370000000000005cm" shaper:fusionaddin="version:1.0" version="1.1" viewBox="0 0 29.463999999999995 39.370000000000005" width="29.463999999999995cm" x="0cm" xml:space="preserve" xmlns="http://www.w3.org/2000/svg" xmlns:shaper="http://www.shapertools.com/namespaces/shaper" xmlns:xlink="http://www.w3.org/1999/xlink" y="0cm"><title>Title</title><desc>Description</desc><path d="M18.415000000000003,-0.6324600000000018 L18.415000000000003,0.0 21.465540000000004,1.5252167345195282e-16 21.465539999999994,12.49087333333333 22.097999999999995,12.49087333333333 22.098,25.61420666666666 21.465539999999997,25.61420666666666 21.465540000000004,38.105079999999994 18.415000000000003,38.10508 18.415000000000003,38.73754 14.731999764919273,38.73754 14.731999764919273,38.105079999999994 2.3508072999334217e-07,38.10508 2.35080730069603e-07,38.73754 -3.683,38.73754 -3.683,38.10508 -6.733539999999994,38.105079999999994 -6.733539999999994,25.61420666666666 -7.365999999999996,25.61420666666666 -7.3659999999999926,12.49087333333333 -6.733539999999991,12.49087333333333 -6.733539999999991,6.952905684149048e-15 -3.683,7.888609052210118e-31 -3.683,-0.6324600000000018 2.3508072999334217e-07,-0.6324600000000018 2.3508072999334217e-07,5.3290704615095685e-15 14.731999764919273,0.0 14.731999764919273,-0.6324600000000018 18.415000000000003,-0.6324600000000018" fill="rgb(0,0,0)" shaper:cutDepth="0.0063246000000000005" shaper:pathType="exterior" transform="matrix(1,0,0,-1,7.365999999999996,38.73754)" vector-effect="non-scaling-stroke" /></svg>