<?xml version="1.0" encoding="utf-8"?>
<!-- Generator: Fusion 360, Shaper Origin Export Add-In, Version 1.0  -->
<svg enable-background="new 0 0 29.46399965472558 39.370000000000005" height="39.370000000000005cm" shaper:fusionaddin="version:1.0" version="1.1" viewBox="0 0 29.46399965472558 39.370000000000005" width="29.46399965472558cm" x="0cm" xml:space="preserve" xmlns="http://www.w3.org/2000/svg" xmlns:shaper="http://www.shapertools.com/namespaces/shaper" xmlns:xlink="http://www.w3.org/1999/xlink" y="0cm"><title>Title</title><desc>Description</desc><path d="M22.097999654725587,12.490872945734958 L21.46554034527442,12.490872954054964 21.465540509591623,1.4210854715202004e-14 18.415000000000006,-4.012978956207727e-08 18.415000000000003,-0.6324600000000018 14.732000000000003,-0.6324600000000018 14.732000000000003,0.0 7.105427357601002e-15,-2.823787727029281e-07 0.0,-0.6324600000000018 -3.683,-0.6324600000000018 -3.6829999999999927,-3.3082856933109825e-07 -6.733539490408372,-3.7095835914158215e-07 -6.733539654725583,12.490872954054957 -7.365999654725584,12.490872945734958 -7.3659998273627885,25.614206279068288 -6.733539827362787,25.61420628738829 -6.733539991679994,38.10507962904162 -3.6829999999999927,38.10507966917142 -3.683,38.73754 7.626083672597649e-17,38.73754 0.0,38.10508 14.732000000000003,38.1050799114204 14.732000000000003,38.73754 18.415000000000003,38.73754 18.415000000000003,38.105079959870196 21.46554000832,38.105079999999994 21.465540172637215,25.614206287388292 22.09799982736279,25.614206279068288 22.097999654725587,12.490872945734958" fill="rgb(0,0,0)" shaper:cutDepth="0.006324599999999949" shaper:pathType="exterior" transform="matrix(1,0,0,-1,7.3659998273627885,38.73754)" vector-effect="non-scaling-stroke" /><path d="M -1.8427699999999945 5.081016000000005 m -4.317999999999998, 0 a 4.317999999999998,4.317999999999998 0 1,0 8.635999999999996,0 a 4.317999999999998,4.317999999999998 0 1,0 -8.635999999999996,0" fill="rgb(255,255,255)" shaper:cutDepth="0.006324599999999949" shaper:pathType="interior" stroke="rgb(0,0,0)" stroke-width="2" transform="matrix(1,0,0,-1,7.3659998273627885,38.73754)" vector-effect="non-scaling-stroke" /><path d="M 7.366000000000007 14.39536533333333 m -4.317999999999998, 0 a 4.317999999999998,4.317999999999998 0 1,0 8.635999999999996,0 a 4.317999999999998,4.317999999999998 0 1,0 -8.635999999999996,0" fill="rgb(255,255,255)" shaper:cutDepth="0.006324599999999949" shaper:pathType="interior" stroke="rgb(0,0,0)" stroke-width="2" transform="matrix(1,0,0,-1,7.3659998273627885,38.73754)" vector-effect="non-scaling-stroke" /><path d="M 16.57477 23.709714666666663 m -4.317999999999998, 0 a 4.317999999999998,4.317999999999998 0 1,0 8.635999999999996,0 a 4.317999999999998,4.317999999999998 0 1,0 -8.635999999999996,0" fill="rgb(255,255,255)" shaper:cutDepth="0.006324599999999949" shaper:pathType="interior" stroke="rgb(0,0,0)" stroke-width="2" transform="matrix(1,0,0,-1,7.3659998273627885,38.73754)" vector-effect="non-scaling-stroke" /><path d="M 16.57477 33.024063999999996 m -4.317999999999998, 0 a 4.317999999999998,4.317999999999998 0 1,0 8.635999999999996,0 a 4.317999999999998,4.317999999999998 0 1,0 -8.635999999999996,0" fill="rgb(255,255,255)" shaper:cutDepth="0.006324599999999949" shaper:pathType="interior" stroke="rgb(0,0,0)" stroke-width="2" transform="matrix(1,0,0,-1,7.3659998273627885,38.73754)" vector-effect="non-scaling-stroke" /><path d="M 7.366000000000003 23.709714666666663 m -4.318, 0 a 4.318,4.318 0 1,0 8.636,0 a 4.318,4.318 0 1,0 -8.636,0" fill="rgb(255,255,255)" shaper:cutDepth="0.006324599999999949" shaper:pathType="interior" stroke="rgb(0,0,0)" stroke-width="2" transform="matrix(1,0,0,-1,7.3659998273627885,38.73754)" vector-effect="non-scaling-stroke" /><path d="M -1.8427699999999945 14.395365333333327 m -4.318000000000001, 0 a 4.318000000000001,4.318000000000001 0 1,0 8.636000000000003,0 a 4.318000000000001,4.318000000000001 0 1,0 -8.636000000000003,0" fill="rgb(255,255,255)" shaper:cutDepth="0.006324599999999949" shaper:pathType="interior" stroke="rgb(0,0,0)" stroke-width="2" transform="matrix(1,0,0,-1,7.3659998273627885,38.73754)" vector-effect="non-scaling-stroke" /><path d="M 7.366000000000007 5.081016000000005 m -4.317999999999998, 0 a 4.317999999999998,4.317999999999998 0 1,0 8.635999999999996,0 a 4.317999999999998,4.317999999999998 0 1,0 -8.635999999999996,0" fill="rgb(255,255,255)" shaper:cutDepth="0.006324599999999949" shaper:pathType="interior" stroke="rgb(0,0,0)" stroke-width="2" transform="matrix(1,0,0,-1,7.3659998273627885,38.73754)" vector-effect="non-scaling-stroke" /><path d="M 16.57477 14.39536533333333 m -4.318000000000001, 0 a 4.318000000000001,4.318000000000001 0 1,0 8.636000000000003,0 a 4.318000000000001,4.318000000000001 0 1,0 -8.636000000000003,0" fill="rgb(255,255,255)" shaper:cutDepth="0.006324599999999949" shaper:pathType="interior" stroke="rgb(0,0,0)" stroke-width="2" transform="matrix(1,0,0,-1,7.3659998273627885,38.73754)" vector-effect="non-scaling-stroke" /><path d="M -1.842769999999998 33.024063999999996 m -4.318, 0 a 4.318,4.318 0 1,0 8.636,0 a 4.318,4.318 0 1,0 -8.636,0" fill="rgb(255,255,255)" shaper:cutDepth="0.006324599999999949" shaper:pathType="interior" stroke="rgb(0,0,0)" stroke-width="2" transform="matrix(1,0,0,-1,7.3659998273627885,38.73754)" vector-effect="non-scaling-stroke" /><path d="M 7.366000000000003 33.024063999999996 m -4.318, 0 a 4.318,4.318 0 1,0 8.636,0 a 4.318,4.318 0 1,0 -8.636,0" fill="rgb(255,255,255)" shaper:cutDepth="0.006324599999999949" shaper:pathType="interior" stroke="rgb(0,0,0)" stroke-width="2" transform="matrix(1,0,0,-1,7.3659998273627885,38.73754)" vector-effect="non-scaling-stroke" /><path d="M -1.842769999999998 23.70971466666666 m -4.318, 0 a 4.318,4.318 0 1,0 8.636,0 a 4.318,4.318 0 1,0 -8.636,0" fill="rgb(255,255,255)" shaper:cutDepth="0.006324599999999949" shaper:pathType="interior" stroke="rgb(0,0,0)" stroke-width="2" transform="matrix(1,0,0,-1,7.3659998273627885,38.73754)" vector-effect="non-scaling-stroke" /><path d="M 16.57477 5.081016000000005 m -4.317999999999998, 0 a 4.317999999999998,4.317999999999998 0 1,0 8.635999999999996,0 a 4.317999999999998,4.317999999999998 0 1,0 -8.635999999999996,0" fill="rgb(255,255,255)" shaper:cutDepth="0.006324599999999949" shaper:pathType="interior" stroke="rgb(0,0,0)" stroke-width="2" transform="matrix(1,0,0,-1,7.3659998273627885,38.73754)" vector-effect="non-scaling-stroke" /></svg>