<?xml version="1.0" encoding="UTF-8" standalone="no"?>
<!-- Created with Inkscape (http://www.inkscape.org/) -->

<svg
   xmlns:shaper="http://www.shapertools.com/namespaces/shaper"
   xmlns:dc="http://purl.org/dc/elements/1.1/"
   xmlns:cc="http://creativecommons.org/ns#"
   xmlns:rdf="http://www.w3.org/1999/02/22-rdf-syntax-ns#"
   xmlns:svg="http://www.w3.org/2000/svg"
   xmlns="http://www.w3.org/2000/svg"
   xmlns:sodipodi="http://sodipodi.sourceforge.net/DTD/sodipodi-0.dtd"
   xmlns:inkscape="http://www.inkscape.org/namespaces/inkscape"
   width="23in"
   height="17in"
   viewBox="0 0 584.20001 431.80001"
   version="1.1"
   id="svg372"
   inkscape:version="0.92.2 5c3e80d, 2017-08-06"
   sodipodi:docname="Talenti_Tray_Sides_Shelf.svg">
  <defs
     id="defs366" />
  <sodipodi:namedview
     id="base"
     pagecolor="#ffffff"
     bordercolor="#666666"
     borderopacity="1.0"
     inkscape:pageopacity="0.0"
     inkscape:pageshadow="2"
     inkscape:zoom="0.35"
     inkscape:cx="282.78412"
     inkscape:cy="1027.907"
     inkscape:document-units="mm"
     inkscape:current-layer="layer1"
     showgrid="false"
     units="in"
     inkscape:window-width="1680"
     inkscape:window-height="1006"
     inkscape:window-x="0"
     inkscape:window-y="0"
     inkscape:window-maximized="1" />
  <metadata
     id="metadata369">
    <rdf:RDF>
      <cc:Work
         rdf:about="">
        <dc:format>image/svg+xml</dc:format>
        <dc:type
           rdf:resource="http://purl.org/dc/dcmitype/StillImage" />
        <dc:title />
      </cc:Work>
    </rdf:RDF>
  </metadata>
  <g
     inkscape:label="Layer 1"
     inkscape:groupmode="layer"
     id="layer1"
     transform="translate(0,134.80002)">
    <path
       id="path4209"
       shaper:pathType="exterior"
       shaper:cutDepth="0.006324600000000018"
       d="m 270.25232,253.18291 10e-6,-36.82996 6.32459,-2e-5 6.32463,7e-5 -10e-6,-8.26616 a 12.7,12.7 0 0 0 -9.413,-12.26724 L 168.37522,167.65453 a 12.7,12.7 0 0 1 -9.41299,-12.26723 l -1e-5,-25.3887 a 12.7,12.7 0 0 1 9.413,-12.26726 L 273.48853,89.56637 a 12.7,12.7 0 0 0 9.413,-12.26724 l 1e-5,-8.26606 -6.32461,-7e-5 -6.3246,3e-5 2e-5,-36.82996 12.64918,-5e-5 1e-5,-36.8299417 -16.93334,-3e-5 v 6.3245965 l -16.93334,-3e-5 v -6.3245964 l -16.93332,6e-5 V 59.28802 a 12.7,12.7 0 0 1 -9.413,12.26726 l -82.774,22.179186 a 12.7,12.7 0 0 0 -9.41302,12.267124 v 73.38266 a 12.7,12.7 0 0 0 9.413,12.26723 l 82.77401,22.17925 a 12.7,12.7 0 0 1 9.41299,12.26723 v 63.91495 l 16.93334,3e-5 v -6.32461 l 16.93334,4e-5 v 6.3246 l 16.93335,3e-5 -2e-5,-36.83005 -12.64921,-4e-5"
       inkscape:connector-curvature="0"
       style="vector-effect:non-scaling-stroke;fill:none;stroke-width:0.127;stroke:#ff0000;stroke-opacity:1;stroke-miterlimit:4;stroke-dasharray:none" />
    <path
       id="path4271"
       shaper:pathType="exterior"
       shaper:cutDepth="0.0063246000000000005"
       d="m 161.57121,216.353 -1e-5,-8.26616 a 12.7,12.7 0 0 0 -9.413,-12.26723 L 47.044887,167.65453 a 12.7,12.7 0 0 1 -9.41299,-12.26723 l -2e-5,-25.3887 a 12.7,12.7 0 0 1 9.413,-12.26726 L 152.15819,89.56638 a 12.7,12.7 0 0 0 9.413,-12.26724 l 1e-5,-8.26607 -6.32461,-7e-5 -6.3246,3e-5 2e-5,-36.82996 12.64918,-5e-5 1e-5,-36.8299416 -16.93334,-3e-5 v 6.3245964 l -16.93334,-3e-5 v -6.3245964 l -16.93332,6e-5 V 59.28802 a 12.7,12.7 0 0 1 -9.413,12.26726 L 18.584197,93.734466 A 12.7,12.7 0 0 0 9.1711766,106.0016 v 73.38265 a 12.7,12.7 0 0 0 9.4130004,12.26723 l 82.774013,22.17925 a 12.7,12.7 0 0 1 9.41299,12.26724 v 63.91494 l 16.93334,3e-5 v -6.3246 l 16.93334,3e-5 v 6.3246 l 16.93335,3e-5 -2e-5,-36.83005 -12.64921,-4e-5 1e-5,-36.82995 6.32459,-3e-5 6.32463,7e-5"
       inkscape:connector-curvature="0"
       style="vector-effect:non-scaling-stroke;fill:none;stroke-width:0.127;stroke:#ff0000;stroke-opacity:1;stroke-miterlimit:4;stroke-dasharray:none" />
    <g
       id="g4495"
       transform="matrix(9.9999999,0,0,9.9999999,288.71246,-97.893832)"
       style="stroke:#ff0000;stroke-opacity:1;stroke-width:0.0127;stroke-miterlimit:4;stroke-dasharray:none;fill:none">
      <path
         id="path4448"
         transform="matrix(1,0,0,-1,7.3659998,38.73754)"
         shaper:pathType="exterior"
         shaper:cutDepth="0.006324599999999949"
         d="M 22.098,12.490873 H 21.46554 L 21.465541,0 18.415,-4.012979e-8 V -0.63246 H 14.732 V 0 L 0,-2.8237877e-7 V -0.63246 H -3.683 V -3.3082857e-7 L -6.7335395,-3.7095836e-7 -6.7335397,12.490873 h -0.63246 l -1e-7,13.123333 h 0.63246 l -2e-7,12.490874 H -3.683 v 0.63246 H 0 v -0.63246 h 14.732 v 0.63246 h 3.683 v -0.63246 h 3.05054 V 25.614206 H 22.098 V 12.490873"
         inkscape:connector-curvature="0"
         style="vector-effect:non-scaling-stroke;fill:none;stroke:#ff0000;stroke-opacity:1;stroke-width:0.0127;stroke-miterlimit:4;stroke-dasharray:none" />
      <path
         id="path4450"
         transform="matrix(1,0,0,-1,7.3659998,38.73754)"
         shaper:pathType="interior"
         shaper:cutDepth="0.006324599999999949"
         d="m -1.84277,5.081016 m -4.318,0 a 4.318,4.318 0 1 0 8.636,0 4.318,4.318 0 1 0 -8.636,0"
         inkscape:connector-curvature="0"
         style="vector-effect:non-scaling-stroke;fill:none;stroke:#ff0000;stroke-width:0.0127;stroke-opacity:1;stroke-miterlimit:4;stroke-dasharray:none" />
      <path
         id="path4452"
         transform="matrix(1,0,0,-1,7.3659998,38.73754)"
         shaper:pathType="interior"
         shaper:cutDepth="0.006324599999999949"
         d="m 7.366,14.395365 m -4.318,0 a 4.318,4.318 0 1 0 8.636,0 4.318,4.318 0 1 0 -8.636,0"
         inkscape:connector-curvature="0"
         style="vector-effect:non-scaling-stroke;fill:none;stroke:#ff0000;stroke-width:0.0127;stroke-opacity:1;stroke-miterlimit:4;stroke-dasharray:none" />
      <path
         id="path4454"
         transform="matrix(1,0,0,-1,7.3659998,38.73754)"
         shaper:pathType="interior"
         shaper:cutDepth="0.006324599999999949"
         d="m 16.57477,23.709715 m -4.318,0 a 4.318,4.318 0 1 0 8.636,0 4.318,4.318 0 1 0 -8.636,0"
         inkscape:connector-curvature="0"
         style="vector-effect:non-scaling-stroke;fill:none;stroke:#ff0000;stroke-width:0.0127;stroke-opacity:1;stroke-miterlimit:4;stroke-dasharray:none" />
      <path
         id="path4456"
         transform="matrix(1,0,0,-1,7.3659998,38.73754)"
         shaper:pathType="interior"
         shaper:cutDepth="0.006324599999999949"
         d="m 16.57477,33.024064 m -4.318,0 a 4.318,4.318 0 1 0 8.636,0 4.318,4.318 0 1 0 -8.636,0"
         inkscape:connector-curvature="0"
         style="vector-effect:non-scaling-stroke;fill:none;stroke:#ff0000;stroke-width:0.0127;stroke-opacity:1;stroke-miterlimit:4;stroke-dasharray:none" />
      <path
         id="path4458"
         transform="matrix(1,0,0,-1,7.3659998,38.73754)"
         shaper:pathType="interior"
         shaper:cutDepth="0.006324599999999949"
         d="m 7.366,23.709715 m -4.318,0 a 4.318,4.318 0 1 0 8.636,0 4.318,4.318 0 1 0 -8.636,0"
         inkscape:connector-curvature="0"
         style="vector-effect:non-scaling-stroke;fill:none;stroke:#ff0000;stroke-width:0.0127;stroke-opacity:1;stroke-miterlimit:4;stroke-dasharray:none" />
      <path
         id="path4460"
         transform="matrix(1,0,0,-1,7.3659998,38.73754)"
         shaper:pathType="interior"
         shaper:cutDepth="0.006324599999999949"
         d="m -1.84277,14.395365 m -4.318,0 a 4.318,4.318 0 1 0 8.636,0 4.318,4.318 0 1 0 -8.636,0"
         inkscape:connector-curvature="0"
         style="vector-effect:non-scaling-stroke;fill:none;stroke:#ff0000;stroke-width:0.0127;stroke-opacity:1;stroke-miterlimit:4;stroke-dasharray:none" />
      <path
         id="path4462"
         transform="matrix(1,0,0,-1,7.3659998,38.73754)"
         shaper:pathType="interior"
         shaper:cutDepth="0.006324599999999949"
         d="m 7.366,5.081016 m -4.318,0 a 4.318,4.318 0 1 0 8.636,0 4.318,4.318 0 1 0 -8.636,0"
         inkscape:connector-curvature="0"
         style="vector-effect:non-scaling-stroke;fill:none;stroke:#ff0000;stroke-width:0.0127;stroke-opacity:1;stroke-miterlimit:4;stroke-dasharray:none" />
      <path
         id="path4464"
         transform="matrix(1,0,0,-1,7.3659998,38.73754)"
         shaper:pathType="interior"
         shaper:cutDepth="0.006324599999999949"
         d="m 16.57477,14.395365 m -4.318,0 a 4.318,4.318 0 1 0 8.636,0 4.318,4.318 0 1 0 -8.636,0"
         inkscape:connector-curvature="0"
         style="vector-effect:non-scaling-stroke;fill:none;stroke:#ff0000;stroke-width:0.0127;stroke-opacity:1;stroke-miterlimit:4;stroke-dasharray:none" />
      <path
         id="path4466"
         transform="matrix(1,0,0,-1,7.3659998,38.73754)"
         shaper:pathType="interior"
         shaper:cutDepth="0.006324599999999949"
         d="m -1.84277,33.024064 m -4.318,0 a 4.318,4.318 0 1 0 8.636,0 4.318,4.318 0 1 0 -8.636,0"
         inkscape:connector-curvature="0"
         style="vector-effect:non-scaling-stroke;fill:none;stroke:#ff0000;stroke-width:0.0127;stroke-opacity:1;stroke-miterlimit:4;stroke-dasharray:none" />
      <path
         id="path4468"
         transform="matrix(1,0,0,-1,7.3659998,38.73754)"
         shaper:pathType="interior"
         shaper:cutDepth="0.006324599999999949"
         d="m 7.366,33.024064 m -4.318,0 a 4.318,4.318 0 1 0 8.636,0 4.318,4.318 0 1 0 -8.636,0"
         inkscape:connector-curvature="0"
         style="vector-effect:non-scaling-stroke;fill:none;stroke:#ff0000;stroke-width:0.0127;stroke-opacity:1;stroke-miterlimit:4;stroke-dasharray:none" />
      <path
         id="path4470"
         transform="matrix(1,0,0,-1,7.3659998,38.73754)"
         shaper:pathType="interior"
         shaper:cutDepth="0.006324599999999949"
         d="m -1.84277,23.709715 m -4.318,0 a 4.318,4.318 0 1 0 8.636,0 4.318,4.318 0 1 0 -8.636,0"
         inkscape:connector-curvature="0"
         style="vector-effect:non-scaling-stroke;fill:none;stroke:#ff0000;stroke-width:0.0127;stroke-opacity:1;stroke-miterlimit:4;stroke-dasharray:none" />
      <path
         id="path4472"
         transform="matrix(1,0,0,-1,7.3659998,38.73754)"
         shaper:pathType="interior"
         shaper:cutDepth="0.006324599999999949"
         d="m 16.57477,5.081016 m -4.318,0 a 4.318,4.318 0 1 0 8.636,0 4.318,4.318 0 1 0 -8.636,0"
         inkscape:connector-curvature="0"
         style="vector-effect:non-scaling-stroke;fill:none;stroke:#ff0000;stroke-width:0.0127;stroke-opacity:1;stroke-miterlimit:4;stroke-dasharray:none" />
    </g>
  </g>
</svg>
