<?xml version="1.0" encoding="utf-8"?>
<!-- Generator: Fusion 360, Shaper Origin Export Add-In, Version 1.0  -->
<svg enable-background="new 0 0 19.526546929410443 29.774839294901913" height="29.774839294901913cm" shaper:fusionaddin="version:1.0" version="1.1" viewBox="0 0 19.526546929410443 29.774839294901913" width="19.526546929410443cm" x="0cm" xml:space="preserve" xmlns="http://www.w3.org/2000/svg" xmlns:shaper="http://www.shapertools.com/namespaces/shaper" xmlns:xlink="http://www.w3.org/1999/xlink" y="0cm"><title>Title</title><desc>Description</desc><path d="M6.334827291577115,-15.720392213228997 L7.2880578346897,-12.162887395006356 7.898967282784483,-12.326580088271902 8.509876791722636,-12.490272554466895 8.723819873618375,-11.691826102904125 A1.2700000000000062,1.2700000000000062 0 0,1 8.132094074231262,-10.263273652817688 L-1.2921069194546402,-4.822208672215997 A1.2699999999999965,1.2699999999999965 0 0,0 -1.8838327188417514,-3.3936562221295556 L-1.2267257993871201,-0.9412998127197998 A1.2700000000000022,1.2700000000000022 0 0,0 6.222194940110912e-17,-1.5543122344752192e-15 L10.882129961203379,-4.440892098500626e-16 A1.2699999999999994,1.2699999999999994 0 0,1 12.108855760590496,0.9412998127197967 L12.322798842486234,1.7397462642825658 11.711889455234822,1.903439184618654 11.100980007140038,2.0671318778841923 12.054210550252623,5.624636696106831 13.276029446442191,5.297251309575751 14.229259989554775,8.854756127798389 12.593625590371952,9.293023044171989 12.429932897106411,8.682113596077206 10.79429849792359,9.120380512450811 10.95799119118913,9.731289960545594 9.32235679200631,10.169556876919199 7.668116230434976,3.9958470531937174 A1.2699999999999996,1.2699999999999996 0 0,0 6.44139043104786,3.0545472404739202 L-2.1280050124520278,3.0545472404739225 A1.270000000000001,1.270000000000001 0 0,1 -3.3547308118391443,2.1132474277541258 L-5.254012739242786,-4.9749692232136145 A1.2700000000000027,1.2700000000000027 0 0,1 -4.662286939855676,-6.403521673300052 L2.759027209289845,-10.688219395049998 A1.269999999999996,1.269999999999996 0 0,0 3.3507530086769624,-12.116771845136434 L1.6965124471056292,-18.29048166886191 3.3321468462884507,-18.72874858523551 3.495839539553994,-18.117839137140727 5.131473938736815,-18.556106053514327 4.967781245471274,-19.167015501609118 6.603415644654097,-19.605282417982714 7.556646187766681,-16.04777759976008 6.334827291577115,-15.720392213228997" fill="rgb(0,0,0)" shaper:cutDepth="0.006324600000000018" shaper:pathType="exterior" transform="matrix(1,0,0,-1,5.297286939855669,10.169556876919199)" vector-effect="non-scaling-stroke" /></svg>