<?xml version="1.0" encoding="utf-8"?>
<!-- Generator: Fusion 360, Shaper Origin Export Add-In, Version 1.0  -->
<svg enable-background="new 0 0 19.526546929410443 29.77483929490191" height="29.77483929490191cm" shaper:fusionaddin="version:1.0" version="1.1" viewBox="0 0 19.526546929410443 29.77483929490191" width="19.526546929410443cm" x="0cm" xml:space="preserve" xmlns="http://www.w3.org/2000/svg" xmlns:shaper="http://www.shapertools.com/namespaces/shaper" xmlns:xlink="http://www.w3.org/1999/xlink" y="0cm"><title>Title</title><desc>Description</desc><path d="M8.509876791722636,-12.490272554466895 L8.723819873618375,-11.691826102904127 A1.27,1.27 0 0,1 8.13209407423126,-10.26327365281769 L-1.2921069194546404,-4.822208672215996 A1.2699999999999971,1.2699999999999971 0 0,0 -1.8838327188417514,-3.3936562221295574 L-1.2267257993871188,-0.9412998127197985 A1.270000000000001,1.270000000000001 0 0,0 1.9584828754608743e-15,2.220446049250313e-16 L10.882129961203377,-1.4988010832439613e-15 A1.270000000000003,1.270000000000003 0 0,1 12.108855760590496,0.9412998127197971 L12.322798842486234,1.7397462642825658 11.711889455234822,1.9034391846186547 11.100980007140038,2.0671318778841914 12.054210550252623,5.62463669610683 13.276029446442191,5.297251309575751 14.229259989554775,8.854756127798389 12.593625590371952,9.293023044171989 12.429932897106411,8.682113596077206 10.794298497923592,9.12038051245081 10.957991191189128,9.731289960545592 9.322356792006309,10.169556876919195 7.668116230434977,3.9958470531937165 A1.269999999999997,1.269999999999997 0 0,0 6.441390431047859,3.0545472404739193 L-2.1280050124520273,3.0545472404739225 A1.2699999999999994,1.2699999999999994 0 0,1 -3.3547308118391443,2.1132474277541236 L-5.254012739242786,-4.974969223213616 A1.2700000000000016,1.2700000000000016 0 0,1 -4.662286939855675,-6.403521673300052 L2.759027209289844,-10.688219395050002 A1.2700000000000007,1.2700000000000007 0 0,0 3.3507530086769624,-12.116771845136437 L1.6965124471056292,-18.29048166886191 3.3321468462884507,-18.728748585235515 3.495839539553994,-18.117839137140727 5.131473938736815,-18.556106053514327 4.967781245471274,-19.167015501609114 6.603415644654097,-19.605282417982714 7.556646187766681,-16.04777759976008 6.334827291577115,-15.720392213228997 7.2880578346897,-12.162887395006358 7.898967282784483,-12.326580088271903 8.509876791722636,-12.490272554466895" fill="rgb(0,0,0)" shaper:cutDepth="0.0063246000000000005" shaper:pathType="exterior" transform="matrix(1,0,0,-1,5.297286939855669,10.169556876919195)" vector-effect="non-scaling-stroke" /></svg>