<?xml version="1.0" encoding="UTF-8" standalone="no"?>
<svg
   xmlns:shaper="http://www.shapertools.com/namespaces/shaper"
   xmlns:dc="http://purl.org/dc/elements/1.1/"
   xmlns:cc="http://creativecommons.org/ns#"
   xmlns:rdf="http://www.w3.org/1999/02/22-rdf-syntax-ns#"
   xmlns:svg="http://www.w3.org/2000/svg"
   xmlns="http://www.w3.org/2000/svg"
   id="svg639"
   version="1.1"
   viewBox="0 0 285.75 285.75001"
   height="11.25in"
   width="11.25in">
  <defs
     id="defs633" />
  <metadata
     id="metadata636">
    <rdf:RDF>
      <cc:Work
         rdf:about="">
        <dc:format>image/svg+xml</dc:format>
        <dc:type
           rdf:resource="http://purl.org/dc/dcmitype/StillImage" />
        <dc:title></dc:title>
      </cc:Work>
    </rdf:RDF>
  </metadata>
  <g
     transform="translate(0,-11.249983)"
     id="layer1">
    <g
       transform="matrix(10,0,0,10,7.4271848,52.023792)"
       id="g96">
      <path
         style="vector-effect:non-scaling-stroke;fill:#000000"
         d="m -0.63246,10.2 v 10.2 h -6.8 V 10.2 H -8.06492 V 0.63246 H 0 V 0 h 18.77016 v 0.63246 h 0.63246 V 10.2 h -0.63246 v 13 a 1,1 0 0 1 -1,1 H 1 a 1,1 0 0 1 -1,-1 v -13 z"
         shaper:cutDepth="0.0063246"
         shaper:pathType="exterior"
         transform="matrix(1,0,0,-1,8.06492,24.2)"
         id="path79" />
      <path
         style="vector-effect:non-scaling-stroke;fill:#ffffff;stroke:#000000;stroke-width:2"
         d="M 3.5333333,20.4 H 15.236827 a 1,1 0 0 1 1,1 v 0.533333 a 1,1 0 0 1 -1,1 H 3.5333333 a 1,1 0 0 1 -1,-1 V 21.4 a 1,1 0 0 1 1,-1 z"
         shaper:cutDepth="0.0063246"
         shaper:pathType="interior"
         transform="matrix(1,0,0,-1,8.06492,24.2)"
         id="path81" />
      <path
         style="vector-effect:non-scaling-stroke;fill:#ffffff;stroke:#000000;stroke-width:2"
         d="M 6.25672,10.51623 V 9.88377 h 6.25672 v 0.63246 z"
         shaper:cutDepth="0.0063246"
         shaper:pathType="interior"
         transform="matrix(1,0,0,-1,8.06492,24.2)"
         id="path83" />
    </g>
    <g
       transform="matrix(9.9999998,0,0,9.9999998,3.9742104,20.028555)"
       id="g162">
      <path
         style="vector-effect:non-scaling-stroke;fill:#000000"
         d="M 7.43246,3.2342067 V 1.6171033 H 6.8 V 0 H 0 V 1.6171033 H -0.63246 V 3.2342067 H 0 V 4.85131 H 6.8 V 3.2342067 Z"
         shaper:cutDepth="0.006324600000000089"
         shaper:pathType="exterior"
         transform="matrix(1,0,0,-1,0.63246,4.85131)"
         id="path133" />
      <path
         style="vector-effect:non-scaling-stroke;fill:#ffffff;stroke:#000000;stroke-width:2"
         d="m 1.25,1.6171033 a 0.45,0.45 0 1 0 0.9,0 0.45,0.45 0 1 0 -0.9,0 z"
         shaper:cutDepth="0.006324600000000089"
         shaper:pathType="interior"
         transform="matrix(1,0,0,-1,0.63246,4.85131)"
         id="path135" />
      <path
         style="vector-effect:non-scaling-stroke;fill:#ffffff;stroke:#000000;stroke-width:2"
         d="m 4.65,1.6171033 a 0.45,0.45 0 1 0 0.9,0 0.45,0.45 0 1 0 -0.9,0 z"
         shaper:cutDepth="0.006324600000000089"
         shaper:pathType="interior"
         transform="matrix(1,0,0,-1,0.63246,4.85131)"
         id="path137" />
      <path
         style="vector-effect:non-scaling-stroke;fill:#ffffff;stroke:#000000;stroke-width:2"
         d="m 4.2,3.2342067 a 0.9,0.9 0 1 0 1.8,0 0.9,0.9 0 1 0 -1.8,0 z"
         shaper:cutDepth="0.006324600000000089"
         shaper:pathType="interior"
         transform="matrix(1,0,0,-1,0.63246,4.85131)"
         id="path139" />
      <path
         style="vector-effect:non-scaling-stroke;fill:#ffffff;stroke:#000000;stroke-width:2"
         d="m 0.8,3.2342067 a 0.9,0.9 0 1 0 1.8,0 0.9,0.9 0 1 0 -1.8,0 z"
         shaper:cutDepth="0.006324600000000089"
         shaper:pathType="interior"
         transform="matrix(1,0,0,-1,0.63246,4.85131)"
         id="path141" />
      <path
         style="vector-effect:non-scaling-stroke;fill:#ffffff;stroke:#000000;stroke-width:2"
         d="m 2.5,1.6171033 a 0.9,0.9 0 1 0 1.8,0 0.9,0.9 0 1 0 -1.8,0 z"
         shaper:cutDepth="0.006324600000000089"
         shaper:pathType="interior"
         transform="matrix(1,0,0,-1,0.63246,4.85131)"
         id="path143" />
      <path
         style="vector-effect:non-scaling-stroke;fill:#ffffff;stroke:#000000;stroke-width:2"
         d="m 2.95,3.2342067 a 0.45,0.45 0 1 0 0.9,0 0.45,0.45 0 1 0 -0.9,0 z"
         shaper:cutDepth="0.006324600000000089"
         shaper:pathType="interior"
         transform="matrix(1,0,0,-1,0.63246,4.85131)"
         id="path145" />
    </g>
  </g>
</svg>
