<?xml version="1.0" encoding="UTF-8" standalone="no"?>
<!-- Created with Inkscape (http://www.inkscape.org/) -->

<svg
   xmlns:shaper="http://www.shapertools.com/namespaces/shaper"
   xmlns:dc="http://purl.org/dc/elements/1.1/"
   xmlns:cc="http://creativecommons.org/ns#"
   xmlns:rdf="http://www.w3.org/1999/02/22-rdf-syntax-ns#"
   xmlns:svg="http://www.w3.org/2000/svg"
   xmlns="http://www.w3.org/2000/svg"
   xmlns:sodipodi="http://sodipodi.sourceforge.net/DTD/sodipodi-0.dtd"
   xmlns:inkscape="http://www.inkscape.org/namespaces/inkscape"
   width="23.5in"
   height="11.25in"
   viewBox="0 0 596.9 285.75001"
   version="1.1"
   id="svg437"
   inkscape:version="0.92.2 5c3e80d, 2017-08-06"
   sodipodi:docname="toolbox_inserts_flat_3.svg">
  <defs
     id="defs431" />
  <sodipodi:namedview
     id="base"
     pagecolor="#ffffff"
     bordercolor="#666666"
     borderopacity="1.0"
     inkscape:pageopacity="0.0"
     inkscape:pageshadow="2"
     inkscape:zoom="0.35"
     inkscape:cx="1252.8571"
     inkscape:cy="445.71429"
     inkscape:document-units="mm"
     inkscape:current-layer="layer1"
     showgrid="false"
     units="in"
     inkscape:window-width="1680"
     inkscape:window-height="1006"
     inkscape:window-x="0"
     inkscape:window-y="0"
     inkscape:window-maximized="1" />
  <metadata
     id="metadata434">
    <rdf:RDF>
      <cc:Work
         rdf:about="">
        <dc:format>image/svg+xml</dc:format>
        <dc:type
           rdf:resource="http://purl.org/dc/dcmitype/StillImage" />
        <dc:title></dc:title>
      </cc:Work>
    </rdf:RDF>
  </metadata>
  <g
     inkscape:label="Layer 1"
     inkscape:groupmode="layer"
     id="layer1"
     transform="translate(0,-11.249983)">
    <path
       id="path331"
       shaper:pathType="exterior"
       shaper:cutDepth="0.0063246000000000005"
       d="m 594.31615,44.10436 h -67.99997 v 6.324589 H 458.31615 V 44.10436 h -61.67538 v 123.99998 h 61.67538 v -6.32459 h 68.00003 v 6.3246 h -44.00003 v 85.00001 h 37.33335 v -6.32461 h 37.33333 v 6.32461 h 37.33333 z"
       inkscape:connector-curvature="0"
       style="vector-effect:non-scaling-stroke;fill:#000000;stroke-width:10" />
    <path
       id="path342"
       shaper:pathType="exterior"
       shaper:cutDepth="0.006324599999999982"
       d="m 319.32824,86.279345 v 6.3246 h 37.33335 v -6.3246 h 37.33333 v 85.000015 h -44 v 6.3246 h 68.00002 v -6.3246 h 61.67542 v 124 h -61.67542 v -6.3246 h -68.00002 v 6.3246 H 281.99491 V 86.279345 Z"
       inkscape:connector-curvature="0"
       style="vector-effect:non-scaling-stroke;fill:#000000;stroke-width:10" />
    <path
       id="path68"
       shaper:pathType="exterior"
       shaper:cutDepth="0.0063246000000000005"
       d="m 119.2214,151.05638 h -6.3246 v 61.6754 H 96.725772 v 6.3246 h -16.17103 v -6.3246 h -16.17103 v -95.67537 h -6.3246 v 95.67537 H 41.88807 v 6.3246 H 25.71703 v -6.3246 H 9.5460099 v -61.6754 h -6.3246 V 83.056416 h 6.3246 V 15.056406 H 112.8968 v 68.00001 h 6.3246 z"
       inkscape:connector-curvature="0"
       style="vector-effect:non-scaling-stroke;fill:#000000;stroke-width:10" />
    <g
       id="g297"
       transform="matrix(0,10,-10,0,326.47366,25.117045)">
      <path
         id="path283"
         transform="matrix(1,0,0,-1,0.63246,20.4)"
         shaper:pathType="exterior"
         shaper:cutDepth="0.006324600000000018"
         d="M 4.85131,19.76754 H 3.2342067 V 20.4 H 1.6171033 V 19.76754 H 0 V 13.6 H -0.63246 V 6.8 H 0 V 0 h 10.33508 v 6.8 h 0.63246 v 6.8 h -0.63246 v 2.08754 H 5.48377 V 10.2 H 4.85131 Z"
         inkscape:connector-curvature="0"
         style="vector-effect:non-scaling-stroke;fill:#000000" />
      <path
         id="path285"
         transform="matrix(1,0,0,-1,0.63246,20.4)"
         shaper:pathType="interior"
         shaper:cutDepth="0.006324600000000018"
         d="M 7.1008733,10.2 V 9.56754 H 8.7179767 V 10.2 Z"
         inkscape:connector-curvature="0"
         style="vector-effect:non-scaling-stroke;fill:#ffffff;stroke:#000000;stroke-width:2" />
    </g>
    <path
       id="path353"
       shaper:pathType="exterior"
       shaper:cutDepth="0.0063246000000000005"
       d="m 147.99703,245.50157 h 6.3246 v 37.33333 h 103.3508 v -37.33333 h 6.3246 v -37.33334 h -6.3246 V 170.8349 h -32.34206 v -6.3246 H 186.6637 v 6.3246 h -32.34207 v 37.33333 h -6.3246 z"
       inkscape:connector-curvature="0"
       style="vector-effect:non-scaling-stroke;fill:#000000;stroke-width:10" />
  </g>
</svg>
