<?xml version="1.0" encoding="UTF-8" standalone="no"?>
<!-- Created with Inkscape (http://www.inkscape.org/) -->

<svg
   xmlns:shaper="http://www.shapertools.com/namespaces/shaper"
   xmlns:dc="http://purl.org/dc/elements/1.1/"
   xmlns:cc="http://creativecommons.org/ns#"
   xmlns:rdf="http://www.w3.org/1999/02/22-rdf-syntax-ns#"
   xmlns:svg="http://www.w3.org/2000/svg"
   xmlns="http://www.w3.org/2000/svg"
   xmlns:sodipodi="http://sodipodi.sourceforge.net/DTD/sodipodi-0.dtd"
   xmlns:inkscape="http://www.inkscape.org/namespaces/inkscape"
   width="11.25in"
   height="11.25in"
   viewBox="0 0 285.75 285.75001"
   version="1.1"
   id="svg639"
   inkscape:version="0.92.2 5c3e80d, 2017-08-06"
   sodipodi:docname="toolbox_inserts_flat_4.svg">
  <defs
     id="defs633" />
  <sodipodi:namedview
     id="base"
     pagecolor="#ffffff"
     bordercolor="#666666"
     borderopacity="1.0"
     inkscape:pageopacity="0.0"
     inkscape:pageshadow="2"
     inkscape:zoom="0.35"
     inkscape:cx="-118.57143"
     inkscape:cy="560"
     inkscape:document-units="mm"
     inkscape:current-layer="layer1"
     showgrid="false"
     units="in"
     inkscape:window-width="1680"
     inkscape:window-height="1006"
     inkscape:window-x="0"
     inkscape:window-y="0"
     inkscape:window-maximized="1" />
  <metadata
     id="metadata636">
    <rdf:RDF>
      <cc:Work
         rdf:about="">
        <dc:format>image/svg+xml</dc:format>
        <dc:type
           rdf:resource="http://purl.org/dc/dcmitype/StillImage" />
        <dc:title></dc:title>
      </cc:Work>
    </rdf:RDF>
  </metadata>
  <g
     inkscape:label="Layer 1"
     inkscape:groupmode="layer"
     id="layer1"
     transform="translate(0,-11.249983)">
    <g
       id="g96"
       transform="matrix(10,0,0,10,7.4271848,52.023792)">
      <path
         id="path79"
         transform="matrix(1,0,0,-1,8.06492,24.2)"
         shaper:pathType="exterior"
         shaper:cutDepth="0.0063246"
         d="m -0.63246,10.2 v 10.2 h -6.8 V 10.2 H -8.06492 V 0.63246 H 0 V 0 h 18.77016 v 0.63246 h 0.63246 V 10.2 h -0.63246 v 13 a 1,1 0 0 1 -1,1 H 1 a 1,1 0 0 1 -1,-1 v -13 z"
         inkscape:connector-curvature="0"
         style="vector-effect:non-scaling-stroke;fill:#000000" />
      <path
         id="path81"
         transform="matrix(1,0,0,-1,8.06492,24.2)"
         shaper:pathType="interior"
         shaper:cutDepth="0.0063246"
         d="M 3.5333333,20.4 H 15.236827 a 1,1 0 0 1 1,1 v 0.533333 a 1,1 0 0 1 -1,1 H 3.5333333 a 1,1 0 0 1 -1,-1 V 21.4 a 1,1 0 0 1 1,-1 z"
         inkscape:connector-curvature="0"
         style="vector-effect:non-scaling-stroke;fill:#ffffff;stroke:#000000;stroke-width:2" />
      <path
         id="path83"
         transform="matrix(1,0,0,-1,8.06492,24.2)"
         shaper:pathType="interior"
         shaper:cutDepth="0.0063246"
         d="M 6.25672,10.51623 V 9.88377 h 6.25672 v 0.63246 z"
         inkscape:connector-curvature="0"
         style="vector-effect:non-scaling-stroke;fill:#ffffff;stroke:#000000;stroke-width:2" />
    </g>
    <g
       id="g162"
       transform="matrix(9.9999998,0,0,9.9999998,3.9742104,20.028555)">
      <path
         id="path133"
         transform="matrix(1,0,0,-1,0.63246,4.85131)"
         shaper:pathType="exterior"
         shaper:cutDepth="0.006324600000000089"
         d="M 7.43246,3.2342067 V 1.6171033 H 6.8 V 0 H 0 V 1.6171033 H -0.63246 V 3.2342067 H 0 V 4.85131 H 6.8 V 3.2342067 Z"
         inkscape:connector-curvature="0"
         style="vector-effect:non-scaling-stroke;fill:#000000" />
      <path
         id="path135"
         transform="matrix(1,0,0,-1,0.63246,4.85131)"
         shaper:pathType="interior"
         shaper:cutDepth="0.006324600000000089"
         d="m 1.25,1.6171033 a 0.45,0.45 0 1 0 0.9,0 0.45,0.45 0 1 0 -0.9,0 z"
         inkscape:connector-curvature="0"
         style="vector-effect:non-scaling-stroke;fill:#ffffff;stroke:#000000;stroke-width:2" />
      <path
         id="path137"
         transform="matrix(1,0,0,-1,0.63246,4.85131)"
         shaper:pathType="interior"
         shaper:cutDepth="0.006324600000000089"
         d="m 4.65,1.6171033 a 0.45,0.45 0 1 0 0.9,0 0.45,0.45 0 1 0 -0.9,0 z"
         inkscape:connector-curvature="0"
         style="vector-effect:non-scaling-stroke;fill:#ffffff;stroke:#000000;stroke-width:2" />
      <path
         id="path139"
         transform="matrix(1,0,0,-1,0.63246,4.85131)"
         shaper:pathType="interior"
         shaper:cutDepth="0.006324600000000089"
         d="m 4.2,3.2342067 a 0.9,0.9 0 1 0 1.8,0 0.9,0.9 0 1 0 -1.8,0 z"
         inkscape:connector-curvature="0"
         style="vector-effect:non-scaling-stroke;fill:#ffffff;stroke:#000000;stroke-width:2" />
      <path
         id="path141"
         transform="matrix(1,0,0,-1,0.63246,4.85131)"
         shaper:pathType="interior"
         shaper:cutDepth="0.006324600000000089"
         d="m 0.8,3.2342067 a 0.9,0.9 0 1 0 1.8,0 0.9,0.9 0 1 0 -1.8,0 z"
         inkscape:connector-curvature="0"
         style="vector-effect:non-scaling-stroke;fill:#ffffff;stroke:#000000;stroke-width:2" />
      <path
         id="path143"
         transform="matrix(1,0,0,-1,0.63246,4.85131)"
         shaper:pathType="interior"
         shaper:cutDepth="0.006324600000000089"
         d="m 2.5,1.6171033 a 0.9,0.9 0 1 0 1.8,0 0.9,0.9 0 1 0 -1.8,0 z"
         inkscape:connector-curvature="0"
         style="vector-effect:non-scaling-stroke;fill:#ffffff;stroke:#000000;stroke-width:2" />
      <path
         id="path145"
         transform="matrix(1,0,0,-1,0.63246,4.85131)"
         shaper:pathType="interior"
         shaper:cutDepth="0.006324600000000089"
         d="m 2.95,3.2342067 a 0.45,0.45 0 1 0 0.9,0 0.45,0.45 0 1 0 -0.9,0 z"
         inkscape:connector-curvature="0"
         style="vector-effect:non-scaling-stroke;fill:#ffffff;stroke:#000000;stroke-width:2" />
    </g>
  </g>
</svg>
