<?xml version="1.0" encoding="UTF-8" standalone="no"?>
<svg
   xmlns:shaper="http://www.shapertools.com/namespaces/shaper"
   xmlns:dc="http://purl.org/dc/elements/1.1/"
   xmlns:cc="http://creativecommons.org/ns#"
   xmlns:rdf="http://www.w3.org/1999/02/22-rdf-syntax-ns#"
   xmlns:svg="http://www.w3.org/2000/svg"
   xmlns="http://www.w3.org/2000/svg"
   id="svg437"
   version="1.1"
   viewBox="0 0 596.9 285.75001"
   height="11.25in"
   width="23.5in">
  <defs
     id="defs431" />
  <metadata
     id="metadata434">
    <rdf:RDF>
      <cc:Work
         rdf:about="">
        <dc:format>image/svg+xml</dc:format>
        <dc:type
           rdf:resource="http://purl.org/dc/dcmitype/StillImage" />
        <dc:title></dc:title>
      </cc:Work>
    </rdf:RDF>
  </metadata>
  <g
     transform="translate(0,-11.249983)"
     id="layer1">
    <path
       style="vector-effect:non-scaling-stroke;fill:#000000;stroke-width:10"
       d="m 594.31615,44.10436 h -67.99997 v 6.324589 H 458.31615 V 44.10436 h -61.67538 v 123.99998 h 61.67538 v -6.32459 h 68.00003 v 6.3246 h -44.00003 v 85.00001 h 37.33335 v -6.32461 h 37.33333 v 6.32461 h 37.33333 z"
       shaper:cutDepth="0.0063246000000000005"
       shaper:pathType="exterior"
       id="path331" />
    <path
       style="vector-effect:non-scaling-stroke;fill:#000000;stroke-width:10"
       d="m 319.32824,86.279345 v 6.3246 h 37.33335 v -6.3246 h 37.33333 v 85.000015 h -44 v 6.3246 h 68.00002 v -6.3246 h 61.67542 v 124 h -61.67542 v -6.3246 h -68.00002 v 6.3246 H 281.99491 V 86.279345 Z"
       shaper:cutDepth="0.006324599999999982"
       shaper:pathType="exterior"
       id="path342" />
    <path
       style="vector-effect:non-scaling-stroke;fill:#000000;stroke-width:10"
       d="m 119.2214,151.05638 h -6.3246 v 61.6754 H 96.725772 v 6.3246 h -16.17103 v -6.3246 h -16.17103 v -95.67537 h -6.3246 v 95.67537 H 41.88807 v 6.3246 H 25.71703 v -6.3246 H 9.5460099 v -61.6754 h -6.3246 V 83.056416 h 6.3246 V 15.056406 H 112.8968 v 68.00001 h 6.3246 z"
       shaper:cutDepth="0.0063246000000000005"
       shaper:pathType="exterior"
       id="path68" />
    <g
       transform="matrix(0,10,-10,0,326.47366,25.117045)"
       id="g297">
      <path
         style="vector-effect:non-scaling-stroke;fill:#000000"
         d="M 4.85131,19.76754 H 3.2342067 V 20.4 H 1.6171033 V 19.76754 H 0 V 13.6 H -0.63246 V 6.8 H 0 V 0 h 10.33508 v 6.8 h 0.63246 v 6.8 h -0.63246 v 2.08754 H 5.48377 V 10.2 H 4.85131 Z"
         shaper:cutDepth="0.006324600000000018"
         shaper:pathType="exterior"
         transform="matrix(1,0,0,-1,0.63246,20.4)"
         id="path283" />
      <path
         style="vector-effect:non-scaling-stroke;fill:#ffffff;stroke:#000000;stroke-width:2"
         d="M 7.1008733,10.2 V 9.56754 H 8.7179767 V 10.2 Z"
         shaper:cutDepth="0.006324600000000018"
         shaper:pathType="interior"
         transform="matrix(1,0,0,-1,0.63246,20.4)"
         id="path285" />
    </g>
    <path
       style="vector-effect:non-scaling-stroke;fill:#000000;stroke-width:10"
       d="m 147.99703,245.50157 h 6.3246 v 37.33333 h 103.3508 v -37.33333 h 6.3246 v -37.33334 h -6.3246 V 170.8349 h -32.34206 v -6.3246 H 186.6637 v 6.3246 h -32.34207 v 37.33333 h -6.3246 z"
       shaper:cutDepth="0.0063246000000000005"
       shaper:pathType="exterior"
       id="path353" />
  </g>
</svg>
